<?xml version="1.0" encoding="UTF-8"?>
<svg id="Layer_1" data-name="Layer 1" xmlns="http://www.w3.org/2000/svg" width="271" height="207.6" version="1.1" viewBox="0 0 271 207.6">
  <defs>
    <style>
      .cls-1 {
        fill: #000;
        stroke-width: 0px;
      }
    </style>
  </defs>
  <path class="cls-1" d="M176.1,59.7c-2.5-2.1-4.7-3.5-6.2-5.4-3.4-4.2-2.9-10.1,1.9-14,11.3-9.2,23.9-15.7,39-14.8,12.4.7,21.6,7.2,28.3,17.4,5.4,8.2,8.3,17.3,9.5,26.9,4,31.2-2,60.6-17.4,87.9-3.6,6.3-8.4,12.3-13.8,17.2-15.2,13.7-32.8,9.8-41.5-8.9-5.5-11.9-6.6-24.8-6.9-37.7-.5-21.8,2.5-43.2,6.4-64.5.2-1.3.4-2.7.6-4.1ZM228.9,89.6c0-11.8-.8-22-5.5-31.1-2-3.9-5.3-7.9-9-10.1-8.2-4.9-16.2-.8-18.1,8.5-1.6,8.1-3.2,16.1-4.4,24.2-2.9,19.5-5.3,39.1-2.4,58.8.9,6.4,3,12.8,5.4,18.8,1.7,4.2,4.6,4.8,7.8,1.6,4.1-4,7.9-8.4,10.7-13.3,10.5-18.2,14.6-38.2,15.5-57.4Z"/>
  <path class="cls-1" d="M54.6,73.1c0,5.5,0,10.2,0,15,0,3.8,2.9,4.9,5.4,6.5,9.6,6.3,16.5,14.7,20.1,25.7,6.7,20.7,0,38.3-19.8,50.2.2,2.9.5,6.1.6,9.3.1,2.7.5,5.4,0,8.1-.8,5.4-4.7,9.2-9.3,9.6-5,.4-9.8-3-11-8.7-1-5-1.6-10.1-1.7-15.2,0-4.8-2.2-7.4-6-10.2-5.1-3.6-9.7-8-13.9-12.7-5.3-5.9-5.6-11.7-1.9-16.2,3.6-4.4,8-4.8,15.4-1.5.5.2,1.1.3,1.6.4.9-3.5.8-24.7-.5-27.1-1-1.7-2.5-3.3-4.2-4.3-23.4-13.6-18.4-39.8-5.9-53.5,4.7-5.1,6.8-9.8,6.3-16.7-.6-9,3.5-14.4,9.8-14.6,6.3-.2,10.6,4.6,10.9,13.8.2,5.7,2.4,9,6.6,12.7,4.3,3.8,7.7,9.2,10.1,14.6,3.7,8.3-.2,13.7-9.5,14.6-.9,0-1.8.1-3.3.2ZM58.2,139.7c3.8-5.5,3.1-10.6-1.3-15.3.4,5.1.9,10.2,1.3,15.3Z"/>
  <path class="cls-1" d="M132,99.9c6.3,4.4,12,7.9,17,12.1,9,7.5,15.4,16.9,17.6,28.7,3.3,17.9-4.9,33.9-21.4,41.5-14.6,6.7-29.9,6.2-45.1,2.6-6.8-1.6-10.3-7.6-9-13.6,1.3-6,6.4-9.3,13.8-8.8,6.3.4,12.6,1.3,18.9,1.1,8.1-.2,16.1-2,19.4-10.5,3.5-8.8-1.2-15.8-7-21.8-7.3-7.6-16.7-11.7-26.6-14.4-2.9-.8-5.9-1.3-8.7-2.4-4.8-1.9-8.1-5.2-8.2-10.7-.1-5.1,2.6-8.5,7-10.7,2.7-1.3,5.7-2.1,8.2-3.7,5-3.2,10.4-6.2,14.5-10.5,8.3-8.6,8.1-18.5.2-27.5-6.1-7-14.2-11-22.8-14-3.7-1.3-7.5-2.1-11.1-3.7-5.3-2.3-7.7-6.8-6.5-11.5,1.2-4.6,5.5-8.1,11.1-7,21.5,3.9,40.5,12.4,51.4,32.6,7.6,14.3,5.6,28.6-3.7,41.7-2.6,3.6-5.7,6.8-8.8,10.5Z"/>
</svg>