<?xml version="1.0" encoding="UTF-8"?>
<svg id="Layer_1" data-name="Layer 1" xmlns="http://www.w3.org/2000/svg" width="1823.8" height="1877.4" version="1.1" viewBox="0 0 1823.8 1877.4">
  <defs>
    <style>
      .cls-1 {
        fill: #000;
        stroke-width: 0px;
      }
    </style>
  </defs>
  <path class="cls-1" d="M507,1677.7c5.7,8,40.2-5.1,42.7,25.4,3.3,25.4-24,32.5-46.1,35.6-2.6.5-4.7,1.3-6.4,3.2-2.7,3.2-3.2,9.7-4.4,14.4-2.5,11.5-6.2,25.1-15,31.6-4.7,3.8-12.2,5.1-18.5,5-36.5.2-49.5-39-53.8-71.3-1-7.2-1.4-14.3-2.7-21.5-1.2-8.3-9.2-38.3.4-41.7,2.4-.6,5.7.7,8.9.3,1.4-.2,2.6-.5,4-1.1,10.5-4.8,21.4-8.6,32.7-11.5,22.5-6.7,58.9-12.2,57.2,22.9,0,2.8-.5,6.3.9,8.7h0ZM494.4,1660c-.4-.3-.9-.4-1.5-.4-2.2,0-5.9,1.9-9.8,2.9-1.1.3-2.1.6-3.2.8-11.7,2.7-24.2,3.1-36.1,3.6-12.2.9-32.2,0-33.3,9.1,5.8,36,2.4,97,42.1,107.2,16.2,4,24.7-2.7,28.5-18.3,2.8-10.9,2.4-24.5,9.6-31.1,3.5-3.3,9.6-4.1,14.6-4.7,27.3-1.6,50.4-27.6,24.3-36.8-18.8-6.9-37.4,4-34-25.8,0-2.1.4-5.1-1.1-6.4h0ZM486.9,1651.7c.1-1.5-3.2-1.5-4.5-1.7-12.1-1.1-41.1,3.3-50.4,11.2,0,.4.6.6,1.7.7,1.2,0,3,0,4.4,0,15.8-.8,32-1.4,46.8-8.4,1.1-.6,1.9-1.2,2-1.7h0Z"/>
  <path class="cls-1" d="M1324.3,1696.3c15.9-.9,32.3,3.7,33.7,20.3,1.4,11.3-2.9,27.1-5.4,40.7-1,5.3-1.6,10.4-2.4,16-2.8,37.8-43.6,46.4-68.7,23-7.9-7-12.7-17.3-15.6-27.4-4-13.1-7.6-26.4-11.1-39.7-1-3.9-2.3-8.4-1.2-12.1,3.7-9.3,16.8-12,31.5-15.1,13-2.2,26.9-4,39-5.6h.2ZM1264.1,1720.5c-1.4,1.5-.7,4.5-.2,6.6,6.5,25.5,8.5,53.8,31.7,68.3,16.9,11.2,36.4,7.9,43.5-12.1,3.9-11,4.6-22.7,6.5-34.1,1.1-7.5,2.1-15.1,3.1-22.6.2-1.9.5-4.1,0-5.8-1.2-3.5-6-1.5-8.8-.8-22.7,6.8-44.5,3.5-68.7-.3-2.3-.3-5.6-.8-7,.7h0ZM1290.6,1714.3c1.3,1.5,5.2,1.7,7.4,2.1,16.5,2.2,31.2.6,39.8-4.5,1-.6,2.4-1.6,1.9-2.7-1-1.8-4.6-2.1-6.8-2.5-13.1-1.7-25.6.6-37.8,4.6-1.3.6-5,1.4-4.7,2.9h0Z"/>
  <g>
    <path class="cls-1" d="M1258.4,1458c-.8,11,214-50.5,181.4-23.9-3.4,2.8-7.8,4.1-12.2,4.3-50.5,4.3-145.6,36.8-173.9,21.3-4.1-2.5-3.2-8.5-3.1-13.2,1.2-50.9-16.6-92.4,43.1-97,4.3-.5,7.1-.7,11-1.4,24.6-3.4,66.7-6.4,95.3-6.6,15.6,0,41.6.3,29.6,7.5-2.4,1.4-6.4,2.9-10.7,3.5-48.8.9-98.5-1.7-146.5,9.2-3.4.8-6,1.9-8,3.8-14.1,13.1-4.8,61.8-6.1,87,0,1.7-.2,3.7.1,5.3h0Z"/>
    <path class="cls-1" d="M312.4,1139.8c4.9,4.6,24.2-10.6,33.5-5.5,2.1,1,3.5,3.4,2.4,5.7-1.9,4-7.9,5.6-12,6.9-18.3,5.2-36.7,10.6-55,15.7-2.2.6-4.8,1.1-7,1-2.9-.2-5.2-1-5.5-3.3-.3-4.1,10.4-7.6,18.5-10.2,4-1.2,8.4-3,8.6-7.7,1.6-56.2-.3-57.1-53.7-46-3.6.6-8.7.4-10.6-2.3-2.8-3.8.9-8,5.1-8.9,3.3-.9,6.6-.6,9.9-.7,27.4-.1,87.1-25.9,100.5-14.4,1.8,4.7-4.8,9.5-9.3,10-38.3,2.9-33.4,13.4-28,51.7.3,2.6.7,6.3,2.4,7.9h.1Z"/>
    <path class="cls-1" d="M1286.6,1241.1c.3-7.5.2-13.5,1.4-21.3,5.8-50.8,47.6-23.7,48.2,27,.4,15.1-9.8,36.9-27,34.3-6.5-1.1-12.7-5.7-16.9-12.6-4.8-7.2-6.3-18.1-5.7-27.2v-.2ZM1307.7,1212.2c-2,.7-2.8,3.9-3.4,5.9-4.2,15-7.7,34.6.2,46.4,1.5,2.4,4.1,4.7,7,4.6,18.7-4.9,13.2-40.5,1-54-1.2-1.4-3.1-3.3-4.7-2.9h0Z"/>
    <path class="cls-1" d="M382.1,1291.1c-.2-3.6-4.3-5.2-8.1-6.5-9.3-2.8-18.6-1.9-28.5-1.2-12.5.6-29.5,3.9-38.3-6.3-16.2-22.8,15.2-63.1,40-59.1,3.6.5,7.5,2.2,9.5,5.3,2.1,3,1.2,7.3-2.3,8.2-4.2,1.1-8.4-1-12.6-1.3-3.5-.3-6.9.6-10.3,2.3-11.5,5.5-28.2,28.3-16,38.9,2.9,2.3,6.7,3.2,10.4,3.2,22.5-1,77.3-4.9,66.8,18.5-2.8,5.7-7.2,11.1-13,13.5-15.1,6.1-41.7,8.9-59,7.6-8.2-.6-15.2-2.1-19.3-4.8-3.9-2.6-1.6-6,2.9-6.3,3.1-.4,6.5.4,9.7.9,21.1,3.7,46.4,5.5,63.9-7,1.9-1.4,4.3-3.6,4.3-5.8h0Z"/>
    <path class="cls-1" d="M966.5,1405.8c11.7,16.2,54.9,21.2,74.6,28,6.6,2.1,12.3,4.6,19.1,6.1,13.6,3.7,49.2,4.7,53.1,17.2-.3,3.2-4.7,3.1-8.7,3.2-18.8-1.3-37.7-11-55.5-17.3-9.8-3.9-19.4-5.8-29.5-8.9-7.3-2.3-14.8-4.3-22.2-6.6-10.3-3.2-22.4-7-31-12.7-18.1-11.9,5.4-22.4,15.9-27.1,37.9-19.4,79.2-34.1,112.5-61,2.8-2.2,5.7-4.9,8.9-6.5,3-1.4,5.6-1.7,7.1,0,1.5,28.4-112.9,60-140.8,80.9-1.6,1.1-3.8,2.8-3.4,4.7h0Z"/>
    <path class="cls-1" d="M1071.1,1255.5c-3.4-4.4-12.1-1.6-17.4-2-4,.1-12.5-1.5-12.2-5.1.4-3.3,8.7-7.1,18.1-8.4,8.1-1.2,17.1-.5,22.3,3.9,2.7,2.2,4.3,5.5,4.5,9,.7,25-35.7,33-58,26.3-8-2.3-16.3-8.3-20.4-15.2-8.1-14.4,4.4-28.6,15.1-38.3,7.1-6.4,14.8-11.9,22.4-17.1,4.1-2.7,8.4-6.2,13-7.2,5.1-1.3,10.3,2.3,7.1,7.7-7.6,13.2-41,19.2-48.8,37.3-9.7,25.6,29.2,27.5,44.6,19.8,4-1.9,11.3-6,9.7-10.5h0Z"/>
    <path class="cls-1" d="M1481.4,1043.2c-.2-6.9,4.5-10.4,12.1-10.4,7.4-.2,16.9,2.2,24.7,4.7,7.8,2.6,14.2,5,19.5,11.1,14.8,17.1-5.1,40.6-23.3,51.9-10.8,6.9-24.3,5.8-28.5-7.8-2.9-8.6-2.9-18.6-3.2-28,0-7.8-.9-14.2-1.2-21.3v-.2ZM1504.3,1090.4c1.3.4,3.1,0,5.1-.9,25.4-12.8,30.4-39.8.7-42.9-4-.2-10-1.6-12.8,1.5-1.3,1.9-.8,4.6-.6,6.8,1.4,9.8,2.8,19.4,4.2,29.3.4,2.3.9,5.4,3.2,6.2h.1Z"/>
    <path class="cls-1" d="M812.4,1256.5c-1.9,2.4-1.7,5.7-1.7,9.6,0,4.7.3,10.6-2.1,14.4-3.3,5.7-9.6,3.2-10.9-2.6-.8-3.1-.5-6.5-.4-9.7.6-15.8-.9-50.9,6.2-52.3,1.6-.3,3.8,2.9,4.5,5.6,1.9,5.3.7,12.1,3,17.3,1.9,3.7,5.7-.4,11.8-4.3,5.6-3.7,13.4-5.8,15.3-12.8,1-3.2,1.2-6.6,2.1-9.8.8-4.2,4.9-10.5,9.2-7,3.7,3.5,2.3,9.5,1.7,14.1-2.3,18.9-2,71.7-13.3,71.7-2.5.3-5.5-3.4-6.2-6.5-1-3.3-1-6.8-.7-10.2.6-6.6,1.7-13.1,2.9-19.5,1.1-6.3.3-4.5-7.3-2.6-4.4,1.4-10.6,1.1-13.9,4.5h0Z"/>
    <path class="cls-1" d="M341.1,1460.7c.9.9,2.7,1.4,5,1.7,66.2,6.6,132.9.3,199.4-.3,2.7,0,5.3.3,7.7,1.4,2.8,1.4,4.3,4,2.9,6.2-2,3.1-7.6,2.9-11.3,2.7-43.9-3.7-87.9-3.3-131.9-2.3-17.8.5-30.1,1-46.6.6-47.1-1.2-30.9-12.6-17.6-53.6,2.5-7.7,4.9-16.6,6.8-26.5.8-4.2,1.5-8.6,2-12.7,1-6.1.1-11.4,3.5-16.5,2.4-3.5,6.9-3.9,8.2.4,5.9,17.9-18.7,70.7-28,93.6-.7,1.7-1.5,4-.1,5.3h0Z"/>
    <path class="cls-1" d="M746.9,1092.2c1.6.8,4.1,0,7-1.4,2.8-1.4,5.9-2.9,8.8-3.7,6.9-2.3,12,2.5,7.1,8.4-5.9,6.7-21.3,7.4-25,16.6-2,4.3-.2,10,5.1,10.2,8.3,0,16.8-3.5,24.8-5.7,3.5-1,7.4-2,10.9-1.8,8.9.6,9.5,9.3,1.9,12.7-4.4,2.1-8.5,2.5-13.7,3.5-4,.7-8.3,1.4-12.4,1.9-24.9,2.9-29-4.1-29.2-25.1,0-9.8.6-23,.6-33.1-1.3-20.2,29.5-37.4,45.4-33.1,1.5.4,3.4,1.5,3.9,2.9,1,2.9-2.6,5.2-5,6.4-13.8,6.4-30.9,3.1-32.8,21.4-.6,4.5-1.6,17.2,2.4,19.7h.1Z"/>
    <path class="cls-1" d="M624.6,1257.1c2.1,1.6,7,.2,10.1-.8,6.4-1.6,15.8-5.4,20.9.3,4.3,6.8-3.3,12.5-9.8,13.4-10.6,2-23.5.3-22,15.4,1,9.2,8.6,6.3,16.2,4.3,4-1.1,8.1-2.4,12.1-3.5,5.8-1.4,19.8-6.2,20.7.6.3,3.4-2,6.6-4.7,8.5-2.4,1.6-5.5,2.2-9.3,2.9-3.3.6-7.2,1.3-10.7,1.8-34.4,6.2-33.6-11.6-35.1-36.8-.3-15.7-4-34.4,13.3-42.3,5.4-2.6,11.4-4.2,17.3-5.8,3-.7,6.4-1.5,9.3-1.1,6.6,1,4.3,6.8-.1,9-12,6.4-28.6,2.2-30.8,18.3-.6,4.6-1.6,13,2.3,15.9h.1Z"/>
    <path class="cls-1" d="M975.7,1271.7c1.3-.6.7-3.2.4-4.6-3.4-15.9-15.2-56-9.6-62.2,3.2-2.8,7.6,2.5,8.9,6,1,2.3,1.5,5,1.9,7.5,2.3,16.6,4.5,33.3,6.7,49.9.7,5.1,2.6,22.1-4.5,22.5-11.6-.6-39-54.9-45.7-48.1-2.3,3.2-1.6,7.7-1.7,11.8,0,8.4,1.1,16.9.4,25.3-1.9,14.8-6.5,13.5-9-1.6-1.6-9.2-2.3-21.6-1.3-31.2,1-10.5,3.9-19.4,15-15.6,16,4.3,25.3,37,38.4,40.3h0Z"/>
    <path class="cls-1" d="M1410.4,1064.9c-3.7,1.5-1.2,20.6-1.6,25.3,0,5.8-.2,12.4-3.3,17-2.4,3.5-5.8,1.8-7-1.5-4.2-10.7,1.8-30.4,3.1-44,1.9-13.5,10.8-13.9,19.4-4.6,4.9,5.3,10,13.2,14.5,19.3,4.6,6.3,8.7,11.3,10.6,10.5.7-.3,1-1.2,1.2-2.7.2-1.9,0-4.5-.3-6.7-2-13.8-5.5-27.4-7.1-41.1-.4-3.6-.5-7.7,1.2-10.9,1.5-2.9,4.9-4,7.7-2.4,3.5,1.9,5,7,5.4,11.1.8,11.8,1.6,23.2,2.7,35.4,3.2,39.4,3.5,48.7-20.6,22.3-3-3.3-6.2-6.8-9-10.1-3.3-3.8-5.7-6.6-8.6-10-2-2-5.3-7.3-8-7h0Z"/>
    <path class="cls-1" d="M692.3,1054.5c3.8-.3,8,.5,12,1.6,35.8,9.8-10.5,35.6-21.9,55.3-3,5.6,0,12.6-1.5,18.5-.9,4.8-5.7,7.3-9.6,4.3-12.2-11-6.8-40.2-9.7-58.7-.4-2.8-.9-5.8-.8-8.5.4-10.2,11.8-9.9,21.2-11.3,3.7-.5,7-1.1,10.1-1.3h.2ZM677.5,1093.1c2.9,1.4,5.7-1.3,8.7-2.8,2.4-1.5,5.2-3.3,7.6-5.2,14.6-11.4,11.9-21.7-5.9-20.3-4.2.6-11.9.5-14.2,4.5-1,1.9-.7,4.8-.2,7.9.6,3.6,1.1,7.2,1.7,10.7.3,1.8.8,4,2.2,5.1h0Z"/>
    <path class="cls-1" d="M1235,1242.9c3.1-2,2.6-8.4,3.1-13,.3-6.2.3-12.8,1.1-18.6.5-3.7,1.3-7.2,2.7-10.2,2.5-5.7,7.7-8.8,9.8-1.9,5.8,19.8-5.8,57.9-5.9,81.7-.4,4.6-2.6,12.2-7.2,12.6-2.8.2-5.6-2.4-6.8-6.6-1.4-4.6-.2-10.7.2-15.5,2-24-34.5-40.6-39.7-60.2-1.3-4.2-.3-9,5.1-5.9,4,2.3,8.3,6.9,12.7,12.3,4,4.2,20,27.5,24.9,25.3h0Z"/>
    <path class="cls-1" d="M1417.9,1225.6c.8,12-1.4,23.9-4.4,35.8-16.5,59.9-57.8,1.8-54.6-50.2.5-4,1.8-7,3.9-8.3,2.4-1.6,5.4-.8,7.1,2,2.7,4.3,2.3,10.4,2.4,15.4,0,14.5,4.4,49.4,19.2,55.3,18.3,3.6,13.6-45,12.5-59.8-.6-4.8-.5-12,5-13.5,5.9-.8,7.9,6.2,8,11.4.2,4.3.5,8.2.8,11.7v.2Z"/>
    <path class="cls-1" d="M565.9,1235.2c-2,.7-3.7,3.4-5.1,5.1-6.5,8.7-13.1,16.2-23.7,17.1-3.1.3-6.2.6-8.3,1.9-1.8,1-2.9,2.7-3.7,4.7-2,5.7-4.1,12.3-7.5,17.6-8.1,13.1-14.1,1.7-6.7-16.6,3.2-7.2,6.7-16,15-18,8.5-1.9,15.3-.1,21.1-8.2,3.6-5.1,7.1-11.5,11.9-15.9,14.4-13.7,21.1,10,24.7,34.1,1.3,8.8,2.2,17.6,2.9,24.7.3,2.5.4,5-.2,7.4-.8,3.9-5.2,8.5-8.5,5.9-7.4-5.5-6.1-41-9.2-56.2-.3-1.6-.9-4.1-2.6-3.7h0Z"/>
    <path class="cls-1" d="M730.8,1228.4c-2-1.7-5.4-1.2-7.9-.7-10.4,1.8-28.3,9.1-34.6,1.2-2.1-11.4,54.9-14.2,68-20,4.6-1.5,9.6-3.8,14.4-3,4,.6,6,4.6,3.4,7.8-2.8,4-11,5.8-18,7.2-6.2,1.2-11,2.6-10.3,10,1,11,1.7,22.1,1.7,33.5.1,46-10.7,42.7-13.4,4.8-.5-5.9-.8-11.3-1-17-.2-5-.3-10.5-.3-16.3,0-2.6-.3-6-1.9-7.4h0Z"/>
    <path class="cls-1" d="M1288.8,1067.9c2.7,1.6,6.1-1.7,9.3-2.9,2.9-1.3,6.1-2.4,9.2-3,6.3-1.1,9.6,1.2,9.7,4.6.3,4.6-4.9,11.3-15,14.1-3.1,1-6.6,1.3-9.6,2-2.7.5-4.9,1.8-5.1,4.7-.3,8,2.9,20.6-.7,25.9-1.8,3.2-6.1,2.8-8.2,0-6-6.8-3-25.3-1.8-37.9.9-10.5.3-20.9,6.2-30.4,13.7-25.1,67.2-27.3,49.9-13.2-6,4.2-14.7,3.7-21.5,5-6.6,1.4-12.1,4.3-16.2,8.7-3.5,3.8-6,8.7-7.1,14.6-.4,2.3-1,5.7.7,7.5h0Z"/>
    <path class="cls-1" d="M426,1267.1c0-13.3,4.7-36,19.8-38.4,4.2-.6,8.5.6,12.5,2.1,18.5,7,36.9,20.3,30,40.1-12,37.1-59.3,36.4-62.3-3.5v-.2ZM435.4,1266.4c0,7,2.9,14,7.9,18.5,11.9,10.8,26.7.8,33.8-10.9,16.2-31-41.7-48.4-41.6-7.8v.2Z"/>
    <path class="cls-1" d="M634.4,1100.8c-.3,33.2-44.9,33.4-46.8.4-.3-7.8,1.6-15.5,4.1-23,9.3-27.5,27.8-23.9,36.4-4.8,3.8,8.3,6.2,17.9,6.4,27.2v.2ZM610.2,1071.5c-2.6.4-3.8,3.8-5.6,7.4-5.5,12.3-8,28.6,1.1,35.3,2.6,2,6.3,2.5,9.4,1.3,12.1-6.1,7.7-23.9,1.6-36.3-2.1-3.8-3.7-7.5-6.4-7.7h-.1Z"/>
    <path class="cls-1" d="M1064.4,1101.4c-1.9,28.4-37,29.3-37.3-8.7-.9-21.5,7.1-54.3,24.4-26,6.4,10.5,12.9,21.8,12.9,34.5v.2ZM1042.1,1077.4c-1.8,1.2-2.1,4.7-2.4,7-1,10.2.4,18.5,4,23.7.9,1.3,2.4,2.8,4,2.2,1.8-.7,2.7-3.1,3.2-4.9,2.2-7.8.6-17-4.2-24.8-1-1.5-2.6-4.1-4.5-3.3h-.1Z"/>
    <path class="cls-1" d="M513.4,1088.1c2.1.9,4.3,0,6.8-.4,2.5-.5,5.1-.8,7.7-.6,11.2.8,9.1,9.5,0,13.5-3.9,2.2-10,2.1-13,5.4-1.2,1.5-1.4,3.9-1.6,6.9-.3,7.7-2.3,16.9-6.1,18.7-2.3,1.3-5.7-.9-7.4-4.1-1.9-3.4-2.2-7.4-2.2-11.3,0-19.7-.3-39.8.8-59.4,0-4.6,2-12.2,7.4-11.8,10.3,1.7,1.9,40.1,7.4,42.9h0Z"/>
    <path class="cls-1" d="M988.1,1096.6c1.2-7.4,3.3-15.5,4.9-23.1,2.1-6.9,3.2-24.9,11.6-25.5,15.6,0-7.7,69.9-10.2,91.2-.3,2.5-.8,5.4-2.2,7.7-2.1,4.3-8.2,7.2-11.8,3.6-3.1-3.2-2.7-8.2-1.9-12.3,1.3-6.1,3.4-12.1,5.1-18.2,2.4-8,3.6-15.3,4.6-23.2v-.2Z"/>
    <path class="cls-1" d="M744.3,1422.5c0,6.3,0,14.2,0,21.1,0,5.9.3,13.2-3,18-4.1,6-11.6,3.1-11.7-4.3-.2-3.8.8-8.1,1.5-11.8,5.3-28.5-.6-57.5-3.4-85.8-.4-3.5.1-8.1,2.4-10.5,17.5-13.4,13.5,57.7,14.2,73.1h0Z"/>
    <path class="cls-1" d="M1115.8,1092.3c4.7-2.9,5.9-13.9,6.9-19.5.8-6.1,1.1-12.4,1.4-18.6.1-3.1.5-6.3,1.7-9,1.2-2.8,3.2-5.3,6.1-6.2,9.1-2.7,7.2,21.8,2.9,40.1-2.8,11.2-7.4,27.4-21.3,27.4-8.2-.9-13.9-6.1-18.6-13.1-3.5-4.8-14.7-26.9-7.2-29.1,5.1-.5,9.6,5.2,11.8,9.5,2.9,5.9,5.8,13.1,10.2,16.9,1.6,1.5,4,2.7,6,1.6h.1Z"/>
    <path class="cls-1" d="M545.3,1090.9c1.8-11-1.2-24.6-.5-36,.5-5.3,1.1-10.1,5-13,15-3.5,3.8,72.1,6,85.6,0,2.3-.2,4.6-1.1,6.6-1.5,3.9-6.5,6.8-9.7,3.4-2.2-2.2-2.5-7.1-2.5-10.9,0-11.7.4-24.5,2.6-35.6v-.2Z"/>
    <path class="cls-1" d="M1368.7,1072.3c-.6,6.1-.6,11.6-.4,18.4.1,6.8.3,13.1-1.8,18.4-2.6,7.3-10.8,7.9-13.1.2-.8-2.7-.8-5.7-.7-8.5,1.4-19.6,2.4-39.2,3.9-58.7,0-5,3.6-13.8,9.1-12.9,7.1,2.7,3.3,32.8,3,43.1v.2Z"/>
    <path class="cls-1" d="M893.7,1268.3c.8-10.3-2.5-23.1-3.3-34.4-1.1-11.3-1.1-21.3,3.4-22.5,1.7-.5,3.9.6,5.3,2.8,1.3,2,2,5,2.4,7.6,2.5,20.9,4.2,42.4,5.3,63.5.2,4,.2,8.2-1.9,11.6-8.4,11-11.8-5.2-11.9-15.4-.2-4.3.4-9.9.8-13.2h0Z"/>
    <path class="cls-1" d="M948.2,1433.7c.5,4.4.8,10.3-1.6,14-1.7,3-5.9,3.3-8.2.8-1.8-1.8-2.6-4.6-2.8-7.6-.4-6.2,1.4-13.5,1.9-19.7.5-5,.5-9.5.4-14.5.2-18-9-35.7-9.9-52.6,0-3.7.5-7.8,4.3-7.7,6.4.9,9.6,16.5,11.5,34.2,2,17.3,2.1,37.3,4.4,53v.2Z"/>
    <path class="cls-1" d="M1273.3,1414c-2.5-1.2-2.4-4.5,0-6.6,1.5-1.3,3.5-2,5.6-2.5,16.2-1.5,75.9-26.9,79.9-11-.2,1.9-2.5,3.9-5.3,5.5-2.7,1.5-6.1,2.8-9.9,3.9-13.6,3.9-31.1,5.9-45.4,7.8-7.3,1-13.9,2-19,3.1-1.9.4-4.1.6-5.9-.2h-.1Z"/>
    <path class="cls-1" d="M987.4,1096.5c-12,10.9-29.3-18-38.9-27.6-2.8-2.9-6.3-5.7-7.2-9.7-1.2-4.3,1.9-9.4,6.6-7.7,3.1,1,5.7,3.9,8.2,6.1,9.4,9.5,35.1,26,31.4,38.8h0Z"/>
  </g>
  <path class="cls-1" d="M1736,425.3c-9.3.1-23.1-5.3-26.1-13.1-1.7-5.2,3.1-6,7.1-3.9,10.7,5.6,17.4,11.9,29.5,4.5,44.8-29.7,20.5,10.9-10.3,12.6h-.2Z"/>
  <g>
    <path class="cls-1" d="M884.6,1630.1c-2.7,11.6-16.3,29.9,3.9,29.2,11.5,0,22.6-2.4,33.1-6.8,3.7-1.4,7.3-3.8,11.2-4.2,3.5-.4,6,2.7,4.1,5.6-6.3,8.7-28.5,8-39.3,8.4-2.3,0-4.5,0-6.8.1-4.8.1-9.7.7-13.9-1.9-10.5-7.2,1.9-29.2,5.2-38.8,7.9-22.7,35.6-28.4,57.8-26.2,3.1.7,5.3,3.6,2.3,5.6-16.9,8.2-37.1-4.5-51.2,15.9-2.8,4-5.1,8.4-6.4,12.9h0Z"/>
    <path class="cls-1" d="M969.1,1655.5c1.3.7,2.7-.5,3.7-1.5,6.7-6.7,12.7-20.3,14.5-32.9.2-1.9.3-4.1-1-5.4-1.8-1.7-4.8-1.3-7.8-1.3-2.9,0-5.9.1-8.6-.6-4.7-1.2-4-4.2.1-5.1,5.3-1.3,12.2.7,17.1-1.6,3.2-1.5,6.2-4.9,9.9-3,4.5,2.5,7.4,3.8,12.7,3.1,4.9-.2,14.6-2.5,15.6,3.7-.1,3.5-4.4,3.9-7.4,4-4.4,0-8.8,0-13.2,0-1.4,0-3,0-4.3.6-1.8.7-2.6,2.7-3.1,4.6-6.4,23.4-30.4,65.7-37.5,32.4-.5-2.3-1-4.6-.6-6.4.5-3.9,4.5-5.1,6.4-1.6,1.2,2,1.3,5,1.8,7.5.3,1.3.7,2.7,1.8,3.5h0Z"/>
    <path class="cls-1" d="M771.7,1644.1c-6.4.2-22.4,1.7-23.4-3.5-.1-4,5.3-5.4,8.7-5.3,25.1-.6,50-5,74.9-8.4,1.6-.1,3.2,0,4.5.4,2.3.7,3.9,2.3,4.5,3.7,2.2,6.3-11.8,8.1-25.9,9.7-13.8,1.4-31.1,1.7-43.3,3.4h0Z"/>
    <path class="cls-1" d="M885.1,1630.9c.7-1.9,2.8-1.7,5.5-2.5,3.2-.7,6.6-1.5,10.1-2,4.7-.8,18.2-2.5,12.5,4.7-1.8,2.3-4.7,3.1-7.5,3.4-7.5,1.2-19.2,5-20.6-3.6h0Z"/>
  </g>
  <g>
    <path class="cls-1" d="M297.3,565.7c-2.4.2-4,3.4-5.3,5.4-6.7,11.4-15.6,24.2-22.8,10.6-1.4-2.7-2.3-5.7-3.3-8.7-3.4-12.9-26.4-52.9-10.3-57.4,4,0,6.7,7.2,7.7,11.2,2.6,9.2,4.3,18.4,7.8,27.1,1.2,2.9,2.5,5.7,4.4,8,10.2,10.2,14.6-32.8,32.2-7.7,2,2.4,6.2,10.8,8.9,8.6,4.8-3.1-8.1-50.2,6.4-51.3,6.8.9,7.1,11,6.6,16.9-.6,7.2-1.3,14-1.1,21.3.6,27.6-2.7,60.4-22.8,27.7-1.8-2.9-3.3-5.7-4.7-8.2-1.2-2-2.4-3.4-3.7-3.5h0Z"/>
    <path class="cls-1" d="M1585,515.9c-3-2.4-7.2-1.1-11.4-1.5-3.1-.1-6.3-.4-9.3-1.1-9.7-2.5-4.4-7.2,2.9-9.4,7.8-2.2,23.5-5.3,30.4,0,14.4,11-7.1,56-30.5,53.5-4.7-.4-9.6-3.3-13.4-6.5-27.4-21.6-17.5-64.5,12.3-79.8,4.3-2.2,10.8-5.2,15.2-2.5,2.6,1.7,2.3,5.2,0,7.4-1.4,1.4-3.2,2.3-5,3-4.8,1.9-10,3.9-14.4,7.1-34.5,24.6,5.1,82,20.5,45.6,1.5-3.8,5.8-12.6,2.9-15.8h0Z"/>
    <path class="cls-1" d="M173.4,569.3c2.1,1.8,5.5,1.1,8.2.8,7.6-1,16.3-1.9,17.5,2.2,0,5.9-8.9,7.9-13.7,8.6-11.9,1.6-23.8,3.4-35.6,4.9-3.8.6-10.5-1.1-5.4-5.2,4.8-3.2,11-3.4,11.2-10.5,0-1.4,0-2.9-.1-4.4-.9-10.1.6-20.8-.4-31.3-1.4-8.6-10.3-4.2-16.9-4.2-4.6.5-11.7-1.8-9.2-7,2.8-4.8,10.7-5.3,15.9-6.3,12.8-1.6,52.5-18.6,55.8-2.3-.1,2.1-1.8,4-4.6,5.1-3.2,1.2-7.1,1.5-10.5,2.2-20.1,2.9-16.6,17.9-14.6,38.1.3,3,.3,7.3,2.4,9.4h0Z"/>
    <path class="cls-1" d="M1410.8,657.3c2.1-1.7,3.2-4.5,3.8-7.1,1.5-6.4,3-13.2,5.6-19.2,10.6-24.1,28.5,16.8,31.4,31.7.8,3.4-.7,8.3-4.8,7.4-5.9-1.4-6.2-9.5-10.3-13.1-2.9-2.8-8.2-2.3-11.3-.2-3.3,2.4-5.7,5.5-9,7.9-9.1,7.8-12.8,7.9-22.5,1.2-3.4-2-7.6-6-11.3-5.8-1.7.2-2.4,2.1-3.1,4.7-1,4.4-3.9,10.4-9,7.9-5-3.2-4-10.8-4-16.1.4-18.1-.5-43.2,19.4-40.4,4.1.8,7,4.2,7.2,8.4.7,14-16,29.3-1.2,33.6,5.6,1.5,14.1,2.8,19-.7h.1ZM1434.7,641.7c1-2.7-1.6-6-3-8.3-3.9-5.8-6.2,2-7.4,6.7-.3,1.6-1.4,4.5.3,5.4,1.7.4,3.2-.4,5-.9,2.3-.8,4.3-1.5,5-2.8h0ZM1378.9,642.3c.2.1.5-.3.9-1,1.2-2.4,2.7-5.8,3.2-8.5.2-1.1.3-2.2-.4-3.1-.7-.9-2.4-1.6-3.3-.8-1.5,1.8-.7,4.5-.9,6.7.1,1.7-.3,5.4.4,6.7h0Z"/>
    <path class="cls-1" d="M1342.4,540.2c-1.2,1.8-.8,5.2-1.2,7.5-1.4,11-9.3,15-13.9,5.6-3.2-7.3-2.1-15.6-2.9-23.4-.5-10.2-1.3-20.5-1.8-30.7-.4-10.6,3.1-12.5,13.2-11.7,5.4.2,11.1-.5,15.8,1.4,5.9,2.2,10.1,7.9,10.3,14.2.7,11.1-11.2,21-6.4,31.9,3.4,8,18.7,10.8,19.5,18.5.1,2.8-2.3,5-5,5.5-8.3,1.1-15.6-8.2-22.6-15.3-1.2-1-3.4-4.1-4.9-3.3h0ZM1337.8,500.6c-1.7,2.1-1.1,5.1-.7,8.6.4,3.8.8,7.6,1.2,11.5.4,3.1.5,6.7,2.4,5.9,1-.6,2.1-2.4,2.8-3.8,4.7-8.6,8.6-18.7,2.5-22.3-2.4-1.4-6.1-2.1-8.2,0h0Z"/>
    <path class="cls-1" d="M888.2,550c1.8-1.6,3.6-5.7,5.1-8.1,18.3-31.2,24.9,16.6,27.6,2.9,2.3-13.4.6-26.9,1.5-40.3.3-4.3,1.9-12.2,7.5-11,6.1,3.2,3.4,12.4,2.8,18.1-2.3,12.3-2.9,69.3-17.5,51.7-3.4-3.9-6.1-10.1-8.5-14.1-2.2-3.6-4.2-1.1-5.6,2-2.3,4.8-5.1,10.3-8.5,14.4-14.1,17.7-19.8-22.9-28.1-45.6-1.1-3.3-1.9-6.7-1.8-10.1.1-4.1,1.8-7.2,3.5-7.2,6.1,0,14.9,30.2,19.1,44.6.5,1.4,1.2,4,2.7,2.9h0Z"/>
    <path class="cls-1" d="M1136.4,501.6c-5.3,4.4,7.9,32.2.4,42.4-2.2,3.8-7.7,4.9-10.8,1.6-6.5-7.4-3.5-20.5-3.6-30.2.6-6.7-1.8-13.3.1-19.4,1.8-4.7,6.3-8.6,11-10.2,4.1-1.4,8.3.1,12.7,2.7,20.9,12.7,7.7,23.9,13.7,36.8,3.6,6.2,13.1,8.3,19,11.9,6.8,3.7,7,11.8-1.4,12.4-7.1,0-15.3-7.4-22.4-12.7-4.3-3.2-9.3-6.5-10.3-12-1.4-6.5,2.5-14.2-.3-19.3-1.4-2.6-5-5.5-8-4.1h0Z"/>
    <path class="cls-1" d="M167.8,680.2c1.7,17.2-28.3,50.8-37.8,29.3-1.6-4-1.5-7.8-2.3-12.1-2.7-18.3-17.3-61.5.3-59.6,6.6.9,13.4,4.1,19.1,7.4,11.7,7.3,20.3,21,20.7,34.8v.2ZM143.9,701.5c2.1.6,4.8-.9,6.6-2.4,15.8-12.8,7.7-36.5-9.4-44.1-6.1-2.8-8.8-.4-7.9,6.1.8,6.4,4.6,39.4,10.6,40.3h.1Z"/>
    <path class="cls-1" d="M1512.3,526.5c.8-1.8,0-4.9-.3-7.1-1.8-9.4-4-18.9-5.4-28.4-.4-3.1-.7-6.3.4-9.2,1.2-3.7,4.9-4.3,7.3-.8,2.4,3.3,3.1,8.2,3.7,12.3,2.2,14.8,5.8,29.6,6.9,44.5.5,5.4,0,14.2-6.3,15.6-7.2,1-15.5-14-20.8-23.2-1.6-2.8-3.2-5.7-5.2-8.3-1-1.2-1.9-2.4-3.4-2.8-3.9-.5-2.6,14.3-2.8,18.5,0,3.7-.3,7.2-1.3,9.7-1.3,3.5-3.8,4.9-5.5,3.8-4.8-3.2-2.7-26.1-1.7-38.7.4-5.4,1.3-12.5,6.9-14.9,8-2.8,17.4,19.8,22.1,25.3,1.1,1.6,4.6,5.8,5.5,4h0Z"/>
    <path class="cls-1" d="M1287.4,486.5c-2.9-1.1-5.5,1-8.8,2.2-3.1,1.3-6.6,2.6-9.9,3.5-10.7,3-18,1.6-12.9-4,2.6-2.8,9.8-6.6,14.7-8.7,3.6-1.6,7-2.5,10.3-4.3,4.1-2,6.6-6,10.4-8.4,4.3-2.6,9.9-1,15.1-2.6,6.3-1.8,12.2-7,18.9-6.6,5.3.6,6.6,6.3,2.4,9.6-3.1,2.6-7.1,3.8-10.9,5.4-7.2,2.8-14,4.6-13.9,12.9-1.4,14.1,8.6,84.2-6.2,78.4-13-12.5.8-67.2-9.1-77.5h0Z"/>
    <path class="cls-1" d="M694.3,562.7c-3.7-2.5-8.9,0-12.9,1.7-4.8,2.3-7.3,7.9-11,11.6-22.2,17,.2-37.5,5.3-53.1,1.6-6.7,6.8-16.6,14.9-11.4,4.8,3.8,6.1,10.7,8.1,16.2,3.9,11.2,8.3,22,12,33.4.8,2.4,1.4,4.9,1.7,7.5,1.1,11.7-7.4,14.2-13.4,1.9-1.3-2.6-2.2-5.9-4.5-7.8h-.1ZM688.4,531.5c-4.7-1.9-5.6,11.7-6.6,15.9-1.5,6.7,1.7,6.1,6.1,2.8,4.7-3.6,5-7.9,3.4-13.6-.5-1.7-1.3-4-2.7-5h-.1Z"/>
    <path class="cls-1" d="M435.8,671.3c2.4.8,5.1-.8,7.3-2,6.4-3.3,12.3-8.4,19.7-8.8,7-.3,9.6,7.4,4.2,11.8-5.9,4.8-18,5.8-25.3,10-6.3,3.1-4.1,8.2,2.5,7.7,5.4-.3,12.1-4.1,17.4-3.4,3.2.2,6.1,2.4,6.5,5.3.9,8.1-9.5,9.5-15.9,10-4,.3-8,.8-11.8.6-17.5-.9-16.8-21.8-16.4-37.1.6-6.9-.7-14.1,3.2-20,5.5-8,22.9-12.9,34.2-11.7,3.6.4,6.8,1.5,7.7,3.2,1.5,3.1-3.3,5.3-5.9,6.2-13.9,4.2-28.7-2.1-30.3,13-.4,4-1.3,13.2,2.7,15.1h.1Z"/>
    <path class="cls-1" d="M322.7,660.8c3.1,1.6,9.3-1.8,13.1-1.4,11.9,0,8.4,8.4,1.2,11.9-2.4,1.3-5,2.2-7.5,3.3-6.2,2.2-10.9,7.2-9.2,13.6,1.6,3.4,4.9,2.2,8.8,1.1,2.8-.9,5.8-1.7,8.7-2.3,6.1-1.2,15.8-1.3,12.2,7.1-2.4,5-7.2,6.4-12.7,7.9-12.1,3.2-27.6,9-30.2-4.3-.6-3-.4-6.4-.3-9.5.8-18.1-1.3-40.4,13.6-50.9,3.2-2.3,7.2-4.1,11.1-4.4,4.8-.5,8.3,2.8,4.5,6.7-5.3,5-12.6,6.4-14.4,14.6-.5,2.1-.9,5.2,1.1,6.5h0Z"/>
    <path class="cls-1" d="M398.4,527.2c-5.3,3.2.9,34.4,1.6,41,.6,3.8.4,7.9-1.2,11.5-14.1,26.5-15.5-38.1-15.7-50.8,0-3.9-.5-8.2,2.1-11.4,3-3.6,8.9-5.1,13.8-5.2,12.2-.6,20.7,15.2,17.1,26.6-1.8,6.9-5.6,16.8.8,22.2,2.9,2.4,6.8,3.6,9.2,6.7,3.5,4.2.7,10-4.9,8.9-8.3-1.5-15.6-14.3-16.5-24-.7-6.6,1.9-13.3-.1-19.7-1.2-3.2-3.4-6.5-6.2-5.6h0Z"/>
    <path class="cls-1" d="M1404.2,515.6c1.9-.9,2-3.7,2.7-7.6,1.7-10.5,3.8-25.1,9-25.2,4.7.2,5.3,8,4.8,12-1.8,17.8-4.6,35.8-6.8,53.6-.8,5.8-1.9,15.5-7.8,17.8-2.7.8-5.3-2-6.6-6.1-2.3-6.9,1.3-15.1-.6-22.1-3.2-10.4-13.7-18.1-20.2-27.3-2.5-3.9-5.2-9.6-2.4-13.8,3.3-3.8,13.8,6.2,21.2,13.9,2.8,2.8,4.5,5,6.5,4.9h0Z"/>
    <path class="cls-1" d="M1009.1,539.9c1.2-1.6.6-4.9.4-7-1.7-11.6-6.8-25.9-2.6-34.4,4-7,10.2-3,10.7,4,.8,15.5-.3,31.2,0,46.7,0,2,0,4.2-.4,6.1-.4,3.3-2.1,7.6-5.6,7.2-7.2-1.1-14.6-21.1-20.1-30.6-13.6-24.5-9.7,6.8-9.4,16.9.3,5.2.5,9.2-1,13.5-1.3,3.8-3.8,6.2-5.2,5.2-4.6-3.5-2.9-33.5-1.5-46.5.8-4.3,2.2-9.3,6.3-11.5,3.2-1.5,6.6,1.8,10.1,6.8,3.1,3.5,14.1,26.6,18.2,23.7h0Z"/>
    <path class="cls-1" d="M1083.4,515.4c1.4,1.5,4.4,1.5,6.4,2.1,3.7.9,5.9,3.4,4.9,5.9-2.2,5.1-9.8,5.1-12.8,9.5-1.9,3.1-2.1,9.2,1.9,10.7,3.1.8,6.6-1.3,10.4-2.6,3.6-1.4,8.2-2.4,11.5-.8,5.4,2.6,4.5,9.4-.3,12.2-4.7,2.8-11.5,4.1-17.1,5.2-20.3,4-22.3-9.5-21.6-25.1,1-15.8-.8-24.9,15.4-33,4.2-2.1,9.3-3.9,13.6-4.3,7.6-1,9.8,4.2,4.6,8.7-4.3,3.7-10.5,3.7-14.8,7.3-1.1.9-3,2.5-2.2,4h0Z"/>
    <path class="cls-1" d="M449.1,544.9c2.2.1,3.9-3.4,6.2-6.7,6.5-9.8,14.9-22.6,19.7-20.5,4.6,3.1.9,9.4-2.3,13.3-2.3,3-4.8,6.2-7,9.3-13.2,17-.1,19.3,14.4,24.9,3.9,1.3,7,2.3,9.1,5,1.4,1.8,1.7,3.9.7,5.3-3.6,5.5-22.6-6.2-33.4-12.1-1.4-.7-3.3-1.7-4.6-1.5-1.4.2-1.9,1.9-2.1,4.6-.2,3-.4,7.3-2.1,9.7-2,3.3-5.7,3-8,.5-8.8-10.9-2.3-32.3-3.8-48-.1-2.9-.5-6.2.2-8.9,1.4-5.6,6.8-4.9,8.9-.4,2.6,5,1.9,12.8,2.2,19.6.2,1.8.1,4.8,1.6,5.8h0Z"/>
    <path class="cls-1" d="M389.8,670.4c1.8,3,6.5,3.5,9.9,5.4,2.4,1.2,4.9,2.5,7,4.1,9.2,6.1,3.6,11.8-10.3,5.8-2.8-1.2-5.7-2.8-8.2-4.4-1.8-1-3.3-2.4-4.9-2.6-2,0-1.3,6.3-1.8,8.1-1.2,8.7-8.1,13.1-11.9,6.2-2.6-4.5-2.7-10-2.8-15.1,0-7.7-.1-15.4-.2-23.1-.2-37,44-22.3,24.8,10.1-.9,1.6-2.2,3.8-1.6,5.4h0ZM380.6,645.4c-.9.7-1,2.3-1,3.4,0,3,0,6.1,0,9.3,0,1.3,0,2.9.5,3.9,0,0,0,0,.2.2.5,0,.6-.3,1.1-.8,1.4-2,2.9-4.9,3.8-7.4,1.4-3.7.9-6-1.4-7.9-.8-.7-2.1-1.4-3.1-.8h0Z"/>
    <path class="cls-1" d="M554.8,545.1c-8.9-55.7,46.1-20.9,39.6,9.2-1.1,4.6-3.5,8.3-6.3,12.2-3,4-5.9,8.3-10.1,10.6-3.5,1.8-7.6.4-11.7-.5-3.6-1-7.3-1.7-9.3-4.3-5-7.2-1.5-18.3-2.2-26.9v-.2ZM570.7,529.5c-1.7,1.2-1.6,4.3-1.7,6.4,0,9.3,0,18.2,0,27,0,1.3.1,2.9.6,4,1.5,3.6,5.6,1.1,7.8-.6,13.1-10.2,10.1-25.9-1.6-35.1-1.4-1.1-3.7-2.5-5.1-1.7h0Z"/>
    <path class="cls-1" d="M511.3,566.2c2.3,1.2,5.3.6,7.8,0,4.7-1.1,9-2.3,13.6-3.3,4.7-1.1,11.9-.6,12.8,5.3,0,9.2-11.8,8.2-18.7,8.6-7.9,0-17.8,1.5-23.4-5.1-3.8-4.9-3.9-13.3-5.3-19.9-2.6-14.4-3.5-30.1,10.8-34.8,5.7-1.8,14-3.9,19.4-1.5,4.3,2.5,0,6.3-3.2,7.1-7,2.3-15.5,1.1-18.6,6.6-1.9,3.5-2.1,8.6-.4,12.1,1.6,2.6,4.1,2.7,7.3,2.4,4.5-.5,10.2-2.2,14.2.3,3.9,2.5,2.4,8.2-1.5,9.8-5,2.6-12.7.5-15.7,3.8-2.3,2.3-2.2,6.9.8,8.5h.1Z"/>
    <path class="cls-1" d="M344.5,553.8c.1-8.3,1.2-17,4.3-24.9,13.2-31.1,42.3,22.7,25.1,48-2.9,4.7-8.6,9.9-14.1,8.6-10.7-3-15.4-20.9-15.2-31.4v-.2ZM360.6,536c-2,1.2-2.6,4.8-3.1,7.2-2.2,11.9-1.7,22.2,1.3,28.9.7,1.5,1.8,3.5,3.7,3,1.9-.5,3.3-3.1,4.3-4.9,4.4-9.4,4-21-1.4-30.5-1-1.6-2.6-4.5-4.7-3.8h-.1Z"/>
    <path class="cls-1" d="M1189.8,646.4c-.9-8.2-2.5-16.4-1.2-24.8,5.9-31.5,46.1,14.4,30.1,42.3-4,7.5-9.9,14.3-17.4,18.3-13.3,6.8-10.4-23.2-11.6-35.6v-.2ZM1201.8,623.9c-1.9,1-1.9,4.5-2,6.6-.4,12,1.1,25.3,3.8,33.5,1.9,6.5,5.6,2.9,8-1.1,6.6-11.1,4.6-25.6-4.9-36.3-1.2-1.3-3.2-3.2-4.7-2.8h0Z"/>
    <path class="cls-1" d="M1636,609.6c-.6,0-1.2.6-1.6,1.7-4.6,13,10.9,21.9,16.6,33.9,2.1,4.3,3.5,9.3,2.9,14-1.5,11.6-15.9,18.4-26.5,16.9-3.2-.5-6-1.9-7.7-4.4-2-2.7-1.3-6.9,2.6-7.2,2.6-.3,6.2.9,9,1.4,10.7,2.3,12.5-5.8,9.7-14.1-3-10.6-13-16.9-16.4-26.7-3.5-9.8-1.6-21.5,5-29.6,5.7-6.6,12.8-3.4,16.9,3.8,2.6,4.5,3.9,10.2,2.2,13.7-1.1,2.5-4.1,3.7-6.4,2.3-2.8-1.3-3.8-5.1-6.2-5.7h0Z"/>
    <path class="cls-1" d="M519.5,679.8c1.1-1.6.3-4.6,0-6.6-2-9.3-6.5-21.2-4.1-28.3,1.5-4.9,5.9-4.7,8.3-.5,4.7,7.9,3.9,22,4.9,33.3.3,7,3,14.2,0,20.7-4.4,6.7-18.3-10.6-23.2-16-2.7-2.8-5.7-7.4-7.6-6.6-.5.4-.7,1.3-.8,2.7,0,2,0,4.9,0,7.5-.1,3.6-.4,7.2-1.4,10.5-2.7,8.5-8.7-.9-8.2-16.7.3-5.6,1-18.1,7.8-18.7,6.6-1.1,19.7,21.6,24.3,18.7h0Z"/>
    <path class="cls-1" d="M1009.8,672.2c-6.1-4-14.8.9-18.3,6.3-1.9,2.6-4.1,5.4-7.2,6.4-2.1.8-4.7.4-5.7-1.8-4-8.1,7.7-44.3,21.6-45.2,5.1.5,10.1,9.3,14,14.3,2.6,3.6,5.1,7.2,7.5,10.9,2.2,3.3,4.6,6.9,5.2,10.9,1.2,7.4-5.8,9-11.2,3.9-2-1.8-3.7-4.1-5.9-5.6h-.1ZM1005.1,658c.4-1.9-1.7-3.6-2.8-4.9-3.2-3.4-4.9.6-6.3,4.6-1.8,5,.8,3.9,5,2.5,1.3-.5,3.6-1,4.1-2.1h0Z"/>
    <path class="cls-1" d="M1246.5,636.9c2,1.5,5.7,1.2,8.1,2.1,3.7,1.1,5.5,5.2,2.8,8.2-2.5,3.3-7.7,4.7-10.6,7.7-2,2.2-3.2,6.4-1.2,8.9.7.7,1.7,1,3,.7,6.9-2,15.8-9.4,23.3-8.8,6.5.6,6.8,8.5,1.7,11.6-2.9,1.9-6.3,2.5-9.9,3-5.3.6-10.9,1.1-16.1,2.3-20.2,4.7-15.6-23.8-13.1-38.6.7-4,1.8-7.9,4.3-11.2,3.2-4.2,9-7.7,14-7.7,2.1,0,4.7.6,5.5,2.7.6,2.1-1.2,3.9-2.8,5.1-3.1,2.3-7.1,3.9-9.1,7.4-1.1,1.9-2.2,4.7-.2,6.3h0Z"/>
    <path class="cls-1" d="M707.3,675.2c-.5-4.7,1.1-10.2,2.3-15.3,2.9-9.8,7-23.3,17.6-18.5,39.5,21.3-9,80.3-19.9,34v-.2ZM721,681.5c1.7,1.1,4.3-.3,5.8-1.7,4.5-3.9,6.6-10.1,5.2-15.7-.9-3.5-3.7-8.6-7.3-6.9-4.1,2.7-8.6,21.3-3.8,24.2h.1Z"/>
    <path class="cls-1" d="M823.9,648.7c2.1-.8,4.1-3.7,5.5-6.2,3.3-5.3,7.2-10.4,11.7-7.1,3.2,2.8,3.7,7.8,4.6,11.9,1.9,11.8,8,27.8,4.6,37.1-2.1,5.8-7.2,4.9-9.2-.8-3.7-7.4,1.5-30.6-2.9-33.8-.7-.2-1.2.2-2,1-2.4,2.5-4.8,5.9-7.8,7.8-5.1,3.6-8.3,1.1-10.8,6.1-3.1,6-2.5,13.9-5.7,19.7-1.4,2.3-2.9,3.6-4.9,3-6.9-2.8-2.2-33.6,9.2-37.1,2.5-.8,5.3-.5,7.6-1.5h.1Z"/>
    <path class="cls-1" d="M1039.6,506.7c-2.6-2.4-11.4-.1-12.6-2.8,2-7.5,35.7-19.8,44.2-17,3.6,1,4.1,4.9,1.8,7.4-1.1,1.3-2.9,2.4-4.9,3.1-5.3,1.8-11.9,2.9-13.1,9.3-3.4,14,3.2,48.4-9.4,53.5-3.9-.6-4.1-7.4-4.3-11-.8-9.9,6.1-36.1-1.6-42.5h-.1Z"/>
    <path class="cls-1" d="M1065,659.1c.7-1,.4-3.7-.3-7-1.1-5.1-2.9-11.3-2.1-16.3.7-5.2,4.8-6.8,7.6-2.1,7,9.7,11.3,61.2-11.2,40.1-1.9-1.3-6.2-8.4-7.7-6.3-1.6,4,.3,10.3-3,13.7-1.9,2-4.8,1.1-6.2-1-3.6-5.6-2.1-14.1-1.8-21.7.4-4.8.3-13.7,6.4-14.3,5.1-.9,14.6,17.7,18.3,14.9h0Z"/>
    <path class="cls-1" d="M1582.4,652.7c-.7.4-1,2.1-1.2,4.3-.4,3-.7,6.7-3.5,8.2-1.9,1-4-.3-4.9-2-2.6-5-1-12-.5-18.4.7-5.5.8-16,7.7-16.6,3.5-.4,9.1,6.8,10.9,1.9,1.6-6.1-.5-14.2,1.9-20.7,7.9-19.7,13.5,39,5,48.6-2.9,4-6.9,1.9-10.6-1.8-1-1.1-2.5-2.7-3.4-3.3-.6-.4-1-.5-1.4-.3h0Z"/>
    <path class="cls-1" d="M1120.1,650.8c-.3,10-19.2,28.8-28.6,23.4-5.4-3.8-4.9-11.2-6.5-17.1-1.8-8-4.2-17.1-1-21.9,4.4-5.7,15.5-8.8,22.2-6.2,8.5,2.8,14.4,12.9,14,21.7v.2ZM1101.8,661.9c1.9.5,4.6-1.2,6.2-2.8,7.7-7.5,4.5-17.3-5.5-21.2-8.9-3.3-9.2,1.5-6.8,9.3.7,2.7,1.4,5.5,2.1,8.2.6,2.7,1.8,6.1,3.9,6.5h.1Z"/>
    <path class="cls-1" d="M667.7,650.5c-1.9,3.5.3,12,3.8,14,2,1.1,4.6-.8,8-.6,3.8,0,8.1,4,5.4,7.7-1.9,2.7-6,3.7-8.5,5.6-5.5,3.9-.2,12.1-1.4,17.5-.5,3.1-2.5,5.1-4.9,4.5-2.6-.7-3.8-4.2-4.2-6.8-1.4-14.8-10.5-33.4-5.2-45.9,2.7-5.8,7.7-8.8,13.4-11.9,3.2-1.7,6.8-3.2,10.3-4.3,15.8-4.9,19.3,5,4.1,12.1-2.7,1.3-5.9,2.4-8.7,3.2-4.2,1.6-9.3.9-11.8,4.8h0Z"/>
    <path class="cls-1" d="M268.6,666.6c1.2,1.1,2.9.9,4.6.6,2.4-.5,4.8-1.1,7.3-1,8.4.7,6.8,8.8-.2,11.9-4.1,2.4-11.5,1.3-12.7,6.8-.9,3.5-.4,8.9-2.2,12.5-3.1,5-6.1-4.6-6.5-7.1-2-12.1-2.1-22.3,2.2-33.3,9.2-27.6,47.5-24.9,33.2-12-6.4,4.5-17.5.9-22.9,6.9-3.2,3.2-5.4,11-2.7,14.6h0Z"/>
    <path class="cls-1" d="M1462.6,621.5c-.8-3.4,4.6-5.3,8.4-7.4,14.6-7,38-12.7,37.1-4.4-.4,3.2-3.1,5.7-5.9,7.3-5.6,3.2-13.6,3.4-16.5,9.6-4.7,7.7,2.7,29.2-3.7,34.4-1.7.9-3.8-.9-4.8-2.3-4.8-7.4-2.9-17.5-6-25.4-.5-1.4-1.2-2.8-2-4-2.1-3.2-5.8-5.6-6.6-7.8h0Z"/>
    <path class="cls-1" d="M215.3,668.2c2.8,2,7.1,0,10.3.4,6.5.5,7,6.4,1.9,9.3-7.2,3.9-11.2,1.7-11.4,11.9-.1,5.3-2.9,13.4-6.7,7-1.3-2.6-1.7-5.8-1.9-8.8-1.8-19.6-7.1-39.3,14.6-46.8,5.7-2.1,13.6-6.2,19.2-3.6,2.5,1.2,3.8,4.1,2.7,6.6-2.3,4.7-9,4.7-13.6,5.3-8.6.7-15,3.5-16.5,11.1-.5,2.4-.6,5.9,1.3,7.5h.1Z"/>
    <path class="cls-1" d="M947.3,534.6c.2-4.2-.9-10.2-1.1-15-.9-13.2-.5-29.9,4.3-27.8,2.6,1.1,5.4,6.4,6.3,9.7.7,2.4,1.1,4.8,1.4,7.2,1.4,13,3,26,4.2,39,.4,4.6,0,9.7-3.2,13.3-2.1,2.4-4.5,3.4-6.5,2-3.4-2.1-5.6-10.8-5.8-17.2-.2-4,.4-8.2.5-11.3v-.2Z"/>
    <path class="cls-1" d="M882.3,636.7c-4.3-.3-8.5,7.6-9.9,11.3-7.3,18.8,35.3,15.3,23.5,35-1.6,2.8-4.2,5.2-6.8,7.1-6.1,4.4-15.6,9.1-18.3,7.3-1.6-1.2-.6-3.4.4-4.8,3.3-4.7,9.8-5.7,14.1-9.3,2.4-1.9,3.7-4.2,3.2-5.9-.5-2.2-4-3.4-6.3-4.4-3.1-1.3-6.4-3.2-9-5.4-22.7-19.9,12.6-58.3,21.3-30,.6,2.4.6,6.6-2.7,6.5-4.1-.6-5.5-6.4-9.4-7.4h-.1Z"/>
    <path class="cls-1" d="M739.2,560.9c1.6,1.3,4,1.6,6,1.9,17.4,3.2-12.3,32.6-22.5-8.7-1.9-8.3-3.5-21.5-3-31.3.1-5.1,4.1-10.9,9.2-7,2.3,1.9,3.3,5.3,3.8,8.2,1.7,9.8,1.9,20,3.4,30,.3,2.5,1.1,5.3,3,6.8h.1Z"/>
    <path class="cls-1" d="M1441.1,511.2c-.4-7.8-2.6-23.4,1.8-29.2,3.3-3.7,8.3.7,9.4,4.5,3.4,14.1,2,29.1,2.9,43.7,0,5.8,1.3,14.1-3.4,18.3-4.1,3.1-9.2-1.3-10.2-5.7-2.4-9.2.4-21.8-.6-31.3v-.2Z"/>
    <path class="cls-1" d="M546.8,652.6c-2.2-1.4-6.8-1.5-7.9-3.7-1.3-4.1,4.9-8.5,8.2-10.1,6.4-2.9,13.9-1.3,20.9-3.3,3.8-.8,14.9-4,13.9,2.8-.9,3-3.5,5-6.1,6.6-10.2,6-15.4.6-16.1,7.8-.4,6.5,1.2,15.5,2.2,22.6.6,4.6,1.6,10.1,2.2,14.9.4,4.1.7,9.2-3.3,9.7-12.1-1.9-4-41.4-13.9-47.3h-.1Z"/>
    <path class="cls-1" d="M775.2,559.5c5.8,3.6,19.1-8.2,26.4-8.2,3.2-.3,8.1.7,7.9,4.6-3.5,9.6-37.7,16.8-43.2,7.7-2.1-3.6-1.6-8.6-2.1-12.7-.6-6.6-.9-13.6-.8-20.5.5-29.4,9.5-22.7,10.2,4.2.3,6.4.2,13.1,0,19.1-.1,2,.1,4.8,1.5,5.8h0Z"/>
    <path class="cls-1" d="M1562.8,642.2c.9,6.9-3.3,15.6-9.5,18.7-7.8,4.1-13-3.3-14-10.6-3.2-17.7,7.9-39.2,17.5-24.6,3.1,4.8,5.4,10.9,5.9,16.3v.2ZM1548.4,651.8c.8-.2,1.5-1.3,2-2,2.5-3,1.8-6.3.1-9.8-.2-.5-.8-1.6-1.2-.9-1,3.4-.9,7.9-1.4,10.9,0,.6-.2,1.7.4,1.8h0Z"/>
    <path class="cls-1" d="M1299.8,655.1c3.5,1.3,7.7-2.4,11.6-1.3,5.6,1.5,4.6,9.1-.2,11.3-6,3.1-15.1,1.4-19.9-3.5-2.8-2.8-3.7-6.8-3.6-10.6-.5-9.9,13.1-39.1,19.3-35.4,5.8,7.9-6,20.3-8,28.3-1.1,3.7-2.4,9.1.7,11.1h.1Z"/>
    <path class="cls-1" d="M175.8,643c.9-2.7,4.2-4.6,6.4-3.2,1.2.8,2.1,2.5,2.8,4.7,2.7,10.1,1.9,21.1,4.4,31.1,1.4,7.7,8,21.2,1.2,27.3-2.5,1.7-5.2-.5-6.5-2.7-7.5-11.3-6-34.9-8.6-50.3-.3-2.2-.5-4.8.3-6.8h0Z"/>
    <path class="cls-1" d="M779.8,663.8c2,3.1,7,3,10.4,4.9,4,1.6,6.7,6.1,2.2,9.1-9.7,5.1-24.8-6.5-23.8-16.3,0-1.9.5-3.7.7-5.6.5-2.9.5-5.7-.9-8.4-1.1-2.2-2.9-4.3-3-6.9-.1-4.9,6.4-7.1,10.6-5.4,6.7,2.9,7.4,11.5,6,18.2-.7,4.1-3.3,7-2.4,10.2h0Z"/>
    <path class="cls-1" d="M1525.6,643.1c.5,4.6.2,10-.7,14.8-4,20.3-14.4,6.9-14.3-10.1-.3-6.2.2-12.4,1.2-18.2.6-4.3,2-11.3,7.4-11,6.2.9,6.2,8.2,6,13.6-.1,4.1,0,7.3.3,10.7v.2Z"/>
    <path class="cls-1" d="M751.7,641.3c.6-8.8,9.5-7.5,11,.2.6,2.2.8,4.6,1.2,6.9,1.7,11.1,7.6,25.8,3,33.9-2.7,5-9,4.1-11.6-.7-1.5-2.4-2.3-5.4-2.7-8.8-.6-4.6-.5-9.9-.4-15,.3-5.9-.5-10.9-.5-16.5v-.2Z"/>
    <path class="cls-1" d="M1354.8,641c.3,4.6-.7,9.7-2.4,14.3-2.3,6-6,11.3-12.3,12.6-4.2.8-8.3-1.7-10-5.6-7.3-15.6,8.2-45.9,19-34.5,3.2,3.5,5.3,8.4,5.7,13.1v.2ZM1342,637.7c-2.2,1-3.9,3.5-5,5.8-3.2,6.6-3.9,12.3-2.3,17.1.7,2.2,2.5,4.5,5,3.9,8.2-3.1,12.2-18.3,7.8-24.7-1.2-1.8-3.3-3.1-5.4-2.1h-.2Z"/>
  </g>
  <g>
    <path class="cls-1" d="M1538.1,771.5c-1.6,1.5-1.4,4.1.4,5.3,4.8,3.8,17.5-4.3,25-1.6,4.1,1.4,6,6.5,4,10.2-3.8,6.5-13.4,6-20.6,6.4-5.2,0-10.4.6-15.3-.9-13.4-4.9-9.4-24.5-10.1-37.6-.2-5.4-.5-11.1,2.3-16,5.1-9.3,19-13.1,26.7-12.4,3.2.3,5.3,1.3,5.3,3.1-1.5,6.8-14.5,9.4-18.4,15.6-2,2.7-2.6,6-1.3,7.9,3.1,3.7,10.1,1.2,13.9,4.2,4.5,3.4,1.3,9.1-4.6,11.8-2.4,1.1-5.5,2.1-7.3,3.9h0Z"/>
    <path class="cls-1" d="M1069.5,792c-17.2-10.8,32-20.3,46.1-23.6,2.2-.5,4.5-.8,6.4.2,2.4,1.2,3.8,4.4,2.7,6.8-3.4,5.7-13.2,7.7-20.3,9.7-7.8,2-15.5,3.4-23,5-4.5.8-8.5,2.7-11.8,1.8h-.1Z"/>
    <g>
      <path class="cls-1" d="M126.8,806.9c-1.6-.4-1.7,2.4-2,3.8-2,17.3-7,61.6-15.6,61.9-.5,0-.9,0-1.4-.3-3.9-2-6.6-10.6-5.6-15.7,5.7-38.3,10.3-126.9,37.5-69.9,2.3,4.1,4.1,1.1,5.4-2.2,24-62.2,27.6,23.1,27,65.9,0,2.9-.3,5.9-1.7,8.5-1.4,2.8-4.3,5.6-6.6,6-10.3,1.8-6.5-36.4-7.9-51.9-.6-3.2-4,1.8-5.3,2.8-6.7,7.1-12.6,4.1-18.9-3.8-1.4-1.6-3.2-4.2-4.9-5h0Z"/>
      <path class="cls-1" d="M608,749.4c3.2,1.2,7.4,1.5,11.1,2.5,7.8,2.1,14,8.4,14.6,16.5,1.7,18.5-21.7,31.5-17.2,43.7,3.3,7.2,10.5,11.2,16.9,15.6,5.4,3.7,17.8,9.9,15,17.4-1.2,2.4-4.4,2.8-6.8,2.1-10.7-1-30.7-34.9-30.6-15.6-.2,6.4.6,13.3-3.5,17.9-5.5,5.2-12.2.5-12.5-6.4-.2-1.9,0-3.8.2-5.5,3.4-19.2-3.3-62.4-.2-83.3,1-6.7,3.1-10,7-7.8,2,1.1,3.8,2.2,6,2.9h.2ZM609.6,790.4c.8.6,2.2-.2,3.7-1.9,4.7-5.4,9-13.9,6.1-21.1-2.1-5.2-11.2-8.1-12.1-.5-.7,5.4.3,11.1.7,16.5.3,3.3.5,6.2,1.5,6.9h0Z"/>
      <path class="cls-1" d="M134.2,934.1c-3.7.5-6,7.1-7.3,10.4-3.8,11.7,5.3,16.3,17.9,20.8,4.1,1.4,8.2,3.1,11.7,5.6,7.3,5.1,10.7,14.4,3.3,20.9-10.6,9.2-29.4,11.4-42.5,7.6-5.3-1.7-9.5-4.5-11.5-8.8-1.6-3.2-.9-7.9,2.7-9.1,6.3-1.8,11.7,3.7,17.6,5,5.7,2.1,18.1.7,19-2.8.4-1.8-1.2-2.8-3.7-3.8-2.4-.9-4.8-1.4-7.4-2-32.2-4.7-28.7-61.8-.3-60.1,8.8.3,19.7,8.1,20.8,16.6.7,5.3-3.8,9.6-9.7,6.8-2.5-1.1-4.7-3.2-6.7-5-1.4-1.2-2.6-2.1-3.7-2.1h-.1Z"/>
      <path class="cls-1" d="M203.3,857c-3.5-2.8-9.1-1.6-12.5,1.2-2.6,2.2-4.7,5.8-7.6,7.4-3.6,2.4-7.9-.6-8.8-4.5-.9-3-.3-6.1.3-9.1,3.7-19,3.6-63.6,15.6-72.2,7.6-4.8,14.1,5,15.6,11.8,5.8,20.6,8,42.4,15.3,62.7.9,2.8,1.6,5.7,1.5,8.6-.4,9.5-8.6,10.7-14.1,1.7-1.6-2.6-2.9-5.7-5.2-7.6h-.1ZM202.3,839.7c1.5-3.2.2-7.2-.6-11.2-.9-4.4-1.7-8.6-2.6-12.9-.8-4.3-1.7-8.9-3.3-3.5-3.1,11.1-9.2,30.7-1.2,31.5,2.9.3,6.2-1,7.6-3.7v-.2Z"/>
      <path class="cls-1" d="M234.5,823.1c-1.2,0-.7,3-.7,4.2,1,11.2,5,30.3.5,34.8-3.5,3.3-6.6-1.2-7.1-4.9-5-27.9-10.2-96.5,14.7-50.2,2.8,5.5,5.5,11.1,8.3,16.6,2.5,4.9,7.7,15.4,6.9,5.4-1.2-17.5-18.3-58.4-2.5-55.2,2.5.8,4.7,3.5,6,7.2,11.5,63.6,22.4,122.9-18.9,53-1.9-2.8-4.9-9.3-7.1-10.8h0Z"/>
      <path class="cls-1" d="M246.2,942.8c-1.1-1.4-3.4-1.4-5-.6-13.8,6.7,14.8,40.4-1.3,51-6.6,3.3-9.7-5.7-12-11.3-2.7-7.7-4.3-16.7-5-24.9-.6-7.6-.8-17.2,5-22.4,4.3-4.5,10.1-7.8,16.4-8.4,8.8-1.2,19.5,3.1,19.5,13.2,0,4.9-2.1,9.9-3,14.6-1.2,7.1,2.8,11.9,9,17,4.7,3.7,10.9,10.4,7.2,16.6-3.5,4.8-15-4.3-23.1-12.5-6.7-6.4-10.8-12.2-8.7-21.1.7-4.1,2.9-7.9.9-11h0Z"/>
      <path class="cls-1" d="M1199.4,797.8c4.9,2.8,13.3-.2,18.4-2.9,8.4-5.3-5.3-7.8-9-10-10.5-5.7-2.6-12.9-4.8-20.3-2.2-4.8-8.6-6.9-10.6-11.7-2.1-5,2.4-6.5,7-6.1,7.5.7,16.5,4.3,19.9,11.5,1.7,3.7.3,8.1-.4,11.7-.8,3.3.3,6.2,2.9,8.1,3.2,2.7,7.7,5,10.2,8.3,3.8,4.9,0,11-4.4,14.1-11.1,7-35.3,19.2-43.5,10.2-3.3-3.7-3.9-9.1-4.8-13.7-1.1-6.4-2.2-14.6-2.6-21.5-1.7-26.2,5-29.6,12.1-7.7,2.5,7.5,4.5,15.8,5.9,23.3.5,2.5,1.4,5.3,3.5,6.7h.1Z"/>
      <path class="cls-1" d="M1484.6,760.8c3.2,1.1,6.3-1.8,7.8-5,3.5-7.8-2-18.2-.3-26.4,1.4-7,8.5-8.1,11.8-1.5,1.1,2,1.8,4.4,2.2,6.7,3,14.9,3.6,30.5,5.5,45.7.8,6.3,1.3,14.8-2,20.1-3.6,5.7-10,1.1-12.6-9.1-1.4-3.3-.6-13.3-4.2-14-5.9.5-5.7,10.7-10,13.8-2.4,2.1-5.9,2-8.3,0-6.8-5.6-6.4-20.9-7.5-31.7-.2-3-.3-6.1,1-8.8,1.3-3.2,5.4-4.6,8-2.1,4,3.1,4.3,9.9,8.6,12.2h.1Z"/>
      <path class="cls-1" d="M435,970.6c2.2,1.1,5.1-.7,7.1-2,6.2-4,13-9.1,18.7-8.6,3.1.2,6.6,2.4,6.7,5.8,0,2.5-2,5.1-5.3,7.6-9.4,7.1-35.5,18.3-39,5.7-5-26.3-20.3-59.1,9.8-67.4,5.2-1.5,11.1-2.9,16.4-2.7,8.5.9,7,8.6,0,10.6-8.5,3.1-27.4,1.7-23.6,15.8,2.3,10.7,7.3,8.8,15.4,4.9,3.8-1.6,8.3-3.1,12.1-1.2,3.5,1.7,4.3,6.5,1.7,9.3-3.6,4.2-10,5.1-14.7,7.2-3,1.3-5.2,2.7-6.6,5.3-1.4,3.1-1.5,7.7,1.2,9.5h.1Z"/>
      <path class="cls-1" d="M1596,728.6c-2,.4-3.7,3.8-4.5,6.1-4.6,12.9.3,23.7,11.4,31,7.1,4.4,18.9,11.1,15,21-5,12-32.4,18.3-41.2,7.8-5.7-7.7,2-11.6,9.7-11.4,3.6-.1,6.6.2,9.4,0,8.1-.4-6.2-7.8-7.8-9.5-17.9-13-16.3-52.2,5.3-59.3,5-1.3,11.1.8,14.1,5,4.2,5.7,2.9,14-2.2,13.2-3.1-.4-5.9-4.4-9.1-3.8h-.1Z"/>
      <path class="cls-1" d="M717.9,932.4c-2.9-1.9-6.8.8-8.6,3.4-3,3.9-1.6,9.6-4.4,13.5-2.2,3.4-6.9,3-9.2,0-6-7.4-4.2-22.3-5-33.9-.2-3.4-.8-7-.4-10.3.4-4.7,5.1-8.3,8.4-3.4,3.8,4.4,2.5,18.2,8.7,18.2,5.4-.2,10.6-5,10.3-10.6,0-9-7.8-28.6,3.7-30.5,6.7.9,6.9,11.3,7.5,16.6,1.7,21.1,3.3,42.1,5.9,63.1.4,4.4-.8,11.2-5.7,11.6-3.6.2-5.9-3.5-6.8-6.7-1.9-7.6-1.1-15.5-1.8-23.1-.2-2.6-.4-6-2.5-7.7h-.1Z"/>
      <path class="cls-1" d="M1639.9,752.7c3.2,1.4,7.6,0,11.1.3,7.4.1,10.4,7,3.2,11.5-3.8,2.6-9.8,2.9-11.8,7.4-1.7,4.6,1.1,10.7,6.3,8.4,3.2-1.1,6.3-3.3,9.6-4.4,5.1-2.1,13-.1,13,5.9-1,7.9-11.3,11.1-18,13.7-29.4,11.1-27.5-22.4-29.8-49.8-.4-4.8-.3-9.5,2-13.8,3.9-7.6,13.7-14.5,20.9-13.2,6.2,1.1,5.7,7.4,1.5,10.8-4.3,3.8-9.3,4.7-10.9,9.5-1.2,4-1.2,11.4,2.7,13.7h.1Z"/>
      <path class="cls-1" d="M664.7,801.7c4.2,1.7,12.2-1.2,13.9,4.7.9,5.6-8.4,8.4-10.9,12.1-1.3,1.8-2.3,5-.4,6.6,2.1,1.4,5.2-.3,7.4-1.3,10.4-5,24.7-13,27.8-5.7,1.9,9.2-9.7,11.6-16.6,14.8-20.2,8.5-31.7,9.8-34.2-10.7-1-5.8-1.5-12.7-1.9-19-.2-6.9-1.7-12.1-.4-18.5,2.8-13.1,24.2-22.6,35.1-18.3,1.6.6,3.1,1.8,3.6,3.3.9,2.6-1.1,5.2-3.2,6.5-7.9,5-20.4.7-23.3,9.7-1.3,4.2-1.5,13.8,3.1,15.8h.1Z"/>
      <path class="cls-1" d="M985.6,802.2c2.1.6,4.7-2.2,6.2-3.8,7.1-7.9,11.7-18.5,5.3-24.9-2.4-2.4-5.9-3.8-8.9-5.4-3.8-1.8-7-5.9-3.5-9.3,4.4-3.9,11.4-1.6,16,1.7,11,8,14,19.7,7.8,32-3.5,7.4-8.2,14.4-13.8,20.3-9,9.6-20.4,13.9-25.4-1.8-2.2-7.6-2.7-16-3.3-24.2-1.4-27.5,6.3-37.2,12.7-14.7,1.1,3.9,2,8,2.7,11.8.8,4.4,1.3,7.9,1.8,11.9.2,2.1.8,5.8,2.5,6.2h0Z"/>
      <path class="cls-1" d="M1430.3,738.2c-3.1-.7-6.9.6-10-.6-4.1-1.3-3.5-6.2-.9-8.8,5.7-6.4,18.8-9,28.2-12.9,4.5-1.8,8.9-3.7,13.2-2.6,3,.7,5.2,3.6,4.7,6.7-.6,4.2-5.1,6.7-8.6,8.1-7.3,2.6-9.1,7.8-9.6,15.9-.8,15.7,6,39.6,7.4,53.7.7,5.1-1.4,10.7-5.9,13.3-13.5,7.6-12.9-40.4-14.1-53.7-.2-3.4-.4-6.7-.7-10.1-.6-4.6-.4-8.1-3.5-9h-.1Z"/>
      <path class="cls-1" d="M918.4,786.7c4.5,1.4,9.7-2.2,14.4-1.2,3.7.5,6.6,4.1,5.1,7.5-1.6,3.7-5.8,5.4-9.3,7-2.5,1.3-7.2,2.6-7.6,5.1-.2,1.5,2.6,2.6,4.3,2.8,8.5,1.4,20.3-4.3,27,1.2,3.3,2.7,3.1,8.2-.2,10.9-5.3,4.6-15.6,2.7-22.6,2.1-4.6-.5-9.3-.6-13.6-2.4-10.3-4.3-10.7-16.7-11.7-28-.2-6.3-2.5-12.8.3-18.7,3.9-8,18.8-13.8,29-13.3,4,.3,7.4,1.2,8.4,4,.8,3-2.3,5.2-4.8,6.3-7.2,3.1-18.6,2.1-21.1,7.7-1.4,2.9-.8,7.4,2.4,8.8h.1Z"/>
      <path class="cls-1" d="M310.7,969.6c1.2-.9,1.1-5.5,1.4-10.9.2-5.8.5-11.8,1.1-17.9,1.3-12.7,4-23.9,10.1-21,2.3,1.1,4,3.2,5,5.7,1.2,2.8,1.4,5.9,1.1,8.9-1.5,13.1-4.3,26.3-6.5,39.3-.9,5.3-2.2,11.3-5,15.9-11.7,17.5-27.5-26.2-35.3-41.4-2.3-4.4-3-9.5-1.1-14.1,6.7-17.7,21.2,36.9,29,35.6h0Z"/>
      <path class="cls-1" d="M412.9,814.4c-3.1-2.5-7.7-1.2-12-1.8-3.1-.2-6.3-.6-9.3-1.4-9.2-2.5-5.9-6.7,1.8-8.9,6.9-1.9,25.6-4.5,31,.8,12.1,11.5-21.6,60.9-43.4,42.4-4.5-3.6-8.2-9-10.8-13.8-13.3-25.3,2.8-56,28.1-67.1,3.1-1.4,7.8-2.4,10.5-.3,3.1,2.5,1.3,6.4-2.3,8.3-2,1.1-4.2,1.8-6.4,2.5-53.6,12.2-18.1,93.1,7.9,54.4,1.9-3.3,7.5-11.7,5.1-15h0Z"/>
      <path class="cls-1" d="M1409.5,888.7c-6,7.1,8.7,35.9,2,48-4.1,8-11.2,3.6-13.2-3.7-2.9-9.7-1.3-20.2-2.2-30.2-.3-5.7-2.2-11.7-1.5-17.1.9-7.4,8.1-12,15.1-12.7,11.3-1.4,21.5,5.3,21.1,17.5,0,8.8-2.7,17.1.2,25.4,2.5,7.1,10.1,6.1,15.4,11.7,2,2,3.4,5.5,1.3,7.8-8.3,5.9-20.6-8.3-24.4-17.2-2-4.5-2.4-8.9-2.4-13.9-.1-5.2.8-14.1-4.1-16.5-2.3-1.2-5.5-1-7.3,1h0Z"/>
      <path class="cls-1" d="M890.3,895.6c-1.2.9-1.3,3.9-1.5,5.5-.5,5.5-.9,11.2-1.3,17-.3,3.9-.9,8.2.3,10.7,1.5,3.3,5.7,3.4,8.4,5.2,5.6,4.3-1.1,8.9-5.2,11-2.7,1.7-4.4,4-5.8,7.2-1.3,2.8-3.9,11.3-7.3,9.6-4.3-3.6.2-36.5,2.2-51.6,1.4-8.9,1.7-25.3,8.7-30,5.7-1.8,8.2,7,9.7,11.2,6,19.4,23.5,48.7,17.8,65-1.4,2.6-4.1,3.5-6.5,1.4-3.5-3.1-4.7-8.3-5.9-12.9-3.1-10.3-5.4-46.6-13.5-49.6h0Z"/>
      <path class="cls-1" d="M194.1,979.8c3.1-.9,3.7-5.7,4.3-9.5,1-8.4-1.6-17.1-.2-25.6.8-6,7-10.2,11.5-5.3,4.9,6.1,1.7,18.7,1.4,26.2-1.2,8.7-.8,19.1-7.1,25.9-7.2,7.4-18.6,3-23.6-4.8-3.9-5.7-6.2-11.9-8.8-18.4-5-13.1-9.5-29.6-2.2-30.1,3.2-.2,6.2,1.8,8.3,4.2,2.7,3.3,3.5,7.6,4.6,11.8,1.2,4.8,2.5,9.6,4.2,14.3,1.6,3.7,3.8,11,7.5,11.2h0Z"/>
      <path class="cls-1" d="M432.9,818.8c.8-7.6,2.7-14.4,3.4-22.5.6-5,1.3-10,2.4-14.4,2.2-9.3,8.5-18.1,17.5-10,13.4,11.7,17.7,38.5,12.7,55.8-4.6,15.7-18.9,30.3-31,11.1-3.4-5.8-5.4-13.1-5-19.9v-.2ZM452.4,786.2c-2.2.4-3.4,3.5-4.2,5.6-5.3,13.5-6.1,30.6-2,41.2.7,1.9,2,4.3,4.1,4.3,1.6,0,3.2-1.4,4.3-2.7,8.7-10.3,9.9-29.9,2.7-43.7-1-1.9-2.6-4.8-4.8-4.7h-.1Z"/>
      <path class="cls-1" d="M388,952.8c1.2-1.3.9-4,1-7.7.2-9.7,2.1-22,7.4-21.3,6.3,1.4,7.6,9.3,7.3,14.9-.3,10.3-1.2,20.6-1.7,30.9-.4,6,.1,15.6-7.2,17.3-7,1.1-10.1-7.1-12.7-12.3-6.3-12.6-19.7-29.6-17.1-40.4.8-3.6,4.6-5.9,8.1-4.1,2.2,1.1,4.1,3.5,5.5,6.3,2,3.1,5.7,17.3,9.3,16.4h0Z"/>
      <path class="cls-1" d="M1608.1,912.5c-.7-1.4-5.3-2.3-7.5-2.8-4.2-.9-7.7-1.8-11.8-3.4-37.5-14.1,6.9-43.8,24.8-34.5,8.9,8-29.2,14.2-27.2,19.9.7,1.8,4.1,3,6.5,3.7,4.3,1.3,8.4,1.9,12.9,3.4,39.5,12.3-8.1,39.5-26.8,30.9-14.1-10.1,14-9.2,24.9-13.4,1.6-.7,5.1-1.8,4.4-3.7h0Z"/>
      <path class="cls-1" d="M291.7,784.7c1.4-.8,1.8-3.6,1.9-7,.2-5.2,0-10.5,2.1-14.5,1-2.1,3.6-3.9,5.4-1.8,7.8,15.5-1.9,54.6-1.9,76.2-.1,5.8.8,16.2-6.1,17.9-7.8-.5-4.5-13.7-4-18.9,2.2-17.2-2.9-32-13.7-45.6-2.3-3-4.8-6.8-4.7-10.6,0-4.6,4.2-7.2,7.8-5.1,3.7,1.2,9.2,11,13.1,9.3h0Z"/>
      <path class="cls-1" d="M759.2,921.2c4,2.4,10.5.8,14.3,3.9,5,3.9.2,8.6-4.6,9.8-3.6,1.2-7.7,1.7-9,4.8-1.5,3.6-1.8,11.3,2.5,13,1.7.6,4.4-.2,7.3-.8,4.5-1,9.4-1.2,11.8,0,4.1,1.8,2.3,6.2-1.5,8.3-5.6,3.2-16.1,4.6-22.3,1.3-12.1-8.8-9.9-29.5-11-44.3-.5-9.4-2.9-18.2,5-24.9,3.6-3.2,8.6-5.6,13.4-5.5,7.4.2,8,6.8,2.5,10.2-4.7,3-9,2.3-10.8,6.6-1.6,4.3-1.9,15,2.4,17.6h.1Z"/>
      <path class="cls-1" d="M1266.1,788.5c3.7-2.9,3.1-11.7,3.2-16.7.2-7.6-2.6-15.5-.1-22.9,12.7-24.8,17.5,25.2,11.6,41.6-1.7,5.2-4.5,10.5-9.1,13.8-15.3,11.1-37.7-36.2-26.7-37.8,4.6,0,8.3,4.4,10.4,8.3,2.2,3.6,5.4,15.6,10.6,13.8h0Z"/>
      <path class="cls-1" d="M1539.9,903.4c3.4,2.3,9.3,0,13.1,2.3,3.7,2.1,1.7,6.8,2.7,10.7.7,3.2,3.2,6,3.3,9.4-.7,10.1-22.4,13.3-29.4,8.7-4-2.5-4.8-7.6-5.4-11.9-1.4-9.8-.8-20.1,3.8-29.3,8.8-18.8,31.3-20.4,29-10.2-2.1,3.7-7.5,4.4-11.6,5.9-2.9,1-5,2.2-6.4,4.4-1.7,2.9-2.3,7.7.8,9.9h.1ZM1547.7,919.6c-1.1-2-4.9-2.6-7-2.5-1.7.2-3.2,1.2-4.1,2.7-2.2,4-1.5,7.9,3.3,5.1,1.9-1,3.8-2,5.6-2.9,1.4-.7,2.3-1.5,2.2-2.3h0Z"/>
      <path class="cls-1" d="M1107.8,913.3c-2.3.2-4,2.5-5.9,3.8-4.3,3.5-8.5,2-12.8-2.7-1.7-1.5-5.4-6.8-7.5-3.7-3.5,4.4,1,41.6-6.7,38.2-3.5-1.7-4.4-8.2-4.1-12.2,1.2-11.5,0-52.8,15.1-42.2,1.8,1.3,3.5,3.1,5.1,4.8,1.4,1.3,2.7,3.2,4.5,2.8,2.5-1.2,4-5.7,6.2-7.6,4.2-4.3,8.9-.4,11.1,3.7,4.7,9.6,14.3,24.6,13.4,33.8-.3,3.9-3.9,6.4-7.2,3.5-3.5-2.8-5.6-10.4-7.6-16.5-.8-1.9-1.4-5.2-3.6-5.6h0Z"/>
      <path class="cls-1" d="M776.7,792.7c2.7-1.6,2.3-4.9,3.1-9,1.2-8.6,3.1-18.6,7.2-20.6,5.7-2.1,8.3,6.7,7.7,11.4-1.3,16.8-5,33.5-7.2,50.3-.6,4.4-1.6,10.9-6,12.8-3.4,1.4-7.4-1.7-7.8-5.8-.7-4,1.1-9.5,1.3-13.9.3-4-1.5-7.5-4.3-10.2-4.6-4.6-11.7-8-14.7-13.3-3.2-5.8,1-9,6.7-6.8,4.1,1.2,9.2,4.9,12.3,5.4.6,0,1.1,0,1.6-.1h.1Z"/>
      <path class="cls-1" d="M1306.8,749.2c-1.6-2-5.7-3.5-5.4-6,.9-3.5,5.2-6.2,8.3-7.9,5.3-2.9,11.1-.9,16.9-1.3,9.5-.5,18.6-5.9,28.1-4.9,4,.6,7.5,3.6,5.6,7.1-3.8,5.2-14.2,4.7-20.1,5.9-8.7,1.2-18,3.5-19.6,13.6-1,6.1-.8,12.4-.9,18.5-.2,9.3,1.6,20.2-1.3,28.2-2.4,6.7-6.9,6.9-8.7-.8-1.1-4.2-1.4-9.4-1.4-15,0-7,.6-14.5.9-21.6,0-5.4,1.1-11.8-2.3-15.5h-.1Z"/>
      <path class="cls-1" d="M1297,933.6c-2.9-1.9-7.3-1.2-10.9-.6-8.4,1.7-15.3,4.4-14.1-7.9,1.8-9.8,2.5-31.2,12.2-35.8,13.3-3.1,21.2,26.5,26.6,36.2,1,2.2,2.1,4.4,2.8,6.6,2.9,8.4-3.2,14.2-10.7,7.2-1.9-1.9-3.7-4.4-5.7-5.6h-.1ZM1285.1,920.5c1.4,1.3,3.7,0,5.1-.8,4-2.2,3.2-5.9,1.2-10.7-2.6-6.5-5-4.1-5.8,2-.2,2.5-1.6,7.4-.5,9.4h0Z"/>
      <path class="cls-1" d="M481.2,929.2c1.1-20.9,43.3-10.9,39.5,15.4-.7,4.9-2.9,10.3-5.4,14.6-2.3,3.8-4.4,6.4-7.1,9.5-3.9,4.3-9.2,9.9-14.8,12.8-14,7.2-11.6-21.7-11.7-38.3.1-4.6-.5-10.6-.5-13.9h0ZM497.8,968.8c1.9.8,4.7-.6,6.6-1.9,17.1-11.9,16.3-37.1-3-39.8-3.5-.6-8.4,0-9.6,3.6-1,2.6,0,6.6.3,9.8.6,5,1.3,10,1.9,15.1.9,4.1.3,11.4,3.7,13.1h.1Z"/>
      <path class="cls-1" d="M975.9,917.7c2.4,1.4,5.8.7,8.5,1.3,3.2.6,5.7,3.9,4.6,7.1-1.6,4.6-7.3,5.3-10.2,9.1-2.4,2.7-3.7,9.2,1.2,9.5,2.8.2,7.3-2.2,11-2.5,4.8-.9,9.8,3.2,6.5,8-4.5,5.8-17.8,6.9-24.2,3.1-3.6-2.1-4.8-5.9-5.5-9.8-4.6-24.8-11.6-74.5,20.4-64.1,8.2,3-.6,6.3-4.4,7.3-9.7,3-13.7,2-13.6,9.5.1,4.4,1,8.8,1.8,13.1.6,3,1.2,6.5,3.9,8h.1Z"/>
      <path class="cls-1" d="M865.4,810.1c2.6,1.8,5.8.8,9.5.3,3.6-.6,7-1.1,10.6-1.4,5.8-.8,14.1,1,13.3,8.3-1.4,6.9-9.5,6.3-15.6,6.6-9.8.4-22.3,1.9-27.9-4.5-5.3-6.4-4.1-16.1-4.3-24.3,0-3.1.2-6.8.5-10,2.4-27.4,11-22.2,12-.8.5,6.7.5,13.5.2,19.8,0,2.1.2,4.9,1.7,6h0Z"/>
      <path class="cls-1" d="M805.1,806.6c.8-14.1,5.7-37.6,18.7-41.3,4.3-1.3,7.6,1.2,6.2,5.7-3.3,10.7-15.3,22-13.6,34.4.4,3.8,2.9,7.6,6.7,7.3,4.9-.4,10.9-4.2,16.3-2.4,21.6,7.3-35.4,32.9-34.3-3.4v-.2Z"/>
      <path class="cls-1" d="M734,828c-33,.3-14.3-49.3-.9-62.9,2.5-2.3,4.5-4.1,7.5-3.4,1.8.6,3.3,3.1,2.8,5.8-.4,2.7-2.3,5.1-4.1,7.3-10.5,12.8-20.9,39.7-6.9,39.6,5.1,0,10.5-2.8,15.6-2.1,11.7,2,3.3,11.4-5.4,14.1-2.7.9-5.6,1.4-8.4,1.5h-.2Z"/>
      <path class="cls-1" d="M342.2,933.1c0-12.8,11.6-13.5,13.7-.8,2.9,15.7,4.8,32.5,5.6,48.5.4,4.6-.6,9.8-4.4,12.6-9.1,6.2-11.8-6.2-12.7-21-.7-12.9-.4-27.1-2.1-39.2v-.2Z"/>
      <path class="cls-1" d="M1338,920.8c1.8-1.6,1-5.5,1.1-10.5,0-5.1,0-10.6.4-15.8.7-7,1.3-12.3,4.4-14.6,2.3-1.2,5.2.9,7.1,4.3,1.5,2.8,1.7,6.1,1.4,9.2-1,9.5-2.4,19.1-3.9,28.6-.8,4.9-2.1,12.5-5.6,14.8-9.3,5.5-23-19.1-24.7-26.2-1.2-4.1-1.4-7.7.3-9.3,2-1.8,4.9-.5,6.6,1.1,4.3,2.8,7.9,18.9,12.8,18.4h0Z"/>
      <path class="cls-1" d="M501.7,770.9c-3.5,2.4-3.5,6.7-3.8,11.8-.1,3.4-.1,6.7,0,10.1.2,7.5.8,15.7,1.3,23.4.4,9.4,1.4,19.7-1.2,27.4-1.3,3.7-3.8,3-5.2,0-9-19.6,9-67.3-14.1-73.4-6.2-1.4-6.1-3-.6-5.8,10.3-5,24.6-5.2,36.7-6.7,2.5-.2,5.4-.2,7.6.8,4.2,2,2.4,6.4-1,8-5.3,3.1-14.6,1.2-19.5,4.3h-.1Z"/>
      <path class="cls-1" d="M1146.2,922.4c-2-1.5-5.2-1.8-7.6-2.7-7.5-2.3-14.7-10.6-12.3-14.8,3.2-4.3,9.9-1,14,0,9.7,2.9,3.4-6.4,4.7-13.7.3-2.4,2.1-5.5,4.8-4.7,9.9,5.9,7.9,36.7,10.6,49.9.5,3.6,1.6,8.1-.6,11.2-4.2,4.8-9.4-.5-10.1-5.7-.7-3.4-.8-7.4-.9-11.2,0-2.9-.4-6.8-2.5-8.2h-.1Z"/>
      <path class="cls-1" d="M1245.9,906.8c3.8,2.2,11.4,1.8,9.9,7.6-1.4,4.2-7.1,7.4-6.7,12.5,0,4.3,1.3,11.4-.7,14.1-1.1,1.7-3.2,1.6-4.6,0-2.7-2.7-3.5-6.7-4.2-10.5-1.3-7.6-2.1-15.3-3.3-23-.9-8.4-3.8-18.5,2.2-23.9,4.9-4,11.4-5.7,17.3-8.1,5.1-1.7,9.9-3.8,14.4-2.4,2.4.9,3.5,3.4,2.7,5.9-5.8,13.4-32.3.8-31.7,16.2,0,3.9.7,9.2,4.4,11.3h.1Z"/>
      <path class="cls-1" d="M807.4,911.2c2.9-.8,3.7-4.7,5.3-6.9,5.3-7.9,3.5,14,2.9,20.3-1.2,13.8-3.7,30.5-5.8,39.2-.3,1.3-.8,2.6-1.4,3.7-1.8,3.1-5.9,4.1-7.6,1-.8-1.6-.9-4.3-.6-7.4.5-4.4,1.7-9.7,2.6-14.2,1-5.4,2.2-10.7,0-15.7-2.3-7.5-16.8-17.3-14.1-25.5,1.8-3.3,6.7-1,11.4,2.1,2.2,1.3,4.5,3.7,7,3.6h.1Z"/>
      <path class="cls-1" d="M937.5,949.2c-.2,2.9-1.5,6-4.2,7.4-4.6,2.7-10.4-4.8-11.4-11.1-.9-4.4-.6-8.8-1.3-13.2-1.6-11.1-7.3-25.8-5.4-35.4,2.4-10.4,9.5-2.4,11.9,3.7,3.8,8.6,5,18.8,6.6,28.2.8,4.7,1.6,9.2,2.6,13.2.6,2.3,1.2,4.7,1,7.1v.2Z"/>
      <path class="cls-1" d="M1486,889.6c-2.5-1.7-5.8-1.5-8.5-2.5-6.9-4.8,55.8-20.5,49.8-11.8-2,3.6-6.7,5.4-10.7,6.5-3.3.9-6.7,1.4-9.3,2.5-14.1,6.7-5.3,28.4-6,43.5.1,4-1.4,10.4-5.4,4.5-6.7-8.9-2.5-37.4-9.8-42.7h-.1Z"/>
      <path class="cls-1" d="M1364.7,909.4c.2-4.1-.2-7.7,0-12.3.7-29.9,29.5-6,21.7,21.4-1.5,4.5-5.2,10.1-10.3,9.7-4-.3-8-4.2-9.9-8.4-1.6-3.5-1.6-6.9-1.5-10.2v-.2ZM1375.5,903.1c-1,.4-1.2,2.1-1.4,3.1-.8,4.2-1.1,8.2,0,12.1.3,1,.8,2.5,1.9,2.6,1.1-.2,1.6-1.9,1.9-3,1.1-4.1.8-8-.5-12-.4-.9-.8-2.6-1.8-2.7h0Z"/>
      <path class="cls-1" d="M949.5,905.6c-1.6,9.4-7.9,20.6-.2,28.7,3.3,3.6,8.6,6.3,11.3,10.5,2.4,3.3,1.5,7.5-3.7,6.5-4.8-1-8.9-4.3-12-8-12.9-15.3.8-34.1-9.1-45.9-1.6-2-3.7-4.1-5.1-6.3-1.2-1.9-1.7-3.6-1.2-4.8,1.9-4.1,14.8,1.6,18.7,10.4,1.3,2.7,1.6,5.8,1.3,8.7v.2Z"/>
      <path class="cls-1" d="M684.9,972c-.9,2.7-4.2,3.5-6.8,1.7-3.7-2.8-3.8-8.6-4.3-12.9-1.7-17.8-11.3-38.3-6.3-54.4.8-2.1,2.1-3.9,4.1-2.4,9,11,6.7,42.7,12.7,60.9.7,2.2,1.4,5,.7,7h0Z"/>
      <path class="cls-1" d="M606.5,936.8c-3.7,10.2-35.8,12.6-46.5,16.1-2.2.6-4.9,1.1-7,.7-4.3-.6-4.5-4.9-1.1-7.3,2.9-2.2,7-2.8,10.6-3.7,14-3.3,29.5-13.1,42.1-8.1,1.1.6,1.8,1.3,1.8,2.2h0Z"/>
      <path class="cls-1" d="M1467.5,930.1c-1,2.4-3.1,4.4-5.8,4.6-7.7.5-7.2-19.9-7.9-31.6-.2-4.8-1.4-9.4-1.2-14.3.8-11,6.8-8.2,8.8.1,2.6,10.9,4.4,21.6,6.4,32.7.5,2.7.7,5.7-.4,8.3v.2Z"/>
      <path class="cls-1" d="M639.4,895.2c-1-1.6,5.1-4.2,8.3-6,4.2-2.3,44-19.6,41.1-9.8-2.2,4.5-7.4,6.5-12,7.8-10.5,2.6-28.5,11.9-37.4,8h0Z"/>
    </g>
  </g>
  <path class="cls-1" d="M1744.5,375.7c-.1,4.5-.3,10.3-3.3,13.7-1.6,1.7-3.8,1.3-5.2-.8-1.6-2.4-2-5.4-2.1-8.3.2-5.9-.5-12.4,1.6-18.1,1.8-4.4,5.5-4.3,7.1.2,1.6,3.9,1.8,8.8,1.8,13v.2Z"/>
  <path class="cls-1" d="M1731.3,366.9c.2,4.3-.5,10.5-3.6,13.5-4.7,3.8-8.1-3.9-8-8-.7-7.5,4.5-21.4,8.3-17.7,2.7,3.1,3,7.8,3.4,12v.2Z"/>
  <g>
    <path class="cls-1" d="M1119.1,1748.9c.8-1.4.5-4,.7-5.7.3-4,2-6.6,3.6-5.7,1.8,1.1,2,3.8,3.1,5.4,1.3,2.2,3.6-1.1,4.8-2.1,4-3.9,11.1-8.4,14.8-3.5.9,1.6-.5,3.7-2.3,4.7-5.4,2.9-10.6,4.6-9.9,11.9.3,4.4,3.9,9.5,8.6,7,2-.9,4.3-3.1,4.8-4.6.9-3-4.1-2.6-5.7-3.9-2.8-1.9-.7-4.7,2.5-5.9,3.8-1.5,9-1.6,11.2.7,2.6,3,1.2,7.1-.2,10.6-3.8,8.3-12.6,14.6-20.5,10.2-2.3-1.3-4.5-2.8-7.1-3.6-2.4-.9-5.1-.9-7.4-2.2-2.1-1.1-4.4-4.3-6-5-1.2-.7-1.9.7-2.1,1.7-.4,1.6-.6,4-1.7,5.4-1.3,1.7-3.2,1.2-4.1-.5-1.8-3.3-1.3-7.4-1-11.2,2-16.8,11.7-.8,13.8-3.7h0Z"/>
    <path class="cls-1" d="M837,1759.1c.8,2.1,2.4,3.6,3.8,5.3,3.4,4.2.7,8.3-3.5,10.7-5,3-13.9,3.8-18-.5-2.3-2.5-2.4-6-2.9-9.2-.9-6.5-1.2-14.3,1.9-17.3,2-1.9,4.9-2,7.6-1.9,4.2.2,9.1,1.6,10.1,6,.5,2.1.2,4.6,1.1,6.7h0ZM823.7,1762.4c-.6-2.5,6.4-7.2,2.5-8.5-3.2-.5-4.4,3.4-4.3,6,0,5.8,1.2,10.8,6.7,10.8,1.5,0,3.3-.2,4.5-1,3-2.8-9.2-3.9-9.4-7.1h0Z"/>
    <path class="cls-1" d="M943,1752.6c-2,.4-2.6,2.6-1.4,4.4,3.4,3.9,11.5,3.7,13.9,8.9,3.2,9-11.7,14.6-18.7,12.3-3.9-1.4-1.6-4.3,1.2-5.7,3.3-2,8.1-2.6,7.6-4.1-.5-.7-1.2-.9-2.1-1.2-2.5-.9-5.8-1.6-8.1-3.2-5.9-4-2.8-13.8,2.9-18.4,4-3.6,10.3-2.9,12.3,2.2.8,2.2,0,4.3-1.8,4.7-1.8.4-3.8-.3-5.6.2h0Z"/>
    <path class="cls-1" d="M625.5,1769c-1.6,3-.9,7.1-2.9,10-1.1,1.6-3.1,1.3-4.2-.5-1.3-1.9-1.6-4.5-1.6-6.8-.2-6.6-.1-13.4-.1-20,0-3.8.6-8.6,4.3-10.6,9.3-5.1,24.6,10.5,13.8,20.5-1.9,2-4.6,3.7-6.8,4.9-1,.6-1.8,1.4-2.4,2.4h0ZM625.2,1758.8c.7.6,2.2.2,3.1-.4,3.7-2.1,5-6.3,1.8-8.5-1.3-.9-3.7-2-5.1-.9-1,.9-.7,3.2-.8,5.3,0,1.4,0,3.7.9,4.4h0Z"/>
    <path class="cls-1" d="M1116.4,1820.4c-2.7-1.1-7.2.3-9.9,1.7-2,.9-5.2,3.4-6.8.9-2.3-6.4,5.8-24.3,12.3-21.6,3.4,1.4,5.8,4.8,8.2,7.9,8.8,10.8,9.4,30.3,1.3,18-1.5-2.2-2.4-5.7-4.9-6.9h0Z"/>
    <path class="cls-1" d="M761.6,1769.8c.4.3,1.1.4,2,.3,1.9-.1,4.5-.8,6.6-.9,6.9-.5,7.3,2.2,1.5,5.7-8.3,4.7-18.1,6.3-19.6-4.8-1-5.1-.6-10.7,1.9-15.4,4.9-9.7,17.6-10.2,17.1-4.5-.8,2.9-4.9,3.6-7.5,4.8-6.4,2.8.8,6.6-1.6,11.5-.3,1-1.2,2.4-.5,3.3h0Z"/>
    <path class="cls-1" d="M852.4,1795.4c6.5-.4,9.2,3.5,11.9,8.9,2.3,4,4.8,9.1.7,12.9-3.4,3.4-9.4,5.7-13.5,4.1-5.1-2.1-6.2-8.3-7.3-13.1-.7-3-1.6-6-.8-8.3.9-2.9,5-4.3,8.8-4.5h.2ZM860.2,1812.6c0-1.5-1.7-2.4-2.8-3.7-.8-.9-1.4-1.8-1.8-2.9-.6-1.3-1.1-3.1-2.6-3.5-.7-.1-1.4.3-1.8.9-2.3,3,.6,10.1,5.5,10.7,1.2.1,3.2,0,3.5-1.4h0Z"/>
    <path class="cls-1" d="M731.6,1758.6c1.3,2.2,4.2,2.6,6.8,3.7,23.6,10-10.9,21.8-12.9,14.8.1-3.4,5.7-4.1,8.3-5.3,6.1-2.8-10.9-5.7-11.4-12.5-1.1-6.5,9.9-12.9,15.2-12.7,3.5.3,4.2,3.9,1.2,5.8-2.1,1.6-8.1,2.7-7.3,6.1h0Z"/>
    <path class="cls-1" d="M708.5,1773.2c-3-1.4-6.6.9-9.7.9-4,.4-4.1-3.1-3.2-6.5,1.5-4.5,3.5-19.8,10.2-18.1,4.1,1.5,5.1,6.1,7,9.8,2.6,5.5,5.8,11.9,5.5,16.9,0,2-1.6,4.5-3.8,3.6-2.5-.8-3.5-5.4-5.8-6.6h0ZM705.8,1762.1c-.5-.3-1.1,0-1.2.6-.2.8,0,3.1.9,3.2,1.1,0,.9-3.2.5-3.7h0Z"/>
    <path class="cls-1" d="M1026.9,1806.9c.6,1.5,2.6,2.4,3.8,4.1,1.2,1.7,2.5,3.1,4.5,4.2,1.8,1.1,4.7,2.3,4.4,4.7-.7,4.8-17.3,5.9-21.3-1.6-1.5-2.7-1.8-6-1.7-9.1.1-7,5.2-10.8,11.9-10.4,6.8.5,8.9,4.1,1.7,6.6-1,.4-2,.7-2.6,1-.5.2-.7.4-.7.7h0Z"/>
    <path class="cls-1" d="M637.1,1808.3c1.7,2.5,5.1,3,7.8,4.6,20,10.3-14.3,20.8-16.1,13.1.3-4,6.3-4,9.6-4.6,11.3-2-16.4-5-9.1-18.2,1.1-2.2,2.9-4.2,4.9-5.7,2.7-2,6.2-2.7,7.3-1.5,2.6,4.2-7,7.9-4.5,12.3h0Z"/>
    <path class="cls-1" d="M1079.9,1760.2c-4.4-2.7-6.3,5.7-10.5,4.9-2.8-1-2.8-9.1-2.4-14.9.1-2.4,1-9,4.4-8,2.1,1.3,2.9,6.9,6.5,7.3,3,0,3.4-4.1,5-5.9,1.6-2,3.7-.7,4.4,1.3,1,2.4,1.1,5.9,1.4,9,.1,1.8.2,3.7.2,5.4,0,2.1-.8,5.4-3.4,5.1-1.9-.2-3.5-3-5.4-4.1h0Z"/>
    <path class="cls-1" d="M1028.2,1755.8c2.7.8,6.1-1.4,8.6-.2,1.4.7,2.1,2,2.9,3.5.9,2.1,2.5,4.4,1.8,6.8-1.9,4.3-11.3,6.1-15.2,3.7-2.4-1.4-3.5-4-4.4-6.5-1.4-4.4-3.2-9.2-1.1-12.9,1.6-3.7,13.4-9,14.9-3.5,0,3.8-5.7,4-7.7,6-1,.8-1.5,2.6,0,3.1h0Z"/>
    <path class="cls-1" d="M1062.4,1817c.3.3.8.4,1.2.3,1.4,0,3.7-1.3,5.5-1.4,2.1-.3,4.3,1.3,4,3.5-1.3,6.3-13.3,8.4-17.7,4.2-2.9-2.8-2.3-7.8-.9-11.4,4.5-11.9,24.9-17.4,22.1-10.2-2,3.9-7.4,5.2-10.6,7.6-1.8,1.5-4.6,5.2-3.6,7.2h0Z"/>
    <path class="cls-1" d="M999.2,1819.3c-2,.2-4.3,2.2-5.9,1.7-2.4-1.2-2.6-4.8-3.1-8.1,0-3.9-1.4-11.2,2.1-13.7,3.2-2.2,13.3-1,13.6,4.4.3,2.3-1,5.1-.1,7.2,1.2,2.5,4.7,3.1,6.3,5.2,1.9,2.3-.8,4.3-5.5,3.9-2.4-.2-4.9-1-7.3-.6h-.1Z"/>
    <path class="cls-1" d="M673.3,1754.9c-1.7,2.5,0,5.8.3,8.6.5,3.6-.6,7.9,3.5,8.2,3.2.3,8.9-1.5,10.4,2.3.2,5.1-11.4,5.6-15.1,4-2.5-.8-4.3-2.5-5.3-4.9-2.5-6.7-4-14.6-.4-21.1,7-11.2,25-2.1,10.9.7-1.5.4-3.3,1-4.2,2h0Z"/>
    <path class="cls-1" d="M855.8,1761.8c1.2-2-.5-7.4-.2-10-.1-2.8,1.7-7.1,4.8-5,5.3,5.3,4.5,22.5-1.7,26.6-12.2,6.1-14.2-26.1-9.4-25.6,2.4.6,3.3,3.9,3.8,6.2.4,1.6.8,8.7,2.7,7.8h0Z"/>
    <path class="cls-1" d="M970.5,1748.2c13.3-2.2,20.3,14.9,8.3,22.7-4.3,2.9-10.6,3.5-13.2-1.8-3-5.5-2.1-18.8,4.8-20.9h.1ZM971.8,1765.9c.6.4,1.4.4,2.3,0,3-1.2,5.8-5.3,3.7-8.4-1.6-2.4-5.4-2.6-6.3.4-.6,2.1-1.3,6.2.2,7.8h0Z"/>
    <path class="cls-1" d="M718.3,1809.1c1.2,1.7,4.8,2.8,5.3,4.4.6,2.2-2.1,3.7-4.4,5.1-2.1,1.4-15.8,6.2-15.2,1.2.8-2.7,5.8-6.6,4.8-10.4-.7-3.2-5.1-3.1-7.4-4.4-4.9-3.8,11.9-8.2,16.3-7.7,2.7,0,4.7,1.4,3.2,4-1.2,2.3-4.6,5.2-2.6,7.9h0Z"/>
    <path class="cls-1" d="M953.7,1808.9c-2.3-2.2-6.3-.9-8.7.5-2.4,1.5-3.2,4.8-5.3,7.1-1.6,2-3.9,2-4.8-.6-2.9-9,4.6-12.4,12.2-15.7,3.4-1.4,7.9-5.1,10.7-3.8,3.9,1.8,5.2,14.7,4.4,18.4-.4,2.6-2.7,5-4.7,2.3-1.7-2.3-1.8-6-3.7-8.2h0Z"/>
    <path class="cls-1" d="M878.8,1748.8c1.7-1.1,2.7-3.9,4.4-4.8,3.2-1.5,4,3.2,3.9,5.7-.3,5-.5,10.1-.5,15.3-.1,3.7-.5,7.3-1.9,9.9-1.8,3.5-5,2.8-5.9-.9-.6-2-.4-4.3-.6-6.3-.2-2.4-1.1-4.5-2.5-6.5-.7-1-1.4-2-2.1-3-3.8-5.6-5.6-12.1-2.1-11.6,2.4,0,4.7,3.2,7.2,2.3h0Z"/>
    <path class="cls-1" d="M1138.7,1817.6c-1.1-2.2-2.9-4.2-4.6-6-5.2-5.5-7-11.3-3.2-10.6,1.7.3,3.1,1.2,4.6,2.1,1.4.8,2.9,2.2,4.3,1.9.5-.2.8-.5,1-.9.8-1.7.8-4.3,1.7-6,.8-1.7,2.4-2.4,3.9-1.4,4.5,4.1,1.4,14,1.1,20.4-.2,2-.3,4.1-.7,6-.4,2.7-2.8,5.8-5,2.9-1.5-2.1-1.6-5.7-3-8.4h0Z"/>
    <path class="cls-1" d="M1007.6,1755.4c-2.8-1.5-7.6,2-9.6,4.3-2.5,2.8-2.3,5.8-4.1,8.4-1.6,2.5-4.7,2.5-5.3-.5-.6-4.4,1.3-10.6,4.6-13.7,2.2-1.9,5-2.5,7.5-3.9,1.5-.8,3-1.7,4.4-2.5,7.7-4.3,11.9,9.7,11.2,16.2-.6,4.9-4.1,4.3-5.4.7-1.4-3.1-.9-7.2-3.3-9.2h0Z"/>
    <path class="cls-1" d="M974.5,1821c-6.1,0-8.7-5-7.6-10.6.8-5.4,4.8-11.4,10.9-10.7,11.6,1.7,9.9,22-3.1,21.4h-.2ZM972.6,1814.5c2.2,1.6,7.7-1.8,7-4.7-.3-2.1-3.6-3.6-5.1-1.8-.9,1.2-1.3,2.8-1.9,4.2-.3.9-.4,1.7,0,2.2h0Z"/>
    <path class="cls-1" d="M791.9,1815.7c-2.8-1.1-6.4,1-9.4,1.2-6.6.7-3.9-6.2-1.7-10.5,5.7-12.1,10.8-10.6,16.1-.4,1.9,3.6,5.8,9.5,2.1,12.7-2.7,1.7-4.7-1.9-7.1-2.9h-.1Z"/>
    <path class="cls-1" d="M650.7,1770.8c1.2,1.6,3.2,1.5,5.1,2,2.5.5,4.4,1.4,4.5,2.4.1.9-1,1.9-2.8,2.6-5.1,2.2-14.6,1.9-15.2-5.1-.4-3,.3-6.4.4-9.2.2-4,.4-8.6,1.4-12.7,2.2-9.2,6.5-3.1,6.3,8.9.2,3.8-1.4,8.3.2,11.1h0Z"/>
    <path class="cls-1" d="M812.2,1812.6c-1.8.5-2.5,5.9-5,3.8-1.5-1.5-2.3-6.3-1.4-10.2.5-2.5,2.2-5.8,5.2-4.5,2,.4,6.5,6.8,7.9,3.5.6-1.4.5-4.6,1.3-6.7.8-2.5,2.9-3.4,4.3-.8,2.8,5,2.6,16.9-1.8,19.1-1.7.9-4.2,0-6.4-1.7-1.5-1-2.5-2.6-4.1-2.5h0Z"/>
    <path class="cls-1" d="M654.5,1813.4c0-2.7.4-5.5,1.7-7.9,3.7-6.8,13.5-3.2,16.2,4.2,2.3,6.2-2.8,12.4-9.1,12.8-5.5.5-8.7-3.8-8.8-9v-.2ZM663.3,1808.5c-.7.3-1,1.1-1.3,1.8-.8,2.1-1.1,3.8-.4,5.7.3.8.8,1.9,1.8,1.9.8,0,1.5-.8,1.9-1.5,1.5-2.2,1.8-4,.2-6.2-.5-.7-1.2-1.8-2.2-1.7h0Z"/>
    <path class="cls-1" d="M1050,1751.7c-1.2-1-3.1-1.2-4.6-1.7-4.1-1.5-.8-3.9,2.2-5.4,4.6-2.3,14.3-5.3,14.8-.7-.2,3.1-2.7,5.8-2.8,9-.4,4.2,1.9,9.1,0,13-1.9,3.7-4.4,1.6-5.3-1.2-.9-2.4-1.6-5.6-2.1-8.2-.5-2.1-1.1-3.7-2.2-4.6h0Z"/>
    <path class="cls-1" d="M879.5,1809.1c1.1-1.4.7-5.8,1.5-7.9,1.5-5.9,6.3-4.2,6.8,3.2.3,4.4-.6,9.8-4,12.8-6.3,5-13.7-5.1-13.3-11.1,0-2.8,2-4.4,4-2.8,1.7,1,3.5,6.4,5,5.8h0Z"/>
    <path class="cls-1" d="M1085.4,1817.4c1.4,2.2,7.6,2.2,8,4.8.3,2.7-4.3,4-7.1,4.1-4,.3-8.7-1.4-10.1-5.5-3.3-9.1,6.2-23.8,8.1-14.7.6,2.5.3,5.6.3,8.1,0,1.2.2,2.3.7,3h0Z"/>
    <path class="cls-1" d="M900.2,1811.3c-.8-1.7-2.3-3.2-3.6-4.7-3.5-3.8-3.6-8.1,1-7.2,4.6.9,5.2.5,7.2-4,.6-1.1,1.7-2.8,3.1-2.2,1.2.8,1.2,2.7,1.3,4.1,0,6.9-.3,16.5-2.9,21.7-1.1,2.4-4,3.7-4.8.3-.6-2.4.1-5.6-1.1-7.9h0Z"/>
    <path class="cls-1" d="M767.2,1811.2c.8,1.2,2.6,1.9,3.9,2.7,3.4,1.7,2.5,4.2-.9,5.3-5,1.7-9.9-1.7-10.7-6.9-.4-1.9-.3-3.8.3-5.7,1.9-7.2,10.6-12.5,12-9.7,1.4,4.8-7.3,9.5-4.6,14.3h0Z"/>
    <path class="cls-1" d="M1101,1752.8c.1,3.1,0,8.7-2.7,10.4-1.8,1.1-3.8-1.5-4.3-3.3-.6-1.6-.8-3.5-.8-5.3,0-7.9,4-15.6,6.2-11.6,1.4,2.9,1.4,6.5,1.7,9.7h0Z"/>
  </g>
  <path class="cls-1" d="M176.7,298.9c1.4-2.3.9-6.3.5-9.3-4.8-31.8,5-56.4-23.4-52.8-7,.7-14.2,3.3-20.7,4.7-3.8.9-9.5,0-11.5-3.2-8.5-24.1,95.7-26.4,118.7-33.7,4.5-1.2,9.4-2.9,14.2-1.5,5.2,1.3,9,7,5.7,11.8-2.5,3.5-7.3,5-11.4,6-17.6,3.9-35.6,5.3-53.3,9.1-5.2,1-7.4,4.5-6.7,10.1,6.2,34-4,60.7,28.7,51.9,3.3-.7,6.3-1.6,9.4-2.5,4.4-1.3,8.2-3.1,12.8-3.4,8-.4,9.5,7.1,3.5,11.6-9.4,6.8-23.1,6.2-33.9,9.3-3.7.9-7.1,2.4-10.3,4.5-2.2,1.4-4.4,2.9-6.9,3.7-4.3,1.4-9.5.2-14.2.8-6.3.7-14.9,3.7-20.1-.8-2.6-3.1,4.1-8.7,11.9-11.6,2.6-1,5.5-2.1,7-4.5h0Z"/>
  <path class="cls-1" d="M462.3,235.5c-1.6.5-2.9,4.2-3.6,6.2-2.7,7.4-5.8,15.4-9.5,22.7-14.5,28.8-22.1,10.2-34.5-26.9-1.1-3.1-2.2-6.8-3.4-9.5-1.5-3.5-2.8-3-4.2,0-8.2,18.7-14.2,46-22.3,65.8-3.2,7.9-6.4,14.1-9.5,16.6-2.9,2.8-6.7.6-7.9-2.9-1.3-3-.7-7.2.4-10.5,9-27.1,21.1-73.1,35.5-86.7,14.9-15.1,27.2,17,31.7,30.8.5,1.5,1.5,4.6,2.7,4.8,1.5,0,2.3-1.9,3.8-4.7,7.6-17.1,22.6-33.7,31.3-17,4.1,7.4,5.2,15.7,6.4,23.7,3.1,18.4,15.9,49.2,10.4,63-1.9,4.8-5.7,3.8-8.2,0-11.1-16.1-5.3-54.7-15-72.4-.8-1.5-2.3-3.6-3.8-3h0Z"/>
  <path class="cls-1" d="M1094.2,273.6c1.6.1,3.8-2.1,5.2-3.5,17.8-18.9,24.8-42.3,2.9-58.4-3.8-3.1-8.4-8.9-3.9-12.9,10.7-7.2,22.7,8.1,27.2,16.9,13.9,24.7-1.9,48.6-18.2,67.8-4,4.6-9.7,7.5-11.8,13.1-3.3,7.8.5,19.5-1.6,28.6-2.8,11.1-13.7,7-14.7-2.6-.4-2.7,0-5.3.2-7.7,4-30.6-12.5-98.9-.8-117.6,3.5-5.5,8.5,0,10.2,4.9,2.6,6.8,2.9,13.6,3.1,22.1.8,7-3.3,49,2.1,49.4h0Z"/>
  <path class="cls-1" d="M339.9,291.7c-2.6-1.9-6.2-2.2-9.4-2.1-5.3.2-8.4,2.1-10.9,6.3-2.5,4.1-4.3,9.2-8.3,12.1-2.5,1.8-4.7,1.7-6.3.4-4.2-4.5-1.1-15.5,3.2-29.3,5.3-16.5,14.5-37.2,19.2-52.4,1.6-6.4,5.7-18.6,12.4-20,3.8,0,5.5,3.2,7.4,7.6,2.8,7,3.3,16,3.8,23.5,2.6,27,5.8,54.1,11.9,80.5.8,3.5,1.2,7.2,0,10.6-1.1,3.5-3.8,6-6.1,6.2-6.4.6-10.5-16.9-12.8-30.3-1.1-5-.6-10.1-4-12.9h-.1ZM326.5,278.4c2,1.8,5.5.4,7.8-.5,8.5-3.9,6.3-13.5,5-23.6-.4-1.8-.5-6.8-2.8-6.5-1.3.3-3.1,3.4-4.2,6.4-1.9,4.8-3,10-4.6,15.2-1,3.8-2.7,6.9-1.3,9h0Z"/>
  <path class="cls-1" d="M1482.1,282.9c0-20.1,14.9-46,26.7-62.2,3.3-4.5,6.7-8.8,10.3-12.8,2.8-3,6.8-7.4,11.1-6.3,3.1.7,5.3,4.4,8.2,7.8,2.4,2.9,5.2,5.5,8,8,47.5,43-55,143-64.3,65.7v-.2ZM1525.9,223.6c-2.1.2-3.8,1.5-5.1,3.1-2.7,3.5-5.9,8.3-9.2,13.7-6.9,11.5-14.8,26.9-16.9,39.8-1.3,8.6.2,15.3,8.3,16.9,4.9.9,11.3-.6,15.8-3.4,22.3-13.5,39.6-53.3,14.9-67.8-2.2-1.3-5.3-2.5-7.7-2.3h-.1Z"/>
  <path class="cls-1" d="M1355.5,253.9c.8-11.6-11-54.9,11.4-45.7,37.4,15.4,54.5,56.2,27.9,89.2-4.8,6.3-10.4,15.1-18,16.4-6.3.7-14.4-6.6-18.5-11.6-4-5.4-4.1-13.6-3.5-22.2.8-9.3,1.4-17.4.7-26.1v-.2ZM1370.3,227.9c-1.7,1-1.7,3.9-1.7,5.9,1.3,20.6,1.5,41.5,3.4,62.5.9,3.5,3.3,2.5,5.6.6,21.5-19.4,24.3-55.5-3.1-68.7-1.7-.7-3.2-.9-4.2-.4h-.1Z"/>
  <path class="cls-1" d="M765.1,229.7c-4,1.2-10.5,42.7-8.1,46.7,1.7,4,6.8,3.5,10.1,5.7,5.1,3.4,2.1,8.9-2.9,10.3-10.6,2.9-9.3,7.6-12.4,16.7-3.2,9.1-8.6,6.3-9.8-1.9,1.8-25,6.9-98.9,21.5-101.5,7.3-.3,15.2,18.8,16.1,25.4,2.7,13.1,23.9,115.4-1.9,79.5-1.3-2.3-2.3-4.8-2.9-7.3-3.2-22.7-3-45.9-7.6-68.4-.4-1.6-.9-5-2.2-5.3h0Z"/>
  <path class="cls-1" d="M1224.2,268.8c.9-16.8,6.1-33.1,13.9-47.8,1.2-2.2,2.3-4.3,3.5-6.5,2.9-5.1,6.4-11.9,11.9-12.7,11-.6,19,20.1,22.2,29.5,2.1,6.6,3.5,12.8,4.2,19.7,4.1,37.6-36.2,73.6-51.1,38.4-2.6-6.3-4.6-13.8-4.5-20.3v-.2ZM1254.9,221.7c-3-.8-6,8.1-7.5,11.1-5,12-9.4,27.3-9.6,40.2,0,5.4.9,10,3,13.1,2.6,4,8.2,5.2,12.2,2.2,16.4-15.5,14.9-40.7,5.7-61.4-.8-1.8-2.2-4.6-3.8-5.2h0Z"/>
  <path class="cls-1" d="M1340.6,236.5c.6,5.1.1,10.6-.3,15.7-.7,7.4-1.7,14.2-3.5,21.7-13.4,60.6-59.5,19.5-52.7-48,.4-4.8,2.3-12.7,6.3-14.2,2.2-.9,4.5.4,5.9,2.2,3.9,5.5,2.3,12.7,2.1,19.1-.6,13.9.3,28.1,4.8,41.4,2.2,5.9,5.2,14.7,12.4,13.9,14.2-3.1,10.1-51.9,8.6-72.6-.2-3.4-.5-6.8,1-9.9,3.3-6.4,11.2-4.2,13.1,2.4,1.5,4.4,1.2,10.4,1.3,15.6,0,4.9.7,8.9,1.1,12.8v.2Z"/>
  <path class="cls-1" d="M686.1,281.6c-3.2,5,.9,12.8,4,17.1,9.7,12.5,28.4-3.7,40.8,4,2.3,1.4,4.5,4,3.9,6.7-.6,2.7-3.8,4.6-8.1,5.8-12.1,3.5-33.6,1.9-43.2-4.3-6.6-4.1-7.2-13.1-9.9-20.2-18.8-53-19.7-77.6,35.6-88.9,5.7-1.3,11.5-1.9,14.6,3.1,5.2,11.5-48.3,12.1-51.3,32.4-.7,4.9,1,9.9,2.2,14.7,2.2,7,3.2,14,11.9,12.3,1.9-.2,3.9-.5,5.8-.3,4.9.3,6.3,4.4,3.7,7.8-2.5,3.8-7.5,5.9-10,9.6h0Z"/>
  <path class="cls-1" d="M243.5,429.6c-3.5-3.3-10.8-1.3-13.7,1.7-2.1,2.2-2.4,5.4-2.8,8.8-.3,4-1.3,8.5-4.3,11.4-16.4,15.9-16.3-58.2-9.8-62.3,1.8-2.1,4.7-1.3,7.1,1.4,2.9,3.1,3.6,8.6,3.8,13.1.2,4.1.5,9.5,5.1,10.9,5.7,1.4,12.4-2.6,14.5-8.1,3.2-7.3,1.1-16.3,2.7-24,1.5-6.4,7-5.9,9.5-.4,1.3,2.6,1.7,5.8,1.9,8.7.8,17.3,2.9,34.9,3.1,52.1.3,5.5-1.1,14.2-7.8,14.7-5,0-6.6-10.7-7.1-19.6-.2-2.8-.4-6.3-2.2-8.3h0Z"/>
  <path class="cls-1" d="M930.4,271.9c-1.7-1.6-4.6-2.2-6.9-3.2-11.2-4.5-17-19.9-23.8-31.2-1.1-1.9-2.1-4-2.7-6-1.3-3.7-.2-9.7,3.9-10,8.1.1,19.5,19.2,24.6,25.8,2.8,3.7,5.7,9,8.5,9.6,6.4.4,5.5-33.9,13.7-41.5,1.7-2.2,5.3-3.9,7.1-1,1.8,2.7,1.1,7.8.4,11.2-6.5,29.9-11.4,60.3-18.9,89.9-1,2.7-2.3,5-4.3,6.8-15.6,9.7-6.9-22.3-2.9-37,.9-4.7,3.9-10.2,1.3-13.3h0Z"/>
  <path class="cls-1" d="M611.9,274.5c.3,2.6,3.5,4.1,5.7,5.2,12.5,5.8,25.1,9.5,36.7,16.2,4,2.2,9.1,7,6.2,11.7-5.5,7.1-16.7-.2-23.5-2.9-11.4-5.4-18.5-8.7-27.6-14.9-30.9-21.9.6-25.2,7.4-46.5,2.2-10.9-7.6-19.7-15.4-26.2-27.9-26.3,63.9-3.5,18,47.1-2.4,2.9-7.6,6.6-7.6,10.2h0Z"/>
  <path class="cls-1" d="M868.6,296.1c2,1.7,5.1,1.9,7.7,1.9,6,0,12.4.2,15.9,3.1,4.9,4,2.5,11.2-3.5,12.8-9.3,2.6-28.1.4-33.7-7.3-3.7-4.7-4-11.4-4.2-17.2-.6-25.3,0-50.6-.5-76,0-4.8.3-11.4,4.4-13.8,6-2.9,9.1,5.4,9.3,10.3,2.4,26.1.7,52.6,2.1,79,.2,2.5.6,5.5,2.4,7.1h.1Z"/>
  <path class="cls-1" d="M703.8,400.2c4.8,4.5,20.9-6.9,27.2.2,3.9,5.2-1.9,11-7.4,11.7-6,1.6-13.8-.2-18.7,3.9-2.5,2.4-3.6,7.4-.7,9.7,3.5,2.1,8.1-.8,13.3-2.5,2-.7,4.1-1.4,6.2-2,3.8-1,7.3-1.2,10,0,4.1,1.7,5.7,6,2.9,8.9-8.9,8-33.4,10.7-41.5,6.2-4.1-2.3-4.1-6.9-4.3-11.1-1.3-27-4.9-64.9,30.6-61.4,4.4.3,9,.7,12.9,2.1,5,1.5,7.3,7.1,1.6,8.9-4.9,1.2-10.9-1-16-1.1-11.3-.6-16.2,6.3-17.6,17.7-.3,2.8-.6,6.7,1.4,8.7h0Z"/>
  <path class="cls-1" d="M812.7,297c2.2.8,5.1-.6,7.4-1.4,9.1-3.4,21.1-6,23.6-1.4,2.8,7-7.2,13-13.3,14.6-19.8,6.3-32.7,3.9-33.2-15.8-.2-6.1.8-12.3,1.6-18.2,2.8-13.7-4.6-74.9,9.8-73,10.9,10.3,4,50.1,3,65.2-.3,6.3-3.2,28.3,1.1,30h0Z"/>
  <path class="cls-1" d="M1480.4,365.5c-6.5,3.7,6.7,40.6-1.3,51.6-4.8,7.8-11.8,2.1-13.6-5.1-3.3-11.8,0-25.8-.3-38.3.2-5.4-1.6-11.8,2.1-16.3,2.1-2.2,5.9-2.2,9.8-2.8,3.4-.4,6.8-1.1,10.2-.7,8.3,1.2,14.5,10.7,13.3,19.1-.3,6.6-4.6,14.2-2.1,20.5,3.1,6.6,12.6,7.7,17.3,12.8,4.1,3.7,2.6,10.4-3,11.1-6.2.8-13.6-6.5-18.9-11.1-4-3.5-7.6-7.9-8-13.2-.7-8.3,5.4-17.7.7-24.2-1.3-1.9-3.7-4.2-6.1-3.4h0Z"/>
  <path class="cls-1" d="M346.9,435.6c.3-3.3-2.6-5.3-5.7-7.9-17-13.5-35.5-26.3-20.8-49.7,5.4-8.8,23.2-26.1,33.7-16.5,4.9,7.5-8.2,10.9-12.9,13.9-19.9,10-14.1,27.7,4.2,41.1,5.6,4.4,12.6,8.8,14.7,15.9,4.9,16.4-27.3,23.5-41.3,22.2-12.5-.8-10.8-8.1-1.7-10.2,8.3-1.6,16.7-.4,24.6-3.9,2.1-.9,4.7-2.4,5.3-4.7h0Z"/>
  <path class="cls-1" d="M979.2,393.3c-1.9.9-1.2,5.4-1.1,9.1.4,7.4,1.7,15.6-.3,22.7-.9,3.8-5.9,11.1-8,4.2-3.7-12.1-1.9-54.9,6.5-55,7.9.6,24.7,34.3,31.5,42.2,2.9,3.9,6.8,8.2,8,.6,3.4-17.4-3-62.6,8.9-61.5,3.7.5,6.1,5.2,6,9.3,0,2.5-.3,5.4-.8,8.5-6.9,41.5-2.4,80.6-27.8,48.7-5.7-6.7-11.1-14.1-15.9-21-1.7-2.1-4.7-7.7-6.9-7.8h0Z"/>
  <path class="cls-1" d="M599.5,315.6c.2,2.7,0,5.6-1.3,8-2.1,4.2-6.9,6-10.5,3.8-4.2-2.6-4.8-9.2-4.8-13.9.3-30.3-14.6-84.9-5-107.5,1.6-4,4.4-5.2,7-1.2,6.6,10.4,7.6,26.3,8.7,40,1.5,23,1,49.2,5.7,70.5v.2Z"/>
  <path class="cls-1" d="M1575.9,275.9c1.3-21.8-2.6-52.3,19.5-61.4,3.4-1.4,6.9-2.4,10.5-3.2,7.5-1.9,17.9-3.4,25.3-1.5,9.2,1.9,5.4,10.8-1.4,12.4-3.9,1-8.2.6-12.4,1.1-42.1,2.1-24.5,43.9-28.3,77.3-.5,3.1-1.5,5.7-3.1,7.2-2.6,2.5-6.6.9-8.2-2.3-3.7-7.5-1.3-20.3-1.8-29.4v-.2Z"/>
  <path class="cls-1" d="M1551.9,405.4c-1.2-2.8-6.4-5.7-9.3-7.6-5.1-3.4-9.7-6.8-13.7-11.1-2.4-2.7-4.7-5.9-6-9.3-8-20.1,31.6-27.5,37.3-21.4,2.4,2.9-2.5,6.6-5.3,7.6-4.5,2-10.5,2.4-14.8,5.2-9.9,6.7,6.8,16.2,14,19.7,4.8,2.5,9.3,5.4,12.6,9.7,10.5,13-8.9,24.3-21.4,26-6.2,1.1-12.1,1-17.4-1-6.7-2.1-10.8-9.9-2.9-13.2,6.2-2.4,16.4.6,23.3-.9,1.9-.4,4.5-1.4,3.6-3.7h0Z"/>
  <path class="cls-1" d="M1239,373.9c-1.3-.5-3.2.4-4.6,1.3-2.3,1.4-4.7,3.3-7,4.6-9.5,5.5-13.6,3.2-17.5,12.4-2.6,6.3-3.9,13.6-5.4,20.1-.8,2.9-2.2,5.9-4.1,8.1-5.8,5.8-9.6,3.9-8.9-3.7.5-7.2,2.9-15.2,5.2-22.1,2.1-5.9,4.4-12.7,7.5-17.1,4.3-6.7,12.1-5.9,18.4-9.2,4.5-2.6,7.8-7.7,12.3-10.3,12.2-7.4,19.6,17.2,25.4,32.2,1.8,5.1,4.9,9.9,4.9,15.2,0,6.1-6.1,9.9-10.7,5.3-2.8-2.7-4.1-6.7-5.3-10.3-2.1-6.8-4.2-13.3-6.5-20.3-.8-2.1-1.6-5.1-3.7-6h-.1Z"/>
  <path class="cls-1" d="M1189.5,235.2c-.3,16.3-25.1,38.2,0,45.6,10.5,3.9,47.5,17.7,24.6,23.1-3.7.4-7.4-.5-10.9-1.8-24.1-10-46-20.3-35.6-46.7,2.2-6.4,6.8-12.6,7.1-19.4.3-5.8-3.9-9.8-7.4-13.8-4.9-5.1-5.2-13.1,3.2-13.6,10.2-.2,19.3,15.3,18.9,26.5v.2Z"/>
  <path class="cls-1" d="M1140.1,214.6c0-4.9,3.4-11.3,8.8-9.6,6,2.3,6.4,11.2,6.4,16.8-.1,21.6,20.4,85,1.6,92.1-6-.4-8.8-8.8-10.5-14.7-1.5-6-2.4-13.2-3-21-1.3-17.4-.4-39.7-2.7-55.9-.4-2.5-.8-4.9-.7-7.4v-.2Z"/>
  <path class="cls-1" d="M951.5,392.2c2,12.8-7.2,26.3-17.4,33.4-2.6,1.8-5.3,3.3-7.9,4.3-18.2,7.2-23.5-13.2-17.4-26.9,3.3-7.5,9.2-13.7,13.4-20.6,3.3-4.7,3.9-10.6,6.8-15.4,3.6-5.2,11.6-2.1,15.5,3.3,2.3,3.2,3.2,7.2,4.2,10.9,1,4,2.2,7.4,2.7,10.9v.2ZM936.9,387.9c-8-.6-24.8,29.4-16.9,33.1,1.4.6,3.3.2,4.9-.3,10-3.7,17-16,15.4-27.2-.3-2.1-1.1-5.1-3.3-5.6h-.1Z"/>
  <path class="cls-1" d="M520.3,415.2c2.3-15.3,11-39,23.7-46.3,5-2.8,8.5.2,10.5,5.1,1.8,4,3,7.2,4.2,12.1,13.3,48.6-37.3,70.1-38.4,29.2v-.2ZM542.3,391.3c-2.7,0-4.2,3.4-6.2,6.8-3.9,7.4-9,17.9-4.3,25.8,1.9,2.7,5.6,3.1,8.4,1.8,9.6-4,12.4-19.3,6.4-30.4-.9-1.7-2.5-3.8-4.2-3.9h-.1Z"/>
  <path class="cls-1" d="M450.6,424.8c-.1-12.7,7.6-25.5,14.6-37,9.4-14.6,20.9-26.6,26.1-20.8,3.5,4.2-.4,9.6-3.9,12.6-13.6,12.1-25.4,27.8-26.2,46.2-.2,4.7,1.8,11,6.9,11.2,7.5.6,15.6-7.3,22.9-8.3,2.8-.3,5.4.2,7.5,1.8,13.2,10.9-49.5,35.4-47.9-5.5v-.2Z"/>
  <path class="cls-1" d="M189,473.9c-18,23-21.5-65-25-84.6-.7-6.7,6.3-12.2,10.3-3.7,1.6,2.9,2.9,7.1,4.2,12.2,3.8,15.4,6.1,36.5,8,52.2,1,8,1.9,14.7,2.7,18.9.3,1.6.4,3.3-.2,4.9h0Z"/>
  <path class="cls-1" d="M641.2,422.4c6.7,7.3,23-2.3,30.1,1.5,4.8,2,6.4,7.9,1,10.1-9.6,4.3-35.2,2.6-41.8-6-1.8-2.6-1.8-5.7-1.9-8.9-.4-15.7.5-59.3,13.4-52.1,5.2,4.8,2.9,13.3,2.2,19.6-.8,5.2-1.9,10.4-2.8,15.6-.5,2.8-.9,5.6-1.3,8.4-.4,4.3-1.2,8.5,1,11.6h0Z"/>
  <path class="cls-1" d="M590.4,426.6c2.2,1.4,5,.5,8.3-.4,3-.8,6-1.6,8.9-1.1,7.3,1.1,9.5,8.1,1.4,11.6-7.7,3.4-18.3,4-26,.2-4.8-2.3-6.7-7.6-6.6-12.6,0-14.3-.6-68.1,13.6-54.6,4.6,5.1,3.5,12.8,2.4,19-.8,5.6-1.8,11-2.5,16.5-.5,4-1,8-1.3,12.1-.1,3.7-.7,7.1,1.7,9.1h.1Z"/>
  <path class="cls-1" d="M785.4,431.1c-60.1-2,2.8-79.4,8.8-58.4,2.4,11.5-18.2,13.9-22.3,32.8-1.8,8.3,2.4,12.1,11,10.9,3.3-.3,6.7-.8,9.9,0,7.1,1.7,5.9,9.5,0,12.6-2.2,1.3-4.8,1.9-7.3,2h-.2Z"/>
  <path class="cls-1" d="M830.5,377.6c-2.8-2.9-12.8-2.2-14.2-5.4,1.5-7.9,44.4-15.5,51.1-11.3,1.9.9,2.5,2.8,1.6,4.8-1.3,2.7-4,4.3-7.1,5.1-5.6,1.3-13.4.6-15.2,7.5-3.8,17.6.3,39.7-8.1,54.3-2.9,4.6-4.7.5-5.1-2.9-1.5-10,.9-21.9,1.1-33.4-.1-6.2.5-14.3-4.1-18.6h-.1Z"/>
  <path class="cls-1" d="M1396.1,385.8c1,1,3.1,1,4.6.8,2.7-.4,5.7-.9,8.4-.4,7,1.2,7.1,8.5,0,12.7-7.7,4-12.4,2.5-13.5,13.1-.7,4.5-2.8,12.1-6.5,6.2-1.7-3.1-2.4-8-2.7-12-1-16.9-.1-29.3,7.4-43.4,15.1-27.8,47.4-18.2,30.9-7.1-4.2,2.3-11.4,2.3-16,3.9-7.1,2.3-11.6,8.1-13.2,15.1-.7,4-1.7,8.4.6,11.2h0Z"/>
  <path class="cls-1" d="M1438.2,387.4c.9-9.3-1.8-25.9,2-33.4,1.1-2.2,3.5-3.3,6-2,3.4,1.7,5,6.5,5.3,10.2,1.4,15.2.5,30.9,1,46.3,0,3,.1,6.2-.6,9.1-1.6,8.4-11.5,10.2-14.3,1.7-1.3-3.8-1-8.3-.9-12.4.2-6.6.9-13.1,1.5-19.3v-.2Z"/>
  <path class="cls-1" d="M1591,365.9c-2.8-2-14.2,0-15.5-2.5.3-7.1,43.7-18.5,51.8-14.4,3.7,1.3,4.2,5.4,1.2,7.8-1.4,1.2-3.5,2.1-5.8,2.7-3.1.8-6.8,1.3-9.5,2.4-15.2,6.7-6.8,33.1-11.9,47.3-.8,1.9-2.3,4.1-4.3,3.2-3-2.4-2.9-7.1-3.3-11.5-.3-7.6.3-17.4.1-24.9-.3-4.6,0-7.8-2.8-9.9h-.1Z"/>
  <path class="cls-1" d="M291,410c.2,5.4.2,11.5.2,17.5,0,4.5.2,9.2-1,13.7-1.4,6.2-7.4,8.9-11.5,3.8-3.4-4.5-2.4-10.9-2.4-16.2.3-14.4.3-28.8.8-43.2.1-2.7.4-5.5,1.5-7.9,1.1-2.5,3.1-5.3,6-5.6,7.6-.2,5.4,29.3,6.4,37.8v.2Z"/>
  <path class="cls-1" d="M887.3,403.7c-.4,9.1-.4,22.1-3.4,30.4-2.4,7.2-8.6,6.7-11.9,1.3-1.2-2.2-1.3-4.7-1.1-7.2.9-16,0-45.4,7.3-55.9,4.2-6.1,9.7-1,10.4,5.1,1.1,8.1-1,18-1.2,26.1v.2Z"/>
  <path class="cls-1" d="M138.4,375.8c-14.9-12.5,41.1-23.9,56-28.8,4.9-2,11.2-.1,12.4,5,.3,4.8-5.7,7.3-10.5,9.6-11.2,4.7-27.2,8.2-39.2,10.9-3,.7-6,1.3-9,2-4.3,1-7.4,2.2-9.6,1.3h0Z"/>
  <path class="cls-1" d="M1308.7,386.6c-.5,8.2,2.7,32.1-3.2,37.2-1.8,1.4-4.8.6-6.5-1.6-1.7-2.1-1.9-4.9-1.9-7.6.6-8.6-1.7-74.8,11-62.6,4.9,7.6,0,25.1.5,34.4v.2Z"/>
  <path class="cls-1" d="M1652.4,359c-.7,8.4-.8,19.1-2.4,27.6-.8,4.1-2,7.5-3.8,9.3-2.8,2.8-7,.4-8.7-2.9-1.4-2.6-1.6-5.5-1.4-8.4.9-10.4,2.2-21.3,5.1-31.3,1.5-5,6.8-9.3,10-2.8,1.2,2.6,1.3,5.6,1.2,8.4v.2Z"/>
  <path class="cls-1" d="M1090.5,398.1c-12.5-9.9,29.8-19.3,42.2-22.9,2.2-.6,4.5-1,6.5-.2,2.6.9,4.3,3.7,3.5,5.8-1.3,2.9-3.7,4.1-7.3,5.9-8.6,3.8-20.9,6.4-30.2,8.7-4.8.8-11.2,3.7-14.6,2.8h-.1Z"/>
  <path class="cls-1" d="M1290.6,385.9c-5.5.6-13.7-5.7-17.8-9.5-3.4-3.3-6.5-8.5-3.5-12.7,8.4-8.3,31.4,10,26.1,18.6-.9,1.9-2.6,3.2-4.7,3.5h-.2Z"/>
  <path class="cls-1" d="M1643.9,421.7c0,13.2-15.3,13.3-15.7.5,0-13.8,16.1-14.8,15.7-.7v.2Z"/>
  <path class="cls-1" d="M1615.3,266.2c.2,9.2-15.7,11.2-17.3,1.9-1.6-10.1,16.8-12.8,17.3-2.1v.2Z"/>
  <g>
    <path class="cls-1" d="M835.1,123.2c2.4,1.7,6.1,1.6,9.1,1.2,14.9-1.7,17-11.9,17.4-25.5.3-2.6.7-7.2,3.2-7.6,9.3,3,1.4,37.3,1.8,47.2-.4,4.8.3,11.2-3.1,14.8-3.6,2.4-5.2-4-5.5-7-.7-3.8-.2-8.5-3.4-11.2-5.7-3.9-17.6-2.6-21.9,4.3-2.3,3.6-2.5,8.7-4.7,12.1-2.8,4.1-6.5,1.1-6.9-3.1-.4-2.7,0-5.8.3-8.6,2.1-17.4,0-37,3.8-53.3.7-4.1,3.8-10.8,6.7-3.9,3,7.7.8,21.6.5,32.3,0,2.9.3,6.3,2.7,8h.1Z"/>
    <path class="cls-1" d="M891.9,107.8c-2.6,3.8-1.3,11.8,2.3,14.7,2.6,1.9,7.2,0,11.1,1.4,4.5,1.4,4.1,5.7,0,7.9-3.5,2.2-8.6,2.8-11.5,5.7-3.2,3-3.4,8.7,1.4,9.6,8.4,1.2,16.2-6.6,24.6-4,10.2,6.7-28,17.5-34.3,9.4-1.8-1.8-2.1-4.4-2.2-6.9.9-14.1-6.6-35.1,2.5-45,6.1-6.3,20.9-7.6,29.3-7.8,11.2.5,6.8,5.7-3.5,8.9-2.9.9-6.1,1.7-9.1,2.3-4.2,1-8.1.6-10.6,3.8h0Z"/>
    <path class="cls-1" d="M957.3,119.1c-1.7-3-4.8-5.7-7.3-8.3-9.2-9.5-12-19-5.2-16.6,2.5.9,4.7,2.4,7,4,2.3,1.5,4.5,4.2,7,4.1,3.5-1,2.3-8.9,5.2-11.5,2.7-2.5,5,1.7,5.5,4.2,3.1,12.5-1,27.8-1.7,41.4-.3,4.2-.9,10.4-4.9,12.5-4.7,1.3-4.4-11.2-4.1-19.8.2-3.5.2-7.1-1.4-9.8v-.2Z"/>
    <path class="cls-1" d="M988.5,105.6c.3-4.8.2-10.1,2.5-14.3,2.9-4.1,7.9,6.7,8.9,17.6.2,2.6.2,5.3-.3,7.8-2.5,10.4-8.5,6-10.3-2.2-.7-2.9-.8-5.9-.8-8.6v-.2Z"/>
    <path class="cls-1" d="M996.7,146.5c-8.6-.9-7.9-17.4,1.7-14.9,6.7,1.9,6,14.9-1.5,14.9h-.2Z"/>
  </g>
  <path class="cls-1" d="M509,1716.3c-3.6,0-7.6-1.5-10.2-4-8.5-8.3,18.7-21.1,29.8-12.1,3.7,2.8,4.1,8.2-.1,10.9-2.5,1.7-5.7,2.6-9,3.4-3.8.9-6.9,1.8-10.3,1.8h-.2Z"/>
</svg>