<?xml version="1.0" encoding="UTF-8"?>
<svg id="Layer_1" data-name="Layer 1" xmlns="http://www.w3.org/2000/svg" width="525.4" height="351.9" version="1.1" viewBox="0 0 525.4 351.9">
  <defs>
    <style>
      .cls-1 {
        fill: #000;
        stroke-width: 0px;
      }
    </style>
  </defs>
  <path class="cls-1" d="M122.7,63.3c1.4-2.4,2.5-4.4,3.8-6.2,3.7-5,9-6.5,13.8-3.9,4.6,2.5,6.3,7.5,4.5,13.1-.3.9-.6,1.8-1.1,2.5-2.1,3.1-1.5,5.5.8,8.5,11.2,14.7,15.4,32,17,49.9.9,9.7-4.5,17.5-12.7,20.7-8.2,3.1-16.2.9-22.8-6.4-.7-.8-1.5-1.6-3.2-3.6-1.7,8.6-3.2,16.1-4.8,23.8,4.6,2.9,8.9,5.4,13,8.2,5.8,4.1,11.8,7.9,17,12.7,32.3,29.4,17.8,71.9-18.9,84.1-5.6,1.8-11.6,2.1-17.5,3.1-1.5.2-3.1.3-5.2.5.2,3.5.5,6.7.7,9.8.5,7-2.8,11.9-8.5,13-5.9,1.1-11.3-2.7-12.7-9.7-.9-4.7-1.2-9.5-1.3-14.3,0-3.3-1.1-5.3-4.1-7-20.9-11.4-34-29.6-43-50.9-6.3-14.8,1.4-29.5,16.2-32.5,9.1-1.9,18.2,1.9,23.7,10.2,2.5,3.8,4.4,8,6.7,11.9,1.1,1.9,2.4,3.7,4.9,5.4.5-3.3,1.4-6.5,1.3-9.7,0-1.6-1.8-3.5-3.3-4.7-7.5-6.2-14-13.1-18.4-21.9-6-12.1-7.4-24.9-5.7-38.1,2.4-18.3,9.1-34.9,20.5-49.4,9.8-12.5,22.1-20.5,39.3-19.1ZM111.6,208.1c-2.4,6.4-2.8,10.5-1.5,16.9,3-.8,6.1-1.2,8.9-2.5,3.3-1.6,3.7-3.9,1.3-6.6-2.5-2.8-5.6-5.1-8.7-7.8Z"/>
  <path class="cls-1" d="M258.4,187.7c-15.4,0-29.9.1-44.4,0-21.6-.2-35.1-13.6-35.2-35.2,0-8.4.9-16.7,1.3-25.1.8-18.1,1.4-36.3,2.2-54.4.2-3.6.5-7.3,1.4-10.8,3-12,13.3-20.3,25.4-20.6,11.8-.3,22.5,7,26.1,18.5,1.4,4.4,1.8,9.3,1.7,14-.4,16.8-1.1,33.5-1.7,50.2,0,1.9,0,3.9,0,6.6,8.6,1,17,2,26,3.1.4-2.2.9-4.2,1-6.3,1.3-17.3,2.5-34.5,3.8-51.8.3-3.6.7-7.2,1.5-10.8,3.2-13.8,15.1-23.2,28.4-22.6,13.9.6,24.8,11,26.5,25.6.4,3.6.3,7.3,0,10.9-3.3,63.9-6.7,127.7-10.1,191.6-.2,4.4-.7,8.9-1.7,13.3-3.1,13.1-14.5,21.8-27.4,21.4-12.7-.3-23.4-9.2-25.9-22.1-1.1-5.7-1.4-11.7-1.3-17.5.6-22.6,1.6-45.2,2.4-67.8.1-3.3,0-6.6,0-10.2Z"/>
  <path class="cls-1" d="M491.2,178.5c-1,31.5-6.6,62.7-22.9,91.9-5.7,10.1-12.7,19.5-22.4,27.2-23.1,18.3-52.7,18.1-75.5-.5-13.2-10.8-21.6-24.3-27.8-38.7-16.9-39.1-19.2-79.2-9.4-119.8,5.7-23.7,15.5-46.3,28.3-67.9,4.5-7.5,10.1-13.9,19.7-17.2,2.4-.8,4.4-2.7,6.4-4.2,13.4-10.4,29.5-10.9,43.6-.9,15.5,11,27.2,24.7,36.5,40,17,28,22.9,58.3,23.5,90.1ZM406.9,257.9c31.2-34.1,30.5-124.5,0-151.5-1.1,1.9-2.4,3.5-3.2,5.4-3.9,9.7-8.3,19.3-11.3,29.2-10.1,33.5-9.9,66.8,4.6,99.4,2.5,5.6,6.1,10.9,9.8,17.5Z"/>
</svg>