<?xml version="1.0" encoding="UTF-8"?>
<svg id="Layer_1" data-name="Layer 1" xmlns="http://www.w3.org/2000/svg" width="92" height="473.5" version="1.1" viewBox="0 0 92 473.5">
  <defs>
    <style>
      .cls-1 {
        fill: #000;
        stroke-width: 0px;
      }
    </style>
  </defs>
  <path class="cls-1" d="M58.9,82.1c0,1.5-.2,3-.3,4.6-.8,43.4-1.5,86.9-2.5,130.3-.2,6.7,1.7,11.5,6.2,16.4,19.1,20.7,28.9,45,25.6,73.5-1.1,9-3.9,18.1-7.4,26.5-5.1,12.2-14.1,20.8-29.1,22.9-.6,8.7-1.3,17.5-1.9,26.4-1.2,19.4-2.3,38.7-3.5,58.1-.3,4.7-1.1,9.2-4.9,12.5-3.7,3.3-7.8,3.4-10.1-.9-2.1-3.8-3.4-8.7-3.2-13,1.2-25.8,2.7-51.7,4.5-77.5.5-8-.6-14.3-6.2-21-12.6-14.9-17.9-33.5-22.2-52.2-1.3-5.8,1.7-10.4,6.5-11.7,4.6-1.2,8.9,1.4,11.1,7.4,2.8,7.8,5,15.8,7.7,23.7.8,2.4,2.2,4.7,4.9,6.7.2-2,.4-4,.5-5.9.8-23.7,1.5-47.4,2.4-71.1.1-3.8-.3-7.2-3.1-10.2-19.6-21.3-26-47-24.7-75.1,1.1-23.2,5.5-45.9,14.6-67.4,3.7-8.7,9.5-16.4,14.1-24.7,1.4-2.6,2.8-5.5,3-8.3.6-7,.5-14.2.8-21.2,0-2.1.1-4.4.8-6.4,1.2-3.9,3.9-6.4,8.1-6.3,4.2.1,7.2,2.7,7.7,6.7.7,6.1,1,12.3.8,18.4-.1,5.8.8,10.2,6.3,14.1,4.2,3,7.6,8.4,9.2,13.5,3.9,12.6,7.8,25.4,9.2,38.5,2.4,22,2.8,44.2,3.9,66.4.2,3.3-.3,6.8-1.2,10-1,3.6-3.7,5.6-7.6,5.5-3.9-.2-6.4-2.6-7.1-6.1-.7-3.3-.6-6.7-.7-10.1-.3-24.4-1.2-48.7-5.2-72.7-1.1-6.8-3-13.5-4.5-20.2-.8.1-1.6.3-2.4.4ZM51.9,337.7c9.6-4.5,12.8-11.2,15.1-18.2,7-21.4,4.4-41.9-7.4-61.1-.8-1.3-2.3-2.3-4.5-4.5-1.1,28.5-2.1,55.4-3.2,83.8ZM40.4,94.9l-2.1-.4c-1.1,2.7-2.6,5.3-3.2,8.1-3,14.7-6.4,29.4-8.5,44.3-1.9,13.8-.7,27.7,3.4,41.1,1.5,4.8,3.1,9.7,8,15.3.8-37.6,1.6-73,2.4-108.3Z"/>
</svg>