<?xml version="1.0" encoding="UTF-8"?>
<svg id="Layer_1" data-name="Layer 1" xmlns="http://www.w3.org/2000/svg" width="1492.6" height="414.1" version="1.1" viewBox="0 0 1492.6 414.1">
  <defs>
    <style>
      .cls-1 {
        fill: #000;
        stroke-width: 0px;
      }
    </style>
  </defs>
  <path class="cls-1" d="M1270.1,278.8c1.2-5.1-8.4-12.9-13-17.1-5.2-4.6-10.1-9.6-14.6-15.1-25.5-30.5-30.9-65.7-18.1-103.4,5.3-15.5,13.3-29.6,21-43.9,6.6-12,12.6-24.6,20.3-36.1,8.6-13,19.6-24.7,33.2-32.4,27.7-15.6,63.3-17.2,93.1-6.8,48.8,17.6,76.6,76.3,86.2,124.3,5.3,25.6,3.2,59.4-23.1,72.3-13.3,6.5-29.1,3.9-42.1-2.2-20.9-8.8-52.6-41.1-75.8-32-5,2.5-5.2,8.1-2.7,12.6,9.1,15,27.4,21.4,42.9,28.6,19.6,8.2,38.8,17.8,52,34.8,8.8,11,15.5,24.1,20.9,37.3,7.6,18.4,12,38.2,1.5,55.5-18,28.4-55.6,45.9-88.6,47-15.7.7-31.4-1.1-46.8-4.1-29.1-5.4-57.9-17.7-69.7-46.2-7.2-16.5-11.3-39.4,1.3-54,4.6-5.5,11.8-9.3,16.5-12.6,2.3-1.7,5.1-3.7,5.6-6.6h0Z"/>
  <path class="cls-1" d="M170,259.1c-3.7,8.1-.4,17.8,2.1,26.1,5.1,16.3,9.1,33.2,8.2,50.4-.6,13-4.1,25.9-10.9,36.9-16.9,26.9-52.3,43.1-83.8,36.7-22.6-4.3-39.1-23-45-44.7-5.2-18.7-5-38.5-7.6-57.7-2.5-20.1-5.5-40.2-8.3-60.4-5.5-38.7-8.9-77.7-11.9-116.7-2.3-28-3-50.7,23.8-66.9,48.8-28.8,118.4-30.5,163.4,6,22.2,19.5,35.3,47.6,42.4,75.8,11.1,43.5-4.5,73.7-43.6,95.1-9.9,5.8-23.2,8.6-28.8,19.3h0Z"/>
  <path class="cls-1" d="M886.8,214.1c-7.3,11-4.3,26.3-4.1,39,1.9,41.5-.2,89-30.6,120.9-18.5,20.4-54,31.8-71.8,4.7-5.8-8.9-8.5-19.9-9.7-30.5-3.4-44.6-2.7-89.4-1.1-134.1.8-19.7,2.4-41.7-21.1-48.1-7.4-2.2-15.3-3-22.8-4.8-22.5-4.3-41.4-18.9-44.5-42.5-3.1-21.6,3-45.8,19.4-60.8,23.6-21.7,71.2-23.1,102.5-25.3,21-1,38.6,10.3,59.1,12.9,25.8,3.5,56.9-.8,76.6,19.6,23.7,26.2,30,95.4,1.2,119.9-6.1,5.4-13.4,9.1-21,12.1-11,4.4-25.1,6.7-32.1,17h0Z"/>
  <path class="cls-1" d="M1099.9,125.2c-9.7,10.8-2,20.9,11.5,21.6,7.3.8,15.6.4,22.7,3,16.6,5.6,22.3,23.3,24.6,40.2,2.1,16.4,2,36.3-13.1,45.4-6.1,3.8-13.8,5-20.5,7.1-6.2,1.9-11.1,4.3-14.4,9.3-7,10.3-1.4,27.4,11.5,30,13.1,3,28.9-3.3,42.5-3.2,24.5-1.2,34.8,19,37.9,42.2,2.1,16,2.6,33.9-7.2,47.5-7.9,10.9-21,17.3-33.8,20.8-26.6,7.8-53.9-.9-80.9-1.8-14.9-.7-30.7,3.2-45.3.5-23.4-4.5-24.1-32.3-26-51.7-3.7-45.9-11-91.4-14.2-137.4-2.6-46-1.1-92.4,4.6-138.3.8-5.2,1.9-10.4,3.4-15.4,3.4-12.1,10.4-22.9,23.4-22.9,10.4,0,21.2,5.1,31.5,7.4,16.5,4,34.2,2.6,51.4,1.2,11-.8,22.8-2.1,33.5,1.1,18.1,5.2,19.4,25.9,17.1,41.7-7.8,52.6-42.2,34.9-60.1,51.7h-.1Z"/>
  <path class="cls-1" d="M591,310.8c-5.2,2.6-5.8,17.4-7.2,25-2.3,16.3-5.7,32.9-16.7,45.2-7.8,8.9-19.5,14-31.3,14.2-9.2.3-18.3-2.7-27-5.1-11.2-3.5-24.6-6.2-31.2-16.7-5.2-8.5-3.9-21.1-2.6-31.3,3.1-21.4,6.2-42.8,9-64.3,7.8-59.2,14.1-118.6,22.4-177.7,1.1-7,2.3-13.9,4-20.7,2.2-8.9,5.1-17.5,9.3-25.6,14.5-29.5,49.9-55.5,77.1-24.8,4.8,5.4,8.6,11.7,11.7,18.2,12.7,28.9,18.1,60.2,24.9,90.8,6.8,32,14.5,63.8,23.5,95.2,6,21.2,13,42.1,19.8,63.1,4,13,8,26.7,6.7,40.4-1.1,17.4-14.5,35.4-33.1,34.9-12-.3-22.2-8.4-29.5-17.4-6.5-8.1-11.5-17.3-16.3-26.6-2.5-4.1-8.3-18-13.6-16.9h0Z"/>
  <path class="cls-1" d="M387.9,224.8c4.1,4.6,10.8,6.6,17,8.2,7.1,1.7,14.5,3.4,21,6.9,31,16.4,32.7,62.4,16.8,90.4-1.9,3.4-3.9,6.6-6.2,9.8-14.6,19.9-35.7,34.5-58.5,43.2-15.2,5.8-32.1,9.1-47.1,4.8-31.8-10-50.1-45.1-56.6-76-5.5-27.1-7.6-54.8-10-82.3-3.9-54.6-8.5-109.3-11.2-164,.1-7.9.9-14.7,4.6-20.2,6.9-10,20.8-10.3,32-10.9,12.2-.4,24.6-1.4,36.2,1.7,34.8,8.9,47.3,46.8,51.7,78.7,4.1,27.4,6.2,55,5.1,82.6-.2,9-1,19.9,5.2,26.9h0Z"/>
</svg>