<?xml version="1.0" encoding="UTF-8"?>
<svg id="Layer_1" data-name="Layer 1" xmlns="http://www.w3.org/2000/svg" width="318.9" height="302.1" version="1.1" viewBox="0 0 318.9 302.1">
  <defs>
    <style>
      .cls-1 {
        fill: #000;
        stroke-width: 0px;
      }
    </style>
  </defs>
  <path class="cls-1" d="M74.5,69.1c0,11.2,0,22.4,0,33.7,0,7.7.3,15.4.1,23.1,0,4.1,1.6,6.3,4.9,8.6,5.6,3.8,11.3,7.8,15.9,12.7,8.6,9,11.7,20.5,11.8,32.7.1,17.1-4.4,33-14.9,46.5-4.3,5.5-10.1,9.8-16.3,15.7,0,5.8,0,13.2,0,20.6,0,3.6.2,7.1,0,10.7-.5,6.2-4.1,10.4-8.8,10.6-4.6.2-8.6-4-9.2-10.1-.4-4.1-.3-8.3-.4-12.4-.1-6.5-.2-13-.4-19.7-23.4-11.2-31.2-33.1-39-55-.5-1.4-.8-2.9-.8-4.4,0-4.2,1.8-7.5,5.9-9,4.2-1.5,7.8,0,10.1,3.5,1.8,2.7,2.6,5.9,4,8.9,4,8.6,7.9,17.2,12.1,25.6,1.2,2.5,3.5,4.5,6.5,8.2.5-3.8.9-5.7.9-7.6-.1-21.6-.4-43.3-.5-64.9,0-3.5-.7-6.2-3.8-8.3-23.3-16.1-27.8-39.4-23.6-65.3,1.4-8.9,5-17.6,8.5-26,2.7-6.6,7.4-12.3,13.7-15.9,3.5-2,4.9-4.4,5.5-8.2.9-5.3,4.1-7.8,8.2-7.9,4.4,0,7.9,2.8,8.5,8.5.5,5.4,2.7,9.1,6.3,13.1,3.5,3.9,6.2,8.7,8.3,13.5,5.7,12.8,8.4,26.5,9.9,40.4.8,7.6-1.7,11.9-6.7,12.5-4.9.6-8.2-2.9-9.6-10.5-1.5-8-3.1-16.1-4.7-24.1-.8,0-1.6.1-2.4.2ZM76.4,154.6c-2.2,8.8-1.7,54.4.6,61,16.9-17.4,16.6-50.7-.6-61ZM56,52.2c-14.5,17.9-14.4,51.5,0,65.1,0-21.8,0-42.6,0-65.1Z"/>
  <path class="cls-1" d="M210.3,118.1c2.6-.4,4.9-.8,7.2-1,28.7-3.4,52.3,6,69,29.5,16.9,23.9,19.4,50.1,6.4,76.6-12.6,25.7-39.2,36.6-66.6,28.8-14.6-4.2-26.9-12.3-38-22.3-1.3-1.2-2.5-2.6-3.4-4.1-2.4-4-2.1-8.3.7-11.6,2.7-3.2,7.1-4.3,11.3-2.3,2.6,1.2,4.7,3.5,7.2,5,8,4.9,15.6,11,24.3,14.4,22.5,8.7,42.7-1.2,49.9-24.2,6.5-21,2-40.2-13.3-55.8-15-15.3-33.6-19-54.1-12.9-2.3.7-4.4,1.7-6.7,2.3-9.5,2.4-15.8-2.9-15.1-12.7.3-4.1,1.6-8.2,1.6-12.3,0-16-.5-32-.7-47.9,0-4.7-.2-9.5.4-14.2,1.5-11.6,7.6-20.1,19.2-23.1,7.4-1.9,15.2-3.1,22.8-3,13.3,0,26.6,1.3,39.9,2.2,2,.1,4.1.7,6,1.5,3.3,1.4,5.1,4.2,4.9,7.7-.2,3.9-2.4,6.8-6.3,7.6-2.9.6-5.9.7-8.8.5-8-.4-16-1.2-24-1.4-6.5-.2-13-.2-19.5.3-14.5,1.2-17.2,4.4-16.5,19.1.8,17.4,1.5,34.9,2.3,53.4Z"/>
  <path class="cls-1" d="M155.3,216.5c-.3,4.4-.4,8.9-1,13.3-.7,4.8-3.6,7.4-7.5,7.4-3.8,0-6.9-2.6-7.6-7.2-.5-2.9-.4-5.9-.4-8.8-.9-48.3-1.8-96.5-2.8-144.8-.2-11.8-.9-23.7-1.4-35.5,0-1.2-.1-2.4,0-3.5.7-5.2,4.2-8.8,8.4-8.8,4,0,7.4,2.9,8.3,7.8.7,3.8.7,7.7.8,11.5,1.4,56.2,2.7,112.5,4.1,168.7-.3,0-.5,0-.8,0Z"/>
</svg>