<?xml version="1.0" encoding="UTF-8"?>
<svg id="Layer_1" data-name="Layer 1" xmlns="http://www.w3.org/2000/svg" width="249.6" height="227.4" version="1.1" viewBox="0 0 249.6 227.4">
  <defs>
    <style>
      .cls-1 {
        fill: #000;
        stroke-width: 0px;
      }
    </style>
  </defs>
  <path class="cls-1" d="M97.2,38.7c-2.1,10.4-4.1,20.8-6.4,31.2-.9,3.9-1.9,7.9-3.8,11.3-3.8,6.8-11.7,7.3-16.6,1.3-2.3-2.8-3.8-6.2-5.2-9.6-3.6-8.6-6.8-17.3-10.3-26-.9-2.3-2.2-4.4-5.1-6.5-1.6,8-3.2,16-4.8,24-2.7,13.4-5.4,26.8-8.2,40.1-.5,2.6-1.3,5.2-2.5,7.6-1.6,3.3-4.5,5-8.2,4.4-4.3-.6-6.2-3.7-6.6-7.7-.2-1.9.3-4,.7-5.9,4.8-24.5,9.6-49,14.4-73.5.6-2.9,1.4-5.8,2.4-8.7,1.9-5.3,4.7-9.8,10.9-10.4,5.7-.5,9.5,3,12,7.5,3.1,5.5,5.8,11.3,8.4,17,2.3,5.1,4.4,10.3,7.3,17.4,1.3-4.4,2.2-6.9,2.9-9.6,2.1-8.4,3.9-16.9,6.2-25.2,1-3.5,2.4-7,4.2-10.1,5.9-9.6,16.2-9.3,21.1.7,2.3,4.7,3.8,10,4.5,15.2,2.3,15.8,4.2,31.7,6,47.6,1,8.9,1.5,17.9,2.2,26.9.2,2.3.2,4.7-.2,7-.7,4-3.1,6.7-7.3,7.1-4.2.4-7.2-1.9-8.4-5.7-1.2-3.8-1.6-7.8-2-11.8-1.6-15.9-3-31.8-4.6-47.8-.3-2.6-1-5.1-1.6-7.7-.6,0-1.1-.2-1.7-.3Z"/>
  <path class="cls-1" d="M170.7,79.3c-7.1,6.6-9.9,7.5-13.7,4.8-3-2.1-4.3-5-3-8.7,1.6-4.4,4.8-5.5,14.4-4.7-3.7-12.6-7.2-24.9-10.8-37.1-.6,0-1.3,0-1.9,0-.4,1.6-1,3.1-1.1,4.7-2,19.2-3.8,38.4-5.8,57.6-.4,3.9-.9,7.9-2,11.7-1,3.6-3.9,5.4-7.6,5.1-3.7-.3-6.1-2.5-6.8-6.2-.3-1.6-.7-3.3-.5-4.9,3-28.4,5.9-56.9,9.2-85.3.4-3.5,1.9-7.1,3.8-10.2,4.5-7.5,12.8-8.4,18.1-1.5,3.5,4.6,6.2,10.3,8,15.9,6.2,19.6,11.9,39.4,17.8,59.2,2.3,7.7,4.3,15.4,6.4,23,.5,1.9,1.2,3.8,1.4,5.8.5,4.4-.9,8.1-5.5,9.5-4.5,1.4-8-.5-9.8-4.7-1.8-4.2-3.1-8.8-4.4-13.2-2-6.6-4-13.3-6.2-21Z"/>
  <path class="cls-1" d="M32.8,207.8c9.2-.7,16.5-1.3,23.7-1.8,2.3-.2,4.7-.2,7,0,4,.5,6.8,2.8,7.3,7,.5,4.2-1.8,7-5.5,8.5-1.8.7-3.9,1.1-5.8,1.3-14.3,1.4-28.5,2.9-42.8,4-6.4.5-13.2.6-16-7-2.7-7.5,2.9-11.5,7.6-15.9,8-7.5,16.3-14.8,23.5-23,3.9-4.3,6.5-10.1,8.5-15.6,2.2-6-.4-9.3-6.8-8.7-5.6.6-11.3,1.8-16.4,4-8.5,3.7-14.6.7-16.2-4.2-1.9-5.7,1.3-10.4,9.9-13.8,8.4-3.3,17.1-5.8,26.3-5,15.3,1.3,24.1,12,22.2,27.2-1.3,10.6-6.7,19.4-13.2,27.6-3.7,4.7-7.8,9-13.3,15.3Z"/>
  <path class="cls-1" d="M72.7,166.1c.6-5.6,1.2-14.2,2.7-22.7,1.2-6.8,5.4-9.6,12.3-8.6,12,1.7,21.5,7.8,26.4,19,9.6,22,7.7,43.8-4.3,64.2-7.9,13.5-22.1,12.3-28.6-1.9-3-6.6-4.7-13.9-5.8-21-1.4-8.5-1.6-17.2-2.7-28.9ZM89.4,155.2c0,17.9-.2,35.1,5.9,52.5,11.3-18.2,8.5-45.9-5.9-52.5Z"/>
  <path class="cls-1" d="M227.2,166.4c-1.2-7-2.2-13.2-3.3-19.4-.4-2.3-.9-4.6-1.1-6.9-.6-6.9,1.5-10.9,6.2-12,4.8-1.1,8.4,1.9,10.4,8.4.4,1.3.8,2.6,1,3.9,3.1,23.8,6.3,47.5,9.1,71.3,1,8.9-2.1,13.7-7.6,13.8-5,.1-8-4.1-8.9-12.4-1.1-10.5-2.3-21-3.4-31-8.7.8-16.2,2-23.8,1.9-12.3,0-19.4-5.8-21.5-18-1.4-8.4-1.3-17.2-1.1-25.8.1-5.1,4.1-8.3,8.4-8.2,4.7.2,7.6,3.1,8.1,7.4.8,5.9.7,11.9,1,17.9.5,9.6,1.8,10.8,11.5,10.2,4.6-.3,9.2-.7,14.9-1.1Z"/>
  <path class="cls-1" d="M216.2,37.6c2.7-8.7,4.6-15.1,6.6-21.4.8-2.5,1.5-5.1,2.7-7.5,1.9-3.6,4.9-5.5,9.1-4.2,3.7,1.2,5.2,4.2,4.9,7.8-.3,3.3-.8,6.7-2,9.7-9.5,22.5-10,45.7-5.7,69.4,1.2,6.5,1.2,13.2,1.6,19.9.1,2.3,0,4.7-.4,6.9-.7,3.7-3.4,6.3-7,5.8-2.5-.4-5.8-2.3-6.9-4.4-1.6-3.1-1.7-7-2.1-10.6-1.4-13.2-2.3-26.5-4-39.7-.6-4.4-2.2-9-4.4-12.9-6-10.7-12.6-21.1-18.9-31.7-1.2-2-2.5-4-3.5-6-2.9-5.7-2.4-10.1,1.3-12.4,3.8-2.5,8-1.2,11.7,4.1,2.7,3.8,5,7.9,7.4,11.8,2.8,4.5,5.5,9,9.5,15.6Z"/>
  <path class="cls-1" d="M153.7,206.1c8.8,0,16.3-.2,23.8,0,3.6.1,7.5.6,10.6,2.2,2.1,1.2,4.3,4.7,4.2,7-.1,2.3-2.6,5.2-4.8,6.6-2,1.3-5.1,1.2-7.7,1.3-13,.5-25.9.9-38.9,1.4-1.3,0-2.7.2-4,.1-10-.7-13.8-8.3-8.3-16.8,1.6-2.5,3.9-4.6,5.4-7.1,3.3-5.4,7-10.6,9.3-16.4,4.7-11.7,2.1-20.4-7.4-28.6-1.5-1.3-3.2-2.4-4.7-3.8-4.3-4.3-5-8.5-2-12.4,2.9-3.8,7.5-4.7,12.5-1.7,13.8,8.3,22.6,20.1,21.8,36.6-.4,7.4-3.3,14.8-5.4,22.1-.8,2.8-2.4,5.3-4.3,9.3Z"/>
</svg>