<?xml version="1.0" encoding="UTF-8"?>
<svg id="Layer_1" data-name="Layer 1" xmlns="http://www.w3.org/2000/svg" width="780.5" height="502.7" version="1.1" viewBox="0 0 780.5 502.7">
  <defs>
    <style>
      .cls-1 {
        fill: #000;
        stroke-width: 0px;
      }
    </style>
  </defs>
  <path class="cls-1" d="M268.1,51.9c11.3-15.1,31.6-12.5,46.1-3.1,52.9,33.2,35.3,124.9,41.8,187.8.7,4.3,1.8,12.4,4.7,11,2.5-2.3,3.5-7.3,5.2-15.4,2.3-12,4.3-30.6,5.8-45,3.2-27.7,5.4-56.9,12.8-82.8,10.7-39.6,47.2-81.4,77.8-42,6,7.5,10.4,16.4,13.6,25.3,35.7,119.7,13.2,321.3-108.6,376.8-27.2,10.4-55.4,0-70.7-24.5-19.2-29.6-24.1-70.4-25.5-106-2.4-83.8-5.9-167.6-11.2-251.4.3-10.6,2.1-22.2,8-30.7h0Z"/>
  <path class="cls-1" d="M129.9,30.9c66.1,4.2,83.6,73.7,61.3,130.7-8.1,22.8-24.5,39-2,60,4.7,4.6,9.8,8.6,14.9,13.1,118.9,99.3-91.5,302.1-135.4,217.2-3.3-8-4.5-18.7-5.2-27.9-7.9-107.5-6.3-217.7-27.9-323.3-1-5.5-1.9-10.8-2.2-15.8-.7-9.8,1.5-18.6,8-25.5,18-18.4,60.3-29.8,88.4-28.3h.2ZM104.8,165.6c6.6,2.4,13.3-10.7,16.4-17,3.6-7.8,6.3-16.1,6-24.7-.1-7.2-4-14.5-9.4-17.5-7.2-4.6-17.1-2-20.4,5.7-3.3,7.3-2.6,15.2-1.9,23.3,1.1,8.8,2.7,26.3,9.3,30.2h0ZM129.1,363.4c5.4,1.9,11-9.8,13.5-15.3,7-15.7,11.7-41.4-2.7-53.5-5.6-4.4-11.1-1.1-13.3,5.1-3.2,8.5-2.4,19.1-2.4,28.6.5,8.5-1.3,31.1,4.8,35h0Z"/>
  <path class="cls-1" d="M564.9,360.8c19.8-116.7,18.7-187.6-61-282.5-3.9-4.9-7.6-9.7-10.3-14.2-4.3-7.4-6-13.6-2.5-19.4,2.5-4.2,7.9-7.5,14.3-9.8,13.7-5.1,30.1-5,43.7,0,18.3,6.5,33,20.2,45.8,34.4,24.2,27.4,35.6,47.4,67.9,18.4,15.4-13.4,29.9-29.2,47.8-38.6,12.8-6.6,27.5-12,42-10.5,30.1,5.6,24,45,11.3,71.5-5,10.4-11.6,20.1-18.8,29-17.1,20.5-35.9,40.8-52.3,61.8-36.2,46-32.8,59-36.5,113.1-1.1,16.7-2.8,34.9-5,52.2-2.5,20.8-5.8,41.3-13.9,60.7-3.6,8.7-8.1,17.5-13.6,25.1-26.6,37.8-60.4,3.3-61-57.1-.2-11.2.7-22.6,2.1-33.8v-.2Z"/>
</svg>