<?xml version="1.0" encoding="UTF-8"?>
<svg id="Layer_1" data-name="Layer 1" xmlns="http://www.w3.org/2000/svg" width="1350.4" height="787.7" version="1.1" viewBox="0 0 1350.4 787.7">
  <defs>
    <style>
      .cls-1 {
        fill: #000;
        stroke-width: 0px;
      }

      .cls-2 {
        fill: #ddd;
        stroke: #000;
        stroke-miterlimit: 10;
        stroke-width: 14px;
      }
    </style>
  </defs>
  <path class="cls-2" d="M1265.4,505.2c0,0-.1-.2-.2-.3-18.2-26.7-43.3-41.4-64.3-50.2,7.2-21.3,12.5-46.5,8.8-74.8-.3-2.4-.7-4.8-1.1-7.2,14.8-8.7,27.2-22.1,35.6-39.1.8-1.7,1.6-3.4,2.3-5.1,18.9-47.4,9.3-101.3,1.6-144.5-2-11-3.8-21.5-4.8-29.7,0-.8-.2-1.7-.3-2.5-1.3-8.3-2.3-16.2-3.3-24.1,0-.5-.1-.9-.2-1.4-.1-1.1-.3-2.3-.4-3.5-1.2-10-3-25.1-9.1-40.6-13.8-35.1-44.7-56.9-80.6-56.9s-9.5.4-14.2,1.1c-3.4.5-6.7,1.3-10,2.4-11.3,3.6-21.7,9.2-30.8,16.6-12.2-6.8-25.8-10.3-39.4-10.3s-22.7,2.5-32.8,7.1c-7.1-3.2-14.7-5.7-22.7-7.4-8.4-1.9-17.1-2.8-25.8-2.8-18.1,0-36.3,4.1-52.6,11.9-1.6.7-3.1,1.5-4.6,2.3-11.9-5.4-26.7-9.2-44.8-9.2s-13.7.6-18.8,1c-1.9.2-4.5.4-5.3.4-1,0-2.1,0-3.1.1,0,0,0,0-.1,0-2.8,0-8.9-1.1-14.3-2.1-8.8-1.6-19.8-3.6-32.2-4.1-.5,0-1.1,0-1.6,0-2.7-.1-5.9-.2-9.3-.2-19.3,0-35.1,3.5-47.9,9-17-7.7-35.4-12.3-54.1-13.4-.5,0-1,0-1.6,0-2.3-.1-4.6-.2-6.9-.2-17.8,0-35.6,3.4-51.5,9.8-7.1,2.9-13.8,6.3-20,10.3-1.6-1.3-3.2-2.6-4.8-3.9-19.3-14.5-43.5-22.5-68.2-22.5s-50.4,8.5-70,23.4c-9.5-3.3-19.5-5-29.6-5s-10.5.5-15.7,1.4c-.3,0-.7.1-1,.2-19.9,3.9-37.6,14.1-51.2,29.2-12.1-5.1-23.2-6.5-31.8-6.5s-5.3.1-7.9.4c-15-10.4-32.6-16-50.5-16s-32.6,5-45.7,13.6c-2.3,0-4.6.2-6.8.5-17.6-15.8-39.7-24.5-63-24.5s-19.8,1.6-29.4,4.7c-.7.2-1.5.5-2.2.8-23.3,8.4-41.7,23.6-53.3,43.9-10.8,18.9-14.7,40.6-11.3,63,.2,1.3.3,2.7.6,4,.7,3.8,1.4,7.2,2,10.1.4,1.9.9,4,1.1,5.3.3,3.5.4,7.8.6,12.4.1,4.1.3,8.7.6,13.4.9,19.7,2.3,39.5,3.7,58.6,1.5,21.8,3,42.4,3.8,62.9,0,.2,0,.4,0,.6.3,5.4.5,11,.6,16.9.3,8.3.6,17,1.1,26,0,.1,0,.3,0,.4,1.3,19.4,4,42.4,14.4,65.4.4.8.7,1.6,1.1,2.3,4,8.1,8.5,15,13.2,20.9-2.8,8.4-4.9,17.4-6.3,27.1-2.7,19.3-2.1,37.9-1.7,50.2,0,0,0,.4,0,.6.3,7.6.7,15.1,1,22.3.4,8.4.8,16.4,1.1,24.3,0,.9-.3,2.6-.7,5.1-7.2,41.4,6.9,69.4,20.6,85.9,21.7,27,55.1,43.7,87.6,43.7h0c28.6,0,54.8-12.6,72.7-34.4,11.2,4.2,22.8,6.3,34.4,6.3,2.2,0,4.3,0,6.5-.2,2.6,3.6,5.3,7,8.1,10.1,17.4,19.7,39.4,32.4,63.6,36.6.4,0,.8.1,1.2.2,5.9.9,11.9,1.4,18,1.4,22.5,0,45.6-6.3,66.7-18.2,5.3-3,10.5-6.3,15.3-9.9,5.5,1.1,11.1,1.8,16.8,1.8,4.2,0,8.3-.3,12.4-.9,10.4,13.1,21.5,25.2,33.2,36.1,25.8,24.4,50.9,29.5,67.5,29.5,19.6,0,38.6-7.1,53.4-20,4.5-3.9,8.5-8.2,12.1-13,10.2,4.3,21.2,6.5,32.6,6.5,19.2,0,37.5-6.5,52.7-18.4,6.8,1.5,13.9,2.3,21,2.3,20.5,0,41-6.3,61-18.8,26.2,38.1,61.9,42.9,78.3,42.9h0c7.9,0,15.9-1,23.8-3.1.8-.2,1.5-.4,2.2-.6,17.3-5.1,32.4-14.4,44.2-27,.3,0,.6.1,1,.1,5.3.9,10.8,1.3,16.3,1.3,12.9,0,25.6-2.4,37.4-6.9.3.2.6.3.9.5,12.6,7,26.7,10.7,40.8,10.7,24.4,0,47.2-10.6,64.2-29.9,1.6-1.8,3-3.5,4.4-5.3,9,2.7,18.1,4.1,27.3,4.1,31.9,0,71.5-18.2,86.8-69.4.2-.7.4-1.3.6-2,10.5-39.3,3.5-82.6-18.8-115.7Z"/>
  <path class="cls-1" d="M955.7,598.3c-4,4.5,3.4,23.9,4.4,30.5,4.8,19,1.5,42-19.3,48.1-19.3,5-29.5-13.5-35-28.9-5.2-13.9-7.6-28.7-7.3-43.5.2-33.5-2.3-66.9-6.8-100-2.8-21.1-6-42.2-9.1-63.3-1.6-10.8-3.3-21.6-4.6-32.4-2.5-17.3-3.4-35.6,16.6-40.5,10.9-2.7,22.6-2.5,33.8-1.9,32.6,2.1,58.9,19.4,67.2,51.6,6.4,24.8,4.1,53.4-9.8,75.3-4.1,6.3-10.6,14.3-10.6,20.7,0,11.1,11.2,17.9,18.3,25,19.8,18.5,38.2,39,53.1,61.7,5.9,9.4,10.1,21.6,4.6,31.8-6.1,11.5-21.4,17.9-34.3,15.5-30.1-4-50.3-52.5-60.7-49.7h-.2ZM930.7,425.2c-5.7,5.2-.3,22.7,1.5,30.7,2.1,7.6,4.6,19.3,11.3,23.2,3.1,1.5,5.8-1.1,7.3-3.8,2.9-5.7,3.7-13.1,2.7-21-1.1-8.6-5-17.1-10.6-23.5-3.1-3.5-8.2-8.1-12.1-5.7h0Z"/>
  <path class="cls-1" d="M1129.1,582.7c-5.1,3.3-4,14.5-4.6,20.3-.3,10.7-1.5,21.5-5.2,31.5-3.3,10.1-13.1,23.3-24.9,16.6-4.2-2.3-7.9-7-10.9-12.5-4.3-7.8-7.5-16.5-10.6-24.9-19.5-52-38.6-104-57.4-156.2-4-11.2-7.8-22.5-10.9-34-4-15.4-8.2-34-.9-48.5,5.3-10.8,17.2-13.7,26.9-6.3,16.4,13,19.1,36.8,24.6,55.8,2.3,7.9,4.6,18.3,10.5,21.2,5.6,1.9,8.9-9.4,10.1-15.2,4.7-20.4.2-45.3,11.5-63.6,7.1-11.5,22.1-14.7,33.8-8.2,11.1,5.8,17,18.1,18.5,30.2,4.1,30.7-12.7,58.9-23.1,86.8-10.6,28.6,15.7,30.1,36,36.7,20.4,6.1,41.9,14,54.3,32.1,11.2,16.7,14.3,38.8,9.2,58-7.6,25.2-24.7,22.9-43.4,8.5-8.6-6.4-16.9-13.3-25.2-19.8-4.6-3.3-12.8-11.1-18.4-8.6h0Z"/>
  <path class="cls-1" d="M373.9,282.5c-5.1,4.6.7,22.9,2.1,30.1,3.3,13.8,6.4,27.7,7.5,41.8,1.4,14.7-2.3,33.7-17.9,38.6-13.7,4.5-25.3-3.2-29.3-16.5-1.5-4.7-2.3-9.8-2.8-14.9-4-39.2-5.8-78.7-9.4-117.9-2.5-28.3-8.6-56.7-5.8-85.3,1.1-15.1,9-33,24.6-19.5,7.4,6.8,12.1,16.5,16.6,25.5,8.2,16.8,15.5,34.2,25.5,50,3.4,5.4,7.5,11.7,12.1,15.8,4.5,4,8,4,9.4-2.2,1.7-10-.2-21.3-.7-31.6-1.1-23.3-6.4-80.3,23.5-86.2,7-1.3,14.6,2.1,19.4,7.8,11,13.3,11.4,32.5,12.6,49.1,2.3,45.1,4.6,90.3,6.8,135.4.3,9.1.8,18.1.4,27.2-.4,33.1-19.5,44.5-42.6,18-12.6-15.2-22.9-32.5-34.1-48.7-3.1-4.2-12.5-19.1-18-16.7h0v.2Z"/>
  <path class="cls-1" d="M233,559.3c-4.8,4-3.6,12.5-3.2,18.5.9,8.5,2.4,17.2,2.5,25.8,0,7.6-.9,15.6-4.7,22.3-12.9,21.6-40.8,10.6-53.6-5.8-7.4-8.7-7.6-19-5.8-29.5,1-6.2,2-12.5,1.7-19.1-.5-15.7-1.5-31.4-2.1-47.1-.7-21.2-1.9-56.8,16.1-71.1,13.4-10,31.4-1.6,41.8,9.7,5.4,5.8,9.6,12.6,13.5,19.7,3.1,5.1,9.4,19.5,16,16.1,3.1-1.4,5.9-10,7-16.1,2.4-12,4.3-24.4,9.8-35.5,13.6-26.3,34.4-19.6,44.1,5.3,1.5,3.5,2.7,7.2,3.8,10.9,7.8,28.5,13.3,57.7,17.5,87,1.3,9.7,2.4,19.7,1.7,29.5-1.3,23.4-18.2,37.4-40.2,25.6-13.5-7.4-23.1-20-34.3-30.3-6.4-5.8-22.8-21.3-31.6-15.8h0Z"/>
  <path class="cls-1" d="M624.2,393.4c15.5-.2,30,5.3,42.8,14,5.1,3.3,10,7.4,15.5,10,8.2,4.4,16.8,3.3,24.3-2.6,13.5-10.2,25.3-26.7,43.2-28.9,21-1.8,29.7,23.4,24.6,41-2.3,9.1-7.3,17.3-13.5,24.3-3.3,3.7-6.9,7.1-10.6,10.4-8.5,7.2-19.5,14.5-21.6,25.6-2.1,10,2.2,20.8,5,30.4,8,26.5,12.4,54.1,13.4,81.7.3,11.2.3,22.3-1.4,33.4-1.4,9.4-3.9,19.2-9.1,27-11,16.2-26,11.2-32.9-5.4-2.5-5.7-4.1-11.9-5.6-18-7-31.3-13.6-62.9-21.2-94.1-4.6-17.9-10.4-36.5-22.3-50.9-12.7-16.1-34.4-20.8-48.8-34.9-1.8-1.7-3.4-3.6-4.9-5.6-17.5-24-10.4-57.2,23-57.5h.2Z"/>
  <path class="cls-1" d="M1083,248.8c-3.7,4.9-.6,14.2.2,20.2,2.7,14.3,7,28.8,5.9,43.5-.8,14.4-12.3,26.1-27,25.5-16.2.4-26.4-11.5-27-26.8-.5-44.7,5.4-89.4,5.6-134.1.9-19.6-1.5-40.3,2.9-59.3,2.7-9.2,8.6-15.4,16.8-10.7,7.5,4.6,11.7,14.2,15.2,22.2,3,7.6,31.3,80.5,41.6,55.8,4.1-16.7,3.3-34.8,6.6-51.7,2.5-14.2,7.3-32.5,22.6-37.4,20.4-3.3,21.5,25.3,23.4,39.8,1,8.9,2.2,17.8,3.6,26.7,4.8,41,22.9,101.5,7.6,140-12.5,25.4-36.6,2.1-50.5-10.1-10.1-9-19.8-18.5-28.9-28.6-5.2-5.2-13.2-16.7-18.6-14.5h0v-.3Z"/>
  <path class="cls-1" d="M1021.6,220.2c-1.3,28.1-5.4,57.4-20.6,81.6-27.6,44.3-88.3,50.6-111.5-1-8.7-18.9-9.5-40.4-8.3-61,2.9-42.6,17.8-86.6,49.1-116.5,6.4-6,13.2-12.2,21.1-15.9,10.1-4.9,22.2-6.4,33.3-3.9,21.4,4.3,28.9,22.8,32.5,42.5,4.5,24.4,5.2,49.4,4.4,74v.2ZM953.9,176.1c-13.7-.3-13.9,62.4-12.8,74,.8,8.2,1.2,23.4,7,28.7,7.6,4.4,13.3-17.4,15-25.6,4.1-20.4,5.2-42,.2-62.3-1.6-5.2-4-13.5-9.3-14.9h0Z"/>
  <path class="cls-1" d="M531.5,539.4c12.5,0,20.4-14.1,35-6.7,5.6,2.7,10.9,8.6,14.9,11.9,2.4,2.1,6.4,4.7,8,.3,1.1-2.6,1.6-7.4,2.1-13.1.7-7.5,1.8-15.2,4.7-22.2,4.5-11.5,17.8-25.5,30.2-18.5,11.7,7.9,8,34.1,9.7,47.2,3.4,42.5,7.4,85.3,3.4,127.9-.6,6-1.5,12.5-3.4,18.1-6.5,19-21,11.9-32,1.5-13.4-12.5-25.2-26.3-35.8-41.2-5-7-9.8-14.3-14.7-21.3-4.6-6.1-12.8-20.4-21.2-13.1-4.6,4-9.1,14.9-15.1,18.9-7.5,5.8-16.4.7-21.4-6.4-4.7-6.3-8.2-13.9-11.3-21.1-12.7-30.6-22.8-62.6-31.1-94.6-2.8-13.3,3.5-26.1,17.9-27.4,12.6-1.2,22.7,8.4,29.1,18.3,5.8,8.4,10.6,17.5,15.5,26.4,3.6,6,7.9,14.4,15.4,15.4h0Z"/>
  <path class="cls-1" d="M680.6,97.9c11.9.6,23.8,4,34.3,9.7,17.6,9.3,27.7,27.3,33.2,46.1,4.1,14.7,9.2,33.6,2.7,48-5,10.2-15.1,9.7-23.3,1.9-6.3-5.8-10.7-13.4-15.8-20.5-5.8-7.8-11.9-15.7-20.8-17.8-8.8-2.1-15.6,6-16.2,14.7-.9,9.9,3.1,19.1,9.4,27,13.3,16.8,34.8,25.8,48.9,41.9,12.5,13.8,20.6,33.6,14.3,51.8-10.6,28.9-43.4,46.4-73.5,44-20.1-1.4-38.7-14.1-47.1-32.5-6.5-12.5-10-39.2,10.6-36.8,13.7,1.1,38.4,22.5,50.1,10.3,4.2-7-5-14-11.7-17.4-11.2-5.5-24.5-8.2-35.2-14.9-20.4-11.4-26.4-36.8-25.7-58.7.2-9.4,1.4-18.8,2.8-28.2,1.3-8.3,2.1-16.9,3.8-25.2,1.6-8.5,4.5-16.9,9.8-23.9,11.2-14.7,31.4-20.5,49.5-19.5h.2,0Z"/>
  <path class="cls-1" d="M132.6,142c-3.2-15.4,3.6-27.2,18.5-32.6,16.9-5.5,30.5,8,33.9,23.8,2.5,9.4,1.5,21.4.7,30.6-.4,5-.4,8.4.4,9.3,2.4,2.1,9.9-11.8,11.9-14.3,6.4-9.9,15.1-20.8,25.9-25,14.3-5.7,23.5,4.2,24,18.1.5,23.6-10,45.9-21.1,66.3-10.8,19.8-25.6,35.7-10.3,58,4.1,6.4,9.2,12.3,13.4,18.5,8.3,12.2,15.2,25.2,21.6,38.6,6,13.1,11.9,26.4,14.3,40.6,2.2,11.5-.2,29.6-15.5,26.6-11.1-2.4-21.6-14.5-29.5-23.2-7-8-13.7-16.3-19.8-25-5.2-6.6-20.1-32.8-20.8-13.9-.6,17.3,10.3,62.1-7.9,71.4-7.6,2.3-13.1-4.6-17.1-12.5-5.8-12.8-7.4-27.2-8.3-41.2-.9-14-1-28-1.7-42-1.6-40.8-5.7-81.9-7.6-122.5-.6-9.9-.5-20-1.5-29.9-.9-7.1-2.7-13.5-3.7-19.5v-.2h0Z"/>
  <path class="cls-1" d="M588.3,288c-9.4,13.2-1.1,34.2-9,50.3-9.3,20.4-39.2,29.5-59.6,21-21.4-9.5-32.2-33.1-39.8-54-14.6-37.6-8.4-78.6-1.9-117.1,1.8-12.7,3.2-25.6,5-38.4,1.8-13,4.2-26.6,11.2-37.8,12.5-21.5,43.6-27.1,63.5-12.2,16.7,12.5,22.9,34,27.8,53.4,3.3,16.2,7.4,35.6,1.5,51.5-7.7,16.7-23.9,8.8-30.7-4.3-6.9-10.2-11.5-38.3-25.2-39.3-10.6,1.2-13.5,19.8-15.1,28.6-4,24.9-2.1,50.4,4,74.8,2.1,8,3.9,16.7,7.5,24,2.1,3.8,3.8,6.1,6.9,7.4,3.9,1.4,6.8-1.6,6.7-6.9.3-13.1-18.5-26-10.3-39.4,6.4-8.3,18.5-8.6,29.7-8.8,12.3,0,26,.5,36.5,5.7,8.7,3.9,17.4,14.3,11.5,23.8-4.5,7-15.2,10.8-20,17.6h-.2Z"/>
  <path class="cls-1" d="M879.3,523.2c-.9,39.3-7.1,77-37.7,104.5-7,6.5-14.3,12.5-22.3,17.6-35.6,22.5-53.5-4-59.1-37.7-6.5-39.2-.3-80.5,14.3-117.5,6.6-15.7,15.7-32,30.5-41.1,14.2-8.1,33.2-10.9,48.3-4.8,24.5,11.7,25.4,55,25.9,78.8v.2ZM813.4,594c5,1,8.2-5.6,10.1-9.7,4.6-10.9,6.4-23,6.4-34.9-.3-7.5-1.3-16.7-7.2-21.6-8.1-5.2-13,7-14.4,13.9-2.2,9.8-5,48.1,5.1,52.2h0Z"/>
  <path class="cls-1" d="M408,517.1c6.6,7,30.7-2.5,38.8,16.1,5.1,13.4-7.1,24.7-17.5,31.4-22,14.8-11.1,20.4,10,20.7,8.8.3,18.4,1.6,25,6.1,12.2,7.6,11.8,23.4,4.1,35-12.9,19.6-40.8,34.5-64.1,30.9-35.7-6.2-49.4-68.4-52-99.1-1.6-24-1.4-48.2,0-72.3,1.7-26.8,11.9-34.4,37.3-39.2,12.3-2,24.6-2.5,35.4,3.4,11,6.3,12.6,18.5,7,29.1-4.2,8.7-11.4,15.8-17.5,23-2.9,3.9-8.8,10-6.3,14.7h0Z"/>
  <path class="cls-1" d="M794.6,102.6c18.2.9,35.6,7.2,53.9,6.2,14.7-.2,34.5-5.7,45.9,6.4,8.9,11.3,1.7,28-8.4,36.3-15.4,12.2-31.9,12.2-32.3,36.3,1.2,32.6,2,65.3,1.9,98.1-.2,12,.5,25.9-7.6,35.6-6.4,7.5-16.7,11.1-26.4,11.2-11.2,0-18-6.7-19.5-17.1-.9-5.6-.7-11.8-.3-17.6,2.6-29.5,6.4-58.7,9.1-88.2.7-10.4,2.9-22.2-.7-32.1-3.3-8.8-12.3-9.7-20.9-9.6-9.6.3-20.4-.4-27.2-8-9.9-10.5-13.6-33.7-5.8-45.9,8.2-12.2,24.7-12,38-11.5h.2,0Z"/>
  <path class="cls-1" d="M318.4,314.3c-.6,13.3-2.2,26.3-4,39.8-2.4,15.1-3.7,32.9-15.4,43.8-8.8,7.7-19.1,3-23.8-7.6-3.1-6.4-4.5-14.3-5.5-21.6-3.6-28.1-4.8-56.6-4.4-84.9.7-42.2-1-84.4-3.2-126.5-.5-7.9-2-16.3-1.4-24,.9-15.8,15.4-18.9,26-9.6,12.3,11.2,15.3,31.8,19.4,47.7,10.6,46.8,13.1,94.8,12.1,142.7v.2Z"/>
</svg>