<?xml version="1.0" encoding="UTF-8"?>
<svg id="Layer_1" data-name="Layer 1" xmlns="http://www.w3.org/2000/svg" width="786.9" height="626.6" version="1.1" viewBox="0 0 786.9 626.6">
  <defs>
    <style>
      .cls-1 {
        fill: #000;
        stroke-width: 0px;
      }
    </style>
  </defs>
  <path class="cls-1" d="M675.5,543c-42.7,2.1-86-17-126.8-5.6-14.1,4-25.4,11.3-37.8,20.2-54.6,42.4-107.4,88.2-155.8,60.3-21.8-11-44.6-35.2-61.8-55.8-12.2-14.2-23.7-29.9-39.2-39.9-51.3-34.3-117,14.3-173.2-4-9.9-3.1-19.2-7.9-27.6-13.9-60.2-43.9-71.3-150.3-21.4-208.9,11.1-14,23.9-26.7,36.2-39.7,36-36.3,29.1-58.7,34.8-104.2,3.6-28,20.7-45.9,46.3-56.4,27.4-11.9,61.1-9.3,86.6-22.8,17.8-9.3,30-26.5,44.9-39.6,23.3-20.4,55.7-35.5,86.9-31.5,16.3,2.2,30.3,11.2,43,21.3,15.1,11.9,29.5,25.9,46.8,34.3,11.4,5.6,23.9,8.6,36.7,10.3,63.2,7.4,129,1.8,189.8,20.9,21.7,6.7,42.3,16.7,59.8,31.6,74.7,60.5-4.8,129-4.3,205.2.6,13.9,5.5,26.1,12.1,39,3.9,7.6,8.5,15.4,12.5,23,48.3,89.2,8.4,152.8-88.2,156.2h-.2ZM118.5,179.3c4.8,108.6-135.7,123.1-91.4,249,34,94.5,78.3,73.1,156.1,61.4,36.5-5.2,74.9,4.1,103.9,30.7,18.9,15.7,31.6,34.8,46.3,53,54.1,66.8,111.3,5.9,166.8-35.3,79.1-64,172.7,21.7,244.1-38,10.5-9.1,18.9-21.8,20.9-35.3,5.7-42.8-33.8-78.1-44.6-116.5-24.7-110.2,131.5-204.9-75.7-245.7-37.4-7-82.1-9.9-127.9-12.3-18.1-1.1-36.2-2.7-53.2-8.6-59-18.7-93-92-154.2-48.6-6.7,4.6-13.1,10-19,15.5-15.5,14.7-26,30-45,39.7-59.2,28.2-129.1,7.3-127.2,90.8v.2Z"/>
  <path class="cls-1" d="M257.4,393.9c-4.9.2-9,4.4-13.4,6.2-12.7,5.8-23.3-1.8-35.1-6.2-8.1-2.8-13.5,3.4-18.3,9.6-5.1,6.1-11,12.5-18.1,15.1-13,4.8-27-4.7-30.9-17.3-4.2-10.7.4-20.2,5.4-29.8,3.3-6.7,6.7-13.4,10.1-20,4.9-9.3,9.3-19,16.1-27.1,7.7-9.4,20.1-17.5,32.4-12.2,8.2,3.3,14,9.4,20.7,15.3,3.4,2.9,7.2,6.5,11.7,7.3,3.9.7,8-1.1,12.2-3.5,5.9-3.4,11.6-7.2,18.1-9.4,23.5-9.1,39.5,12.5,45.9,32.3,3.5,10.2,6.8,20.6,9.8,31,2.2,7.6,4,15.9,2.1,23.6-2.8,12.8-15.9,15-26.5,10.2-10.5-4.8-19.9-12.3-29.3-18.7-3.8-2.6-7.8-6.3-12.7-6.2h-.2Z"/>
  <path class="cls-1" d="M248.5,263.7c-2.5.2-3.9,3.9-4.9,6-3.1,6.6-6.4,14.1-11.4,20-8.1,10-20,11.4-27.7-.2-5.1-7.6-7.2-16.8-8.7-25.7-2.8-19.3-4.9-38.7-7.1-58.1-.9-7.5-1.4-15.8,3.7-21.9,3.2-4,7.4-7.3,11.5-10.4,10.9-8.5,25.7-14.4,37.2-4.6,2,1.6,3.8,3.6,5.5,5.7,3.2,4.1,7.2,10.5,12.3,5.8,7.2-6.9,15.1-16.4,25.3-16.3,13.1.3,18.3,15.8,21.1,26.7,6.3,25,7,50.6,2,76-1.9,9.2-4.9,18.5-11.4,25.5-7.1,8-17.4,8.2-25.1,1.3-7.3-6.5-12.1-15.6-16.9-23.9-1.2-2-2.8-5.5-5.3-5.7h0Z"/>
  <path class="cls-1" d="M501.5,211.5c2.9-1.2,3.7-5.4,4.5-8.3,3-11.5,5.1-23,10.8-33.4,5.2-9.6,16.8-10.7,22.8-1,1.8,2.9,3.1,6.3,4.1,9.7,6,24.1,8.4,49.2,7.9,74.1-.8,26.7-10.7,46.5-39.7,31-7.5-3.3-16.5-12.4-18.1,1-1.5,13-9.5,24.8-24.3,21.2-6.9-1.6-13.5-5.9-17.9-11.3-5.6-6.6-7.6-15.6-9.1-24-4.2-24.9-9.3-49.7-12.6-74.7-.6-6.2-.9-13.1,1-19.1,3.4-11.3,14-11.6,22.7-6.2,12.2,7.8,21.6,19.3,32.1,29.2,3.4,2.9,11.4,13.2,15.7,11.7h.1Z"/>
  <path class="cls-1" d="M637.2,355.1c1.1,4.5,7.4,7,9.5,11.3,3.1,4.9,1.8,11.1-1.8,15.4-2.5,3.2-6.6,5.9-8.4,8-2,2.1-.8,3.9,1.8,4.9,8.7,3.2,18.3,5.7,25.5,12.1,9.9,8.6,7.5,20.4-3.6,27.3-5.4,3.5-11.7,5.4-17.9,7.2-8.7,2.4-17.5,4.7-26.3,6.7-19,4.5-40.1,7.1-52.1-11.5-8.4-13.1-11.7-29.5-13-44.9-1.4-20.5,1.7-42.9,15.9-58.3,6.9-7.8,16.1-13.4,25.6-17.5,6-2.7,12.5-5.3,18.8-6.1,14.1-2.2,34.7,10.4,34.8,25.3,0,4.8-2.6,9.2-5.5,13-1.5,2.2-3.6,4.7-3.4,7.1h0Z"/>
  <path class="cls-1" d="M389.3,403c-3.5,1.5-4.3,6.8-5.5,10.3-2.2,6.9-5.6,14.3-11.2,18.8-8.3,6.8-20.1,6.1-29.6,2.6-6.1-2.3-12.8-6-15.4-11.6-2.7-5.6-1.2-12,.4-17.8,3.4-12.2,7.3-24.3,11.6-36.2,3.3-9,6.8-17.9,10.7-26.6,5.4-12,13.5-29.3,27.4-32,24.7-4.1,47.6,33.3,59.3,51.1,7.1,11,14.4,21.9,20.9,33.2,4.7,8.6,10.2,20.6,6.1,29.8-5.1,10.8-20.2,8.8-29.7,4.9-10.3-4-19.7-9.9-28.4-16.6-1.4-1.1-2.8-2.2-4.3-3.3-4.2-3-7.6-7.5-12.1-6.7h0Z"/>
  <path class="cls-1" d="M375,273.7c-4.4,1.5-5.9,7.6-8.1,11.5-3.1,6-7.2,11.5-13.4,14.8-13.5,7.4-31,3-34.3-13.4-1.7-8,.2-17.1,1.7-25.4,2.6-14.1,5.6-28.2,8.4-42.3,3.9-15.4,5.6-45,21.5-52,8.7-3.7,18.6,2.7,24.9,8.9,23.7,26.3,41.3,57.4,56.2,89.4,2.2,5.1,4.3,10.5,4.9,16.1,1.9,17-11.1,22.5-24.9,15.9-7.8-3.6-14.4-9.2-21.1-14.6-4.9-3.5-10.2-10.1-15.6-9.1h-.1Z"/>
  <path class="cls-1" d="M564,226.8c-.4-10.3-1.1-21.3-1.6-31.5-.4-8.9-1.4-18.8-.2-27.9,1.3-13.2,13.3-13.3,25.5-12.6,8.8.7,16.4,2.3,24.4,5.3,54,21.4,38.3,79.5,4.6,112.4-9.3,9.1-33.8,31.1-46.1,18.5-6.3-7.5-5.2-21.6-5.8-31.6-.3-10.9-.4-21.7-.8-32.5v-.2Z"/>
  <path class="cls-1" d="M546.6,372.3c-.5,18.4-8.6,35.7-20.8,49.5-11,13.3-33.6,28.5-44.3,6.4-3.2-7-4.1-14.8-5.1-22.4-2.7-23.3-5.2-46.6-7.7-69.9-.4-4.3-.8-9.2.7-13.2,2.8-6.9,11.1-14.6,17.7-17.2,4.1-1.4,8.5-.7,12.6.5,27.5,8.7,47,37,46.9,65.9v.2Z"/>
</svg>