<?xml version="1.0" encoding="UTF-8"?>
<svg id="Layer_1" data-name="Layer 1" xmlns="http://www.w3.org/2000/svg" width="1080" height="926" version="1.1" viewBox="0 0 1080 926">
  <defs>
    <style>
      .cls-1 {
        fill: #000;
        stroke-width: 0px;
      }
    </style>
  </defs>
  <path class="cls-1" d="M154.6,42.8c66.4-1.5,133.5,62.9,113.3,128.7-14.2,52.8-58.2,61.3-54,101.3,5.7,42.2,57,119.8,23.2,154.2-10.7,9.9-27,10.5-39.7,3.1-21.5-13.5-32.8-36.5-44-59.3-10.1-22.1-19.4-44.3-31.4-65.2C58.8,190.7-27.3,53.7,154.4,42.8h.2Z"/>
  <path class="cls-1" d="M208.9,789.6c.2,1.1,2.3,1.1,6.1.4,2.9-.5,6.9-1.5,11.2-2.5,9.5-2.3,19.4-5,29.2-4.2,19.9,1.4,33.7,19.3,39.2,37.8,2,6.9,2.6,14.4.5,21.3-7.8,25.1-43.4,28.1-66.2,32.2-29.4,3.6-59.2,4.5-82.4-12.3-9-6.9-15.5-16.7-20.5-27-38.9-79.3-46.8-201.3,47.9-225.2,7.4-2,14.8-2.9,21.8-2.5,28,.5,87.1,45,62,74.3-5.4,6.2-13.4,9.7-21.3,11.5-13.5,3.5-28.5,1-41,7.5-10.8,6.2-8.7,15,.9,21,6.3,4.3,15,7.7,21.2,13,9.3,7.3,12.2,20.1,7.7,30.9-2.3,6.5-8.3,13.2-12.5,18-2.5,2.8-3.9,4.8-3.7,5.8h0Z"/>
  <path class="cls-1" d="M538.1,463c3.3,7.2,9.7,12.3,16.1,16.8,30.8,19.5,42.8,63.4,17.1,91.3-8.4,9-19.4,14.7-32.6,19.9-52.3,19.8-107.1,29.9-125.2-38.7-2.7-9.3-5-19.2-7.3-28.4-6.1-25.4-17.2-49.6-21.6-75.1-1.4-10.3,1-19.2,8.3-26.2,20.5-17,51.8-25.6,78.5-27.5,35.3-1.8,65.1,10.1,63.1,49.9.3,6.1,1,12.4,3.6,17.8v.2Z"/>
  <path class="cls-1" d="M962.6,817.4c-8,.6-13.4,8.3-19.6,14.2-6,6.1-12.9,12.2-20,17-31.2,22.4-51.8,0-30.4-41.2,2.6-5,5.5-10,8.7-14.7,6.1-9.9,16.8-20.2,19.4-30.4,6.9-32.1-60.6-67-59.2-107.8,0-7.3,2.3-15.8,6.9-21,12.9-15,37-.5,52.5,15.4,5,4.5,10.5,11.7,17.4,11.1,4.7-.6,8.8-5.1,12.5-8.7,14.4-15.8,36-34.1,53.3-27.2,16,7.3,17.8,28.3,13.9,43.7-5.5,22.8-21.1,46.6-26.3,65.8-.9,3.4-1.4,7-1.1,10.5.6,8.3,6,16,11.4,22.9,4.4,5.5,9.3,11.2,13.7,16.8,15.9,20.6,21.6,40.8,17.9,52.2-2.8,8.8-11.1,12.4-24.6,7.5-8.4-3.2-16.3-8.1-23.6-13.4-8-5.5-14-12.6-22.8-12.7h-.1Z"/>
  <path class="cls-1" d="M400.9,300.2c.8,118.9-127.6,138.6-148.2,34.5-4.7-27.5-3.4-56.2,3-83.4,17.6-75.5,90.8-84.9,126.5-26.4,12.2,18.9,19.3,49.8,18.8,75.1v.3Z"/>
  <path class="cls-1" d="M341.7,753.1c5.9-3.9,5.7-15.3,5.3-22.8-.7-7.4-2.1-14.7-7.6-19.6-11.9-9.6-34.3,4.9-48.6-22-10.4-21.2.6-46.7,18-60.2,18.3-14.9,45.6-20.7,69.7-20.8,23.8.3,65.5,2.4,64.4,33.8-1.1,14.4-9.2,27.8-13.8,41.4-7.4,19.8-6.8,40.2-8,60.9-2.7,35.2-5.5,75.1-34.2,99.1-17.8,14.4-39.6,14.1-57.8.2-17.9-13.2-31.9-35.6-40-56.4-12.4-30.6-14.7-73.1,25.2-47.7,7.2,3.7,20.4,17.7,27.3,14.2h0Z"/>
  <path class="cls-1" d="M861.5,716.3c-1.5,27.3-9.2,54.8-22.8,78.4-14.3,24.5-35.8,46.1-64.4,52.2-98.9,20.6-88.6-133.5-36.9-193,51.8-58.3,129.6-8.6,124.1,62.2v.2ZM775.3,763.5c4.6.8,7.8-4.7,10-9,3.6-7.5,5.4-16.5,5.4-25-.2-9.7-2.1-17.8-6.4-23.2-6.9-7.2-11.5,4.4-13,11-2.3,9.5-6,42.1,3.8,46.2h0Z"/>
  <path class="cls-1" d="M948.2,208.3c5,1.3,11.2-7.1,14.7-12.2,9.3-13.5,20.5-28.3,32.7-39.6,69.8-64,25,171-16.7,238.9-7.5,12.4-21.2,30.9-35.7,32.6-20.4,2.3-27.9-39-20.9-67.9,2.4-13.3,5.6-27.2,3.6-40.5-7.4-40.9-43.7-72.7-59-112.4-6-16.2-1.5-37.6,14.6-45.9,16.5-8.3,36.9,8,50.7,29.2,2.5,3.8,5.3,8.2,7.8,11.5,2.8,3.6,5.5,5.9,8.1,6.3h0Z"/>
  <path class="cls-1" d="M504,333.9c-2.2,17.1-14,27.7-31.1,27.7-15,.5-30.1-6.5-36.9-20.1-2.7-5.1-4.5-11-5.8-16.7-6.7-30-9.8-61.4-16-92-3-13-4.8-29.2-16-37.7-9.5-6.6-21.1-4.7-33.3-7.1-10.8-1.9-20.6-7.1-26.5-16.1-14.2-23.5,8.6-44.3,27.6-56.7,63.2-42.3,191.8-74.1,131,.9-5.3,6.8-11,13.2-15.4,19.5-5,7-8.8,14.8-10.7,23.3-11.2,53.8,38.1,116.5,33.2,174.7v.2Z"/>
  <path class="cls-1" d="M810.5,324.4c-3.7,1.5-6.2,5.7-8.6,9.3-2.8,4.3-5.8,8.9-10,11.9-10.5,7.9-26.6,6.5-36.1-2.7-7.4-7-10.4-17.4-11.5-27.3-4.7-46.6,1.3-96.4,6.9-142.7,1.7-11.9,4.4-24.6,10.9-34.8,23.1-37.8,82.9-4.5,88.8,35.5,2.2,13-1.5,25.8-5.5,38.3-2.8,9.2-7.3,22.2-6.2,29.6,1.6,7.6,7.7,9.4,15.6,15.5,7.3,5.3,14,10.7,20.6,17.2,13.6,13,25.2,29.1,27,48,3,34.5-38.4,28.5-69.6,10.3-6.5-3.4-15.3-10.4-22.1-8h0Z"/>
  <path class="cls-1" d="M649.7,789.1c-3.9,7.2-4.1,16.1-4.8,24.2-.8,19.4-14.8,33.1-34.7,35.4-11,1.5-23-1.2-29.9-9.7-4.2-4.9-6.7-11.5-8.6-18.4-10.7-40.3-17.2-85.9-18.5-128.9-.2-12.2.8-24.7,5.4-36,10.3-26.4,41.2-38.1,68.6-37.6,26.2.3,55.2,10,70.5,31.8,6.7,10.1,8.8,22.7,1.8,32.4-8,10.6-21.7,12.2-36.2,13.6-6.8.6-14.1,1.3-20.6,3.4-8.2,2.6-12.3,7.7-1.4,11.7,7.2,2.7,16.6,4.2,23.4,8.5,16,8.9,17.3,32.2,7.1,46.1-6.3,8.6-17.2,13.7-22,23.3h0Z"/>
  <path class="cls-1" d="M550.8,110.5c10.2-2.4,20-5.9,30.3-9.7,6.2-2.3,12.5-4.4,18.9-6,49.5-12.7,78.9,8.3,51.6,37.4-7.5,7.9-16.8,14.7-26,20.4-7.3,4.5-14.5,8.2-19.9,12.5-19,14.3-13,40.8-11.4,61.5,4.3,40.3,4.4,92.8-19.9,127-22.4,29.9-38.4-4.1-42.4-26.8-6.8-38.2-2.4-77.2-.4-115.7.1-6.6-.8-13.4-6.8-16.5-8.8-4.4-20.6-1.9-28.7-8-19.4-14.3,3.6-62.7,33.2-70.8,7.1-2.4,14-3.5,21.4-5.4h.2Z"/>
  <path class="cls-1" d="M577.7,403.1c10-16.5,17.5-15.3,29.7-1.6,7.5,8.1,15.4,20.5,22.1,27.1,3.2,3.2,7.7,6.1,12.3,4.3,4.9-1.4,11.4-8.9,16.3-14.2,18.5-19.4,43.5-37.8,55.7-10.6,32.5,78.5-106.3,311.4-98.5,140.3.5-11.1,1.6-20.8-.7-31.2-1.8-8.7-7-17.2-12.9-24.3-27.9-33.4-49-49.9-24.1-89.8v-.2Z"/>
  <path class="cls-1" d="M687.6,286.1c.9,2.8,10.7,2.9,15.2,3.9,4.7.7,9.7,1.6,14.2,3.1,30.5,9.2,17.6,33.5-2.4,49.1-41.8,31.4-91.3,32.3-97.5-26.6-.7-5.5-1.2-11-1.5-16.4-3.9-77-10.7-156.7,74.8-164.6,10.8-1.3,23-2.1,33.5-1.2,4.5.4,8.5,1.1,11.7,2.4,6.1,2.1,9.2,7.6,9,13.8,0,10.2-5.2,25-11.6,34.7-7.8,12.4-21.1,16.2-34.6,19.1-7.9,2.1-18.2,4.1-17.9,11.1,1.8,8.8,16.8,15.7,23.8,21.2,21.5,14.8,11.3,27.3-3.9,38.7-3.2,2.8-12.6,8.4-12.7,11.8h0Z"/>
</svg>