<?xml version="1.0" encoding="UTF-8"?>
<svg id="Layer_1" data-name="Layer 1" xmlns="http://www.w3.org/2000/svg" width="454.1" height="368.2" version="1.1" viewBox="0 0 454.1 368.2">
  <defs>
    <style>
      .cls-1 {
        fill: #000;
        stroke-width: 0px;
      }
    </style>
  </defs>
  <path class="cls-1" d="M187.7,368.2c-35.1-1.1-69.3-5.8-101.5-20-11.5-5.1-22.9-11.1-33-18.5C13.1,300.5-3.6,260.2.7,211.4c4.8-54.1,30.7-97.9,69.9-134.1C108.2,42.5,153.3,21.8,202.8,10.4c14.9-3.4,29.9-6.4,45-8.9,19.7-3.2,39.4-1,58.3,4.7,76.2,23.3,126.2,72.6,144.3,150.9,10.4,45.3-1.1,86.5-30.9,122.3-15.6,18.7-34.8,32.9-56,44.5-36.7,20-76.1,31.9-117.2,38.1-19.4,2.9-39,4.1-58.5,6.1ZM187.3,349.1c12.9-.9,25.9-1.4,38.8-2.9,42-4.9,82.5-15.3,120.5-34.2,21-10.5,40.2-23.7,55.9-41.4,27-30.4,36.5-65.9,29.9-105.8-5.2-31.4-19.4-58.7-40.5-82.3-43.4-48.6-97.8-68.4-162.3-60.2-9.9,1.3-19.7,3.6-29.3,6.1-48.4,12.4-91.7,34.2-126.7,70.4-30,31-50,67.3-54.7,110.8-4,37.2,5.5,70.1,33.3,96.3,13.5,12.8,29.5,21.7,46.8,28.2,28.4,10.7,58,14.8,88.3,14.9Z"/>
  <path class="cls-1" d="M287.4,99.8c.5-2.6.7-4.6,1.3-6.5,3.3-10.1,12.8-14.1,22.3-9.3,1.5.7,2.9,1.7,4.2,2.7,45.4,35.6,62.3,92.9,46.6,142.8-4.3,13.5-10.6,26-20.8,35.9-11,10.7-23.8,17.1-39.8,13.1-9.5-2.4-16.6-8.1-22.4-15.8-6.9-9.3-10.7-19.9-13.1-31-5.4-24.4-4.4-49-1.1-73.5,1.7-13.2,4.7-26.2,7.1-39.3,1.7-9.4,5.2-17.4,15.7-19ZM301.7,116.3c-1.1,5.1-2.1,9.3-2.9,13.5-5.6,26.8-9.1,53.7-6.9,81.2.9,11,2.8,21.8,8.4,31.5,5.6,9.7,12.1,10.8,19.8,2.5,4.4-4.8,8.2-10.5,10.9-16.5,16.2-36.6,3.7-85.8-29.2-112.1Z"/>
  <path class="cls-1" d="M216.9,210.6c-10.1,2.3-19.1,4.9-28.2,6.4-18.2,3-31.3-6-35.4-24-1.2-5.1-2-10.6-1.7-15.8,1-16.9,2.6-33.8,4.1-50.7.2-2.6,1.1-5.2,2.3-7.6,2.7-5.2,7.7-7.7,13.2-7,5.5.7,9.4,3.8,10.7,9.1.9,3.8.8,7.9.5,11.8-.9,14.6-2.3,29.2-3.1,43.8-.2,4.1.9,8.3,1.5,12.9,12.9-.8,23.6-5,34.6-9.5-.6-12.5-1.2-24.4-1.6-36.3-.3-8.7-.3-17.3-.5-26,0-1.7,0-3.3.1-5,.9-7.5,5.7-12.7,12.5-13.5,6.9-.8,13.6,4,15.2,11.7,1.3,6.2,1.7,12.5,2,18.8,2,42.2,4,84.5,5.8,126.7.2,5.3,0,10.7-1.2,15.8-1.5,6.7-6.9,10.4-12.9,10.5-6.1.1-11.4-3.3-13.4-10-1.3-4.4-1.7-9.1-2-13.7-1-15.9-1.7-31.9-2.6-48.5Z"/>
  <path class="cls-1" d="M130,267.5c.6,3.5,1.4,6.4,1.6,9.4.5,6-2,10.2-6.1,11.2-4.3,1.1-9.4-1.5-10.1-7.3-1.2-10.2-7.3-14.4-15.8-17.8-4.2-1.6-7.9-5-11.3-8.1-4.1-3.9-4.3-9.1-1.2-12.5,2.8-3.1,7.2-3.3,11.9-.6,1.4.8,2.7,2,4,2.9,1.1.7,2.2,1.2,5.2,2.8-4-14.4-3.4-28-12.9-39.4-4.9-5.9-7.4-14-10.2-21.4-2.7-7.2-1.3-14.3,2.7-21.1,1.4-2.3,2-5.4,2.1-8.2.2-7.3,2.1-10.9,6.8-11.6,4.7-.7,7.9,1.7,10,9,1.2,4.2,3.2,6.9,6.9,9.1,3.4,2,6.5,4.7,9.1,7.7,5.4,6.3,3.2,12-5,13.5-1.2.2-2.4.2-4.3.3,1.6,8.1,2.8,15.6,4.7,23,.7,2.7,3,5.1,4.9,7.3,3.2,3.8,6.8,7.3,9.9,11.3,12.2,15.8,11.5,26.3-2.9,40.6Z"/>
</svg>