<?xml version="1.0" encoding="UTF-8"?>
<svg id="Layer_1" data-name="Layer 1" xmlns="http://www.w3.org/2000/svg" width="1281.9" height="472.6" version="1.1" viewBox="0 0 1281.9 472.6">
  <defs>
    <style>
      .cls-1 {
        fill: #000;
        stroke-width: 0px;
      }
    </style>
  </defs>
  <path class="cls-1" d="M19.3,251.7c-1.5-92.4,51-191.8,139.4-222.3,26.1-9.2,56.4-11.6,82.5-2.2,50.9,18,59,72.7,32,115.4-12.5,20.9-32.5,36.9-51.7,52-12.9,10.5-51.2,40.1-28.3,51.2,10.5,4.4,28.7,2,42.7.3,26.6-4,59.3-7.9,82.1,7.8,34,23.3,36,72.8,26.1,110.5-48.3,165.7-254.4,103.4-309.7-31.2-10.5-25.8-14.9-53.5-14.9-81.3v-.2Z"/>
  <path class="cls-1" d="M966.8,294.6c11.7-5.4,4.4-34.7,2.4-48.3-1.7-9.5-3.5-19-4.6-28.6-6.7-67.9,18.8-154.2,84.9-184.2,27.8-12.2,60.8-9,87.8,4.7,65.5,31.7,110.1,130,118.5,200.3,1.5,20.7-1.9,43.2-16.8,57.7-37.9,32.4-80.9-20.6-117.2-48.5-53.8-43.2-53.8-7.1-31.2,37.4,34.1,65.9,62.1,108-8,145-35.1,18.3-78.5,24.9-118.1,17-141.1-22.7-201-279-43.4-173.2,12.6,7.9,33.4,24.8,45.6,20.8h0Z"/>
  <path class="cls-1" d="M483.9,226.6c1.8.2,3.2-3.2,4.2-9.8,6.8-58-7-156.6,38.9-180.9,30.7-12.5,56.5,20.1,66.3,46,29.7,79,24.3,167.2,14.3,249.9-5,46.7-18.9,98.5-66.8,116.2-61.9,23-121.7-4-148.8-63.8-41.1-84.8-42.5-181.1-45.3-273.9-.3-25.1-2-52.9,9.9-75.3,14.8-28.2,51.4-27.3,72.6-6.6,36.7,36.9,33.4,94.1,40.8,144.7,2.6,16.1,5.5,47.3,14,53.6h0Z"/>
  <path class="cls-1" d="M801.1,246.9c-16.3,27,.2,63.1,3.1,93.5,5.6,36.8-.8,80.6-38,97.3-23.3,10.6-53.7,6.7-70.6-13.4-17.8-20.7-18.5-52.3-20.2-79-.8-12.2-1.6-24.4-2.6-36.6-4.7-58.4-14.3-116.3-22.3-174.3-4-34.1-17.8-79.4,10.2-106.1,20.7-18.9,53.9-20.7,82.2-19.9,52.5,1.8,110.1,21.5,134,71.1,19,37.1,17.7,85.8-13,115.7-19.2,19.8-47.8,28.1-62.7,51.5h0Z"/>
</svg>