<?xml version="1.0" encoding="UTF-8"?>
<svg id="Layer_1" data-name="Layer 1" xmlns="http://www.w3.org/2000/svg" width="201.3" height="215.2" version="1.1" viewBox="0 0 201.3 215.2">
  <defs>
    <style>
      .cls-1 {
        fill: #000;
        stroke-width: 0px;
      }
    </style>
  </defs>
  <path class="cls-1" d="M139.6,87.2c1.9-5.5,3.2-8.7,4.2-12.1,4.6-15.6,9-31.3,13.9-46.8,1.7-5.3,4.1-10.6,7.3-15.2,6.2-8.7,16.4-8.3,20.8,1.3,3.8,8.3,6.4,17.6,7.5,26.7,2.8,23.1,4.9,46.3,6.5,69.5,1.1,16.2,1.4,32.6,1.3,48.9,0,6.6-.9,13.4-2.8,19.6-3.4,11.6-12.8,15.6-23.5,9.9-6.1-3.2-11.7-7.7-16.9-12.3-8.7-7.7-16.8-16.1-25.3-24.1-2.8-2.7-5.9-5.1-10.7-9.3-.2,5.6-.5,9-.5,12.4,0,10.6.5,21.3,0,31.9-.3,5.5-1.6,11.3-3.9,16.3-4.8,11.1-15.7,14.6-25.5,7.8-11.5-8.1-19.6-18.2-18.1-34.1,4.2-46.8,4.4-93.7,4.1-140.6,0-5.9.7-11.9,1.4-17.8.6-4.6,2.9-8.2,7.7-9.4,4.8-1.3,8.7.7,11.5,4.3,3.9,5,7.6,10.1,10.6,15.6,8.2,15.2,16,30.6,24,46,1.6,3.2,3.3,6.3,6.1,11.6Z"/>
  <path class="cls-1" d="M.2,88.7C1.5,65,2.8,40.1,4.2,15.2,4.9,4.3,9,.7,19.9,0c12.6-.7,22.6,4.2,28.4,14.9,4.7,8.6,8.7,18.2,10.2,27.8,6.8,43.1,6.8,86.2-3.1,128.9-2.4,10.2-7.2,20-12.2,29.3-4,7.5-10.5,13.5-20,12.5-10.1-1.1-14.9-8.8-17-17.4-2.8-11.2-5.3-22.8-5.7-34.3-.9-23.9-.3-47.9-.3-73.1Z"/>
</svg>