<?xml version="1.0" encoding="UTF-8"?>
<svg id="Layer_1" data-name="Layer 1" xmlns="http://www.w3.org/2000/svg" width="360.6" height="334.1" version="1.1" viewBox="0 0 360.6 334.1">
  <defs>
    <style>
      .cls-1 {
        fill: #000;
        stroke-width: 0px;
      }
    </style>
  </defs>
  <path class="cls-1" d="M66.3,73.1c.7,23.8,1.9,47.5,2.1,71.3,0,10.1,2.7,18.4,8.8,26.6,10.5,14.1,17.8,29.9,19.1,47.7,1.4,19.6-3.1,37.1-20,49.4-3,2.2-4.1,4.6-3.9,8.1.4,10.6.8,21.2.9,31.8,0,3.8-.2,7.8-1.2,11.4-1.5,5.5-6.5,9.1-11.4,8.7-5.4-.4-9.1-3.4-10.7-8.4-1-3.3-1.2-6.9-1.3-10.4-.5-12.2-.8-24.4-1.2-37.1-22.9-11.7-32.1-33-39.3-55.8-.6-1.8-1.2-3.7-1.5-5.6-1.1-7.6,2.2-13.6,8.4-15.4,6.4-1.9,12.5,1,15.7,7.9,1.3,2.9,2,6.1,3.2,9.1,3.2,7.6,6.5,15.2,9.7,22.7l2.4-.4c.2-2.6.5-5.2.5-7.8-.5-17-1.2-34.1-1.5-51.1,0-4.8-1.6-8.5-4.3-12.3-7.6-11.1-15.8-22-21.8-34-11.3-22.6-12.5-46.3-3.5-70.1,4.2-11,10.3-20.8,20.2-27.6,3.3-2.3,4.6-4.9,4.4-8.8-.1-2.8.2-5.8,1-8.6,1.5-5.3,5.5-8.3,10.4-8.5,5-.2,10.6,2.4,10.9,7.5.7,11.5,8.4,17.4,15.3,24.9,5.3,5.7,9.2,13.4,11.6,20.8,4,12.2,6.3,24.9,9.1,37.4.5,2.4.3,5.2-.3,7.6-1.3,5.3-5.2,8.5-10.2,8.8-5.1.3-9.5-2.2-11.3-7.3-1.4-3.9-1.9-8.1-2.8-12.2-1.6-7-2.1-14.4-5.6-20.9l-1.9.5ZM41.3,66.5c-.8,0-1.6,0-2.4,0-7.3,17.5-6.2,34.6,2.9,53.2.8-2.6,1.3-3.5,1.2-4.3-.6-16.3-1.2-32.7-1.8-49Z"/>
  <path class="cls-1" d="M197.8,141.6c8.3,11.3,16.3,21.3,23.3,32.1,9.9,15.3,16.4,32.1,17.1,50.6.2,6.7-.3,13.6-1.8,20-6.3,27.2-31.5,38.1-53.2,36.3-6-.5-9.9-3.9-12.5-9.2-2.1-4.2-4.5-8.3-7.2-12.2-6.3-9.3-13.5-18-19.1-27.7-13.9-23.9-12.5-47.2,4.9-69.1,4.2-5.2,8.3-10.5,13.4-17-3.8-3.2-7.5-5.8-10.6-9-9-9.6-18.3-19-26.5-29.3-7.9-10-12.6-21.7-12.9-34.7-.4-19.8,7.8-35,25.2-44.4,17.4-9.4,34.9-7.8,51,3.5,16.7,11.6,24.3,28.6,26,48.5,1.5,17.4-2.5,33.9-10.4,49.4-2.2,4.3-4.6,8.4-6.8,12.4ZM180.2,164.1c-4.5,5.5-8.3,10.1-12.1,14.8-9.9,12.1-10.8,25.4-3,38.5,6.2,10.4,13.6,20.2,21,29.8,4.6,6,7.4,6.2,14,2.5,9.1-5.1,11.4-13.8,10.8-23.1-1.5-24.6-14.1-43.9-30.6-62.5ZM178.4,124c9.8-17.2,14.2-33.7,9-51.8-2.1-7.2-5.8-13.5-11.9-18.2-7.9-6.2-18.2-7-26.1-2.2-7.7,4.8-11.8,13.6-9.4,23.3,1.4,5.8,4.1,11.5,7.4,16.5,8,12.1,19,21.5,30.9,32.3Z"/>
  <path class="cls-1" d="M249.5,161.4c1.3-33,4.3-65.5,13.5-97.3,1.4-4.9,3.4-9.7,4.7-14.7,1.1-3.9,2-8,2.2-12,.5-9.2,6.5-15.7,15.6-14.1,8.7,1.5,17.6,4.3,25.3,8.5,20.1,11.1,30.4,29.9,36.8,51.1,4.4,14.6,6.3,29.5,6.6,44.7.7,39.4-5.3,77.6-22.6,113.3-3.9,8-9,15.7-15.1,22.2-16.6,17.8-37.1,15.2-49.4-5.8-8.3-14.1-11.6-30-13.5-46-1.9-16.6-2.7-33.3-4-49.9ZM292.4,251.5c4.6-5.1,8.1-8,10.3-11.8,4-6.9,7.8-14.1,10.6-21.5,12.2-32.4,16-66.1,12.8-100.5-1-11.1-4.1-22.1-7.3-32.8-3-10-8.6-18.7-16.9-25.2-3.1-2.4-6.9-4-11.1-6.4-1.9,5.9-3.6,10.3-4.9,14.9-11.2,40.4-13.8,81.7-9.9,123.2,1.4,14.9,5.1,29.7,8.5,44.3,1.1,4.7,4.4,9,7.9,15.7Z"/>
</svg>