<?xml version="1.0" encoding="UTF-8"?>
<svg id="Layer_1" data-name="Layer 1" xmlns="http://www.w3.org/2000/svg" width="503.9" height="691" version="1.1" viewBox="0 0 503.9 691">
  <defs>
    <style>
      .cls-1 {
        fill: #000;
        stroke-width: 0px;
      }
    </style>
  </defs>
  <path class="cls-1" d="M184.1,361.8c32.6,1.4,65.5,2.4,98,5.6,15.8,1.6,31.6,3.1,47.3,4.8,44.2,5.1,60.1,19.4,78.5,59.2,6,12.1,12,24.2,18.2,36.2,17.7,33-.4,39-31,35.5-20.3-2.8-46.9-4.5-63.1-17.7-8.3-6.9-14-16.9-21.7-23.5-9.2-8.2-21.9-9.6-33.8-10.2-37.1-2-74.2-2.9-111.1-7.1-16.5-1.5-25.2,4.5-38.1,13.5-16,11.8-37.7,10-57,7.6-30.8-4.1-53.9-7-29.8-42.2,16.2-23.7,35.1-49.7,64.1-57.6,25.5-6.8,53.2-4.9,79.4-4.3h.2ZM166.1,397.5c-.2.5,1.3,1.2,4.2,1.9,1.9.5,4.5,1,7.4,1.5,25.6,3.9,51.6,6.4,77.4,8,10.4,0,36.5,5.8,43.8.3,1.1-1.6-1.1-2.9-4.7-4.3-8.6-3.2-20.3-3.2-29.9-3.3-28.3-.4-56.6-4.2-84.9-5.2-4.1,0-11.3-.4-13.3,1.1h0Z"/>
  <path class="cls-1" d="M397.5,92.1c5.3,5.7,16.3,6.7,22.6,11.8,10,7.6,12.6,23.6,7.4,34.4-5,11.4-22.6,13.5-26.9,24.2-2.2,13.4,21.1,14.7,28.9,20.8,8.7,5.5,11.6,16.2,12.1,26,1.7,32.9-12.1,43.6-43.7,35.5-18.5-5.1-41.4-6.9-52.3-24-4.7-7.4-6.3-16.8-7.1-25.6-2.1-33.1-1.9-66.4-.9-99.5,1.4-18.2-1.3-47.1,17.2-56.9,12.4-6.6,31.1-4.6,45.9-5.2,11.5-.4,26.6-.4,32.9,10.6,4.3,7.1,4.8,17.1.8,24.5-5.3,10-17.5,10.3-27.4,13.3-5,1.6-12.9,4.9-9.5,10.1h0Z"/>
  <path class="cls-1" d="M249.8,84.3c9.1-.9,14.2-18,17.9-26.3,3.2-7.8,6.6-16.3,11.1-22.8,8.1-12.3,19.8-14.2,24.5,2.8,2,7,2.5,15.1,2.9,22.5,1.8,46.5,3.9,93.1,5.1,139.6.6,28.2-15.3,37.9-32.9,12.2-7.1-7.2-34-79.1-37.8-37.7-1.3,16.6-.8,40.2-19.8,44.7-7.7,1.7-17-1.4-22.7-7.2-8.8-8.7-10.1-22.2-10.2-34.3,0-34.9-.2-69.8.2-104.7.2-7.4.6-15.3,2.4-22.4,2.8-12.6,12.1-20.5,22.4-11.5,6.3,5.1,11.7,15,16.2,22.8,4.6,7.9,11.6,22.7,20.5,22.3h.1Z"/>
  <path class="cls-1" d="M84,636.2c-2,1.7-2.2,4.6-2.6,7.1-.7,5.5-1.1,13.3-4.6,18.8-5.6,9.6-19.8,12.2-28.2,4.8-7.8-6.5-9.5-19.6-11.2-29.6-5.8-37.2-14.3-73.9-21.8-110.8-1.8-8.8-3.3-19.5,1.5-27.2,6.8-10.5,22.8-13.9,34.2-11.5,12,2.6,14.7,15.4,18.6,23.3,2.3,4.1,6-3.2,8-5.4,1.9-2.4,4.1-5,6.5-7,9.3-8.2,27.2-9,36.5-3.3,5.9,3.7,7.7,10,6.5,18-3.4,20.1-17.5,41.4-10.1,62.3,7.3,21.1,30.4,35.4,37.8,56.8,7.2,20.7-11.4,35.5-30.9,27.5-5.3-2-10.1-5.2-14.6-8.6-5.9-3.9-20-19.1-25.6-15.3h0Z"/>
  <path class="cls-1" d="M169.8,112.2c.8,35.3-21.1,97.1-61.6,100.3-14.7.7-28.2-9.2-35.9-21.5-8.4-13.4-11-29.9-11.6-45.5-1.2-32.3,6.4-63,19.6-92.1,5.2-11.6,10.2-25.7,22.2-31.3,9.8-4.4,22-1.9,31.7,3.1,14.7,7.4,22.6,21.8,27.6,37.4,5.1,16,8,32.6,8,49.4v.2ZM110.5,141.6c4.3.2,6.8-6,8.4-9.5,3-7.4,4.4-16.9,3.9-24.4-.6-14.5-8.3-18.2-13.8-2.6-2.9,6.8-6.2,33.6,1.5,36.5h0Z"/>
  <path class="cls-1" d="M305.7,638c-3.8,5.6-1.6,15.9-7.1,22.3-7.2,8.2-21.3,5.7-31.3,4.1-8.1-1.6-17.2-4.1-20.5-12.2-3.6-9.2-1.3-18.7-1.8-30.3-.2-5.1-.7-10.1-1.1-15.2-2.1-24.8-3.3-49.6-3.9-74.4-.5-13.2,2.9-34.6,18.9-22,11.4,8,21.9,32.2,33.3,36.9,9.1,1.4,4.7-26.7,13.4-33.5,9.5-8.9,27.3-5.8,36.7,2.2,9.8,9.2,8.7,22.8,8.9,36.7-.2,26.8-.7,53.6-.2,80.4.5,14.3-.6,38-19.4,23.4-6.1-3.4-19.6-22.2-25.8-18.5h0Z"/>
  <path class="cls-1" d="M201.8,341.9c-27.2-.2-54.3-4.1-80.7-9.9-14.5-3.2-29.3-6.1-41.5-14.4-28.2-19.7-16.6-50.8,9.2-66.1,18.3-10.2,41.7-14.4,62.8-13.4,16.8,1.2,33.3,6.6,49.4,11.6,11.1,3.6,22.4,7.8,31.9,14.8,6.6,4.9,12.1,11.1,15.6,18.5,7.7,15.8,5.7,37.6-8.8,48.8-10.6,8.2-24.2,9.9-37.7,10.1h-.2ZM132,289c1,10.2,35.2,12.9,44.5,12.4,21.5-.8,21.2-10.7,2.2-16.8-11.6-3.4-24.6-4.6-36.5-2.3-3.9,1-9.5,2.4-10.2,6.6h0Z"/>
  <path class="cls-1" d="M380.4,641.3c-1.8-23.8-3.4-47.8-5.6-71.6-.7-12.2-3.3-24.3,2.2-34.5,6.9-11.1,22.1-10.9,34.3-11.3,12.3-.4,24.9.9,36.1,6.2,37.6,16.7,56.4,69.9,31.4,104.1-13.8,17.5-37.9,24.8-59.2,29.8-20.2,4.4-36.7,1.9-39.2-22.4v-.2ZM423.7,610.4c11,5.3,18.7-10.2,15.9-19.4-4.2-16.3-26.1-24.1-26.3-1.5-.1,7.5,3.9,17.5,10.2,20.8h.1Z"/>
  <path class="cls-1" d="M367.2,304.8c-3.4,2.9,9.3,4.8,11.2,5.2,5.6,1.1,11.9,1.9,16.8,4.3,5.3,2.6,9.9,7.6,10.6,13.5,1.1,11.2-9.9,16.3-19.8,16.3-5.6.3-11.5,0-16.9,1.9-9.1,3-15.4,11.2-24.4,14.1-5.8,1.9-12.2,1-18.3-.2-6.1-1.2-12.2-2.6-18.3-3.5-11.3-1.9-22.1-2.1-29.2-8.7-7.4-7.7-4.8-17.9-3.9-29.6.7-6.1,1.1-12.2,1.3-18.3.2-12.2.4-26.6,10.7-34.9,10.7-8.6,25.6-6.9,39.2-5.7,10.3,1.1,20.5,2.3,30.8,3,9.5.7,19,1.1,28.5,1.8,13.3,1.1,30.8,2.3,40.1,11.9,10.7,11,6.1,28.8-9.9,30.6-14.5,2.2-34-7.5-48.3-1.9h0Z"/>
  <path class="cls-1" d="M228.4,631.4c-2.1,7.1-7,13.1-13,17.4-11.9,8-29.7,13.8-41,3.3-10.7-10.9-9.9-32.1-11.6-46.7-2.1-25.7-4.4-51.6-9.3-77-1.1-5.6-2.3-11.8-2.6-17.3-.5-8,1.5-14.4,8.1-18.4,10.3-5.8,26.3-6.6,37.7-2.2,14,5.8,16.8,20.8,19.5,35.1.3,1.5.5,3,.8,4.5,3.5,20.5,7,40.9,10,61.4,1.7,13.2,5.1,27.5,1.4,39.7v.2Z"/>
</svg>