<?xml version="1.0" encoding="UTF-8"?>
<svg id="Layer_1" data-name="Layer 1" xmlns="http://www.w3.org/2000/svg" width="1072.5" height="711.8" version="1.1" viewBox="0 0 1072.5 711.8">
  <defs>
    <style>
      .cls-1 {
        fill: #000;
        stroke-width: 0px;
      }
    </style>
  </defs>
  <path class="cls-1" d="M1072.5,345.2c-4.3,73.3-40.6,135.8-108.6,179.9-22.2,14.4-46.6,24.5-71.3,33.7-36.2,13.5-68,33.6-95.7,60.3-14.9,14.3-30,28.5-45.2,42.4-14.8,13.5-30.7,25.6-48.4,35.2-37.3,20.1-74.7,20.6-111.5-.5-14.4-8.2-27.7-18.4-41-28.4-14.9-11.2-28.9-23.6-43.8-34.9-24.8-18.7-52.4-29.4-83.9-25.8-14.1,1.6-28.6,4-41.9,8.8-29.8,10.6-59.1,22.5-88.4,34.4-34.9,14.2-69.8,28.2-107,35.3-29.4,5.6-58.9,7-88.2-.8-54.3-14.6-91-58.7-96.7-114.7-3.7-36.4,3.6-71,14.9-105.1,7.2-21.8,15.3-43.4,22.6-65.1,9.2-27.4,11.1-55.2,5.6-83.8-3.4-17.9-5.8-36.2-6.9-54.4-1.6-26.1,6.6-50,20.1-72,14.9-24.2,34.9-43.6,57.3-60.7,25.3-19.3,52.8-34.9,81.7-48.1,6.5-3,11.9-6.9,16.5-12.4,15.7-18.4,33.6-34.3,54.4-46.6,45.3-26.8,91.9-28.9,139.5-6.7,20,9.3,38.1,21.8,55.8,35,17.9,13.3,35.6,27,53.9,39.7,35,24.4,74.4,36.6,116.6,40.8,48.5,4.8,97.2,2.7,145.8,3.9,41.7,1,83.2,4,123.9,13.9,32.3,7.8,63,19.6,90.5,38.7,52.3,36.2,78.6,89.4,79.1,158.1ZM1051.1,340.9c-1.2-60.2-24.3-104.1-70-136-24.4-17-51.7-27.4-80.4-34.6-42-10.5-84.9-13.1-127.9-13.8-41.3-.8-82.6-.6-123.9-2.2-51.9-2-100.7-15.1-144.1-44.8-14.3-9.8-28-20.4-42.1-30.5-16.6-11.7-33-23.8-50.1-34.7-16.4-10.4-34.5-17.5-54-20-45.2-5.9-81,13.2-112.7,42.8-1.5,1.4-2.6,4.1-2.4,6,.8,7.4-3.5,10.8-9.1,13.8-5.8,3.1-11.1,7-16.8,10.3-2.2,1.3-4.8,2.1-7.3,2.9-4.7,1.4-9.8,2-14,4.2-12.2,6.1-24.3,12.5-36,19.5-28.2,16.9-54,36.7-74.5,62.8-18.8,24-29,50.8-26.6,81.6.7,8.6,2,17.2,3.2,25.8,2.2,15.8,5.4,31.6,6.6,47.5,1.9,25-4.4,49-12.3,72.5-7.8,23-16.3,45.8-23.6,69-8.8,28.2-13.4,56.9-9.8,86.7,6,49.3,40.1,86.3,89.1,95,26,4.6,51.8,2.5,77.4-3.2,34.6-7.8,67.3-21.1,100-34.7,30.4-12.7,60.5-26.2,92.5-35,24.6-6.8,49.5-10.4,75.1-5.7,23.5,4.3,44.2,14.7,63.1,28.8,14.9,11.2,28.9,23.7,43.8,34.8,13.6,10.1,27.3,20.3,42.1,28.6,27.3,15.2,55.4,14.4,83.3.4,17.4-8.8,32.8-20.5,47.2-33.4,15.6-14.1,30.8-28.6,46.2-42.8,22.3-20.7,46.4-39.1,74.3-51.8,11.2-5.1,22.6-9.7,34.1-14.3,24.2-9.6,48.2-19.5,69.6-34.7,57-40.4,87.5-95.4,90.4-160.9Z"/>
  <path class="cls-1" d="M224.7,219.6c8.6-7.3,18.6-7.3,29.2-5.9,19.6,2.5,38.9,5.7,57.2,13.4,6.7,2.8,13.3,6.2,19.4,10.3,28.6,19.2,37,49.5,22.1,80.5-4.7,9.8-11.1,18.9-17.2,29.1,1.7,2,3.9,4.5,5.9,7,5.9,7.7,12.4,14.9,17.3,23.1,18.1,30.4,14.7,64.1-8.4,90.8-12.7,14.6-28.6,24.8-46,32.8-18.6,8.6-38,14.5-58.4,16.8-9.2,1-18.7,1.2-27.8-.3-19.4-3.1-31.7-15.6-34.5-35.1-1.6-11.1-1.8-22.6-1.2-33.8,2-36.3,5-72.5,6.9-108.7,1.6-30.6,2.3-61.3,3.4-91.9.1-4,.2-8,.7-12,2-14.7,13.3-21.7,27.5-17.4,1.3.4,2.5.8,4.1,1.3Z"/>
  <path class="cls-1" d="M485.5,285.4c2.7-3.6,4.4-6.3,6.5-8.7,6.9-7.6,13.1-16.2,21.1-22.4,19-14.7,41.4-9.7,53.8,10.9,7.5,12.6,10.7,26.6,11.9,40.9,4.4,53.7-4.5,105-29.9,152.8-6.3,11.9-14.9,23-24,32.9-6.8,7.4-15.7,13.6-24.7,18.2-22.7,11.7-47,7.2-65.3-10.6-8.9-8.8-15.2-19.3-20.2-30.7-10.7-24.4-16.2-50.2-18.7-76.4-3.5-37.4-5.4-75-7.9-112.6-.2-3.6,0-7.3.5-10.9.8-5.8,3.5-10.5,8.1-14.5,2.6-2.2,4.9-5.3,6.1-8.4,4.2-10.2,10.9-15.4,22.1-15.3,16.9.2,31.5,6.3,42,19.6,5.7,7.2,9.6,15.9,14,24,1.7,3.1,2.7,6.6,4.5,11.2Z"/>
  <path class="cls-1" d="M717.7,282.7c6.1-5.2,11-10.2,16.7-14.2,8.4-6,16.7-12.5,25.9-16.6,30.4-13.5,57.7,2.9,61.2,36,1.8,17-1.6,33.2-7.4,49-8,21.9-20,41.7-36.4,58-17.5,17.5-27.3,37.9-31.6,62-2.5,14-6.6,27.9-11.3,41.4-3,8.7-7.4,17.3-12.9,24.6-15.4,20.4-40.1,19-54.1-2.4-7.5-11.4-10.9-24.4-12.5-37.6-1.5-12.2-2.2-24.6-2.4-36.8-.3-16.6,0-33.3.6-50,.5-15.5-4.1-28.5-14.7-40-19.1-20.7-31.3-45.4-38.5-72.6-.8-2.9-1.5-5.8-1.9-8.8-1.6-10.4,2.8-18.1,12.3-22.5,2.6-1.2,5.7-2.6,7-4.8,5.3-8.7,13.4-11.7,22.7-12.3,21-1.5,39.6,4.6,54.7,19.5,6.1,6,11.1,13.3,16.5,20,2,2.5,3.8,5.2,6,8.3Z"/>
</svg>