<?xml version="1.0" encoding="UTF-8"?>
<svg id="Layer_1" data-name="Layer 1" xmlns="http://www.w3.org/2000/svg" width="265.5" height="199.8" version="1.1" viewBox="0 0 265.5 199.8">
  <defs>
    <style>
      .cls-1 {
        fill: #000;
        stroke-width: 0px;
      }
    </style>
  </defs>
  <path class="cls-1" d="M43,143.9c-5.9-1.6-10.8-2.7-15.5-4.4-7.8-2.8-11.6-8.9-9.7-15.1,1.8-6,7.4-9,15.3-7.9,2.2.3,4.5.8,7.9,1.5-.8-9.2-1.5-17.6-2.3-26.9-3.8,0-7.1.1-10.3,0-13.3-.5-21.5-9.3-21.4-22.6,0-8.4,3.5-15.5,8.1-22.2,2.5-3.5,5.1-7.1,8.3-10,6.3-5.7,10.9-11.1,10.6-20.9-.3-10.3,10.2-13.9,18.7-7.5,1,.8,1.9,1.8,3.2,2.9,3.1-1.2,6-2.7,9.2-3.6,5.5-1.6,10.5.5,12.9,5,2.4,4.5,1.6,9.8-2.9,13.4-3.6,2.9-7.7,5.3-11.7,7.6-3.3,1.9-4.8,4.3-4.3,8.1.6,4.6.7,9.3,1.1,14,.1,1.2.8,2.4,1.1,3.4,1,.4,1.7.8,2.3.7,30.3-3.1,46.5,27.6,38.6,54.2-4.4,14.9-14.6,24.3-29.4,28.8-1.5.5-3.1,1.1-5.4,1.9.6,9,1.2,17.9,1.8,26.8.2,3.7.5,7.4.1,11-.7,6-4.9,10.2-10.1,10.7-5.4.5-10.1-2.5-11.9-8.6-1.1-3.8-1.4-7.8-1.8-11.8-.9-9.3-1.6-18.5-2.4-28.4ZM65.2,118.7c9.5-1.3,13.6-6.8,15.1-14.4,1.5-7.5.6-14.8-5.6-20.1-3.4-2.9-7.6-3.9-12.3-.2.9,11.3,1.8,22.8,2.7,34.7ZM34.5,56.7c-2.2,4.3-3.8,7.4-5.6,11,9,.3,9.2,0,5.6-11Z"/>
  <path class="cls-1" d="M182.5,97.4c3.3-22.6,10-44.2,19.2-65,1.9-4.2,4.5-8.2,7.6-11.6,5.2-6,11.7-7,17.6-1.6,6.3,5.8,12.4,12.2,16.9,19.5,14.5,23.7,15.8,49.7,10.4,76.3-2.9,14.4-7.8,28.3-16.8,40.2-3.6,4.7-7.8,9.3-12.6,12.7-12.7,9-27.5,6.3-35.2-7.2-4-7-6-15.4-7.8-23.4-1.3-5.8-1.3-11.9-1.1-17.9.2-7.3,1.2-14.6,1.8-21.9ZM219.2,47.9c-2.8,8.4-5.4,15.2-7.4,22.1-5.9,20.3-10,40.8-7.7,62.1.6,5.8,1.1,11.9,5.5,16.6,24.9-14.5,31.3-73.7,9.7-100.7Z"/>
  <path class="cls-1" d="M147.4,64.9c.3-7,.5-13.2.8-19.5.4-5.6.5-11.4,1.6-16.9,1.2-5.9,6.3-9.3,11.6-8.9,5.1.3,9,3.7,10.3,9.3.7,2.9.9,5.9.8,8.9-1.2,38.9-2.5,77.9-3.8,116.8-.1,3-.4,6-1.3,8.8-1.8,5.6-6.9,8.9-12.2,8.4-4.9-.5-9.1-4.1-10.2-9.5-.5-2.6-.5-5.3-.4-7.9.5-18.3,1.1-36.6,1.7-54.9.1-3.2.1-6.5.2-10.9-4.5.2-8,.6-11.6.6-5.6,0-11.4,0-16.9-.8-10-1.6-17-7.5-20.4-17.1-5.3-14.8-4.2-30.2-3.2-45.5.4-6,5.7-9.7,11-9.6,5.4.1,9.7,3.8,10.3,10.2.7,7.3.5,14.6.8,21.9.7,17.4,2.2,18.8,19.4,17.7,3.3-.2,6.6-.7,11.4-1.2Z"/>
</svg>