<?xml version="1.0" encoding="UTF-8"?>
<svg id="Layer_1" data-name="Layer 1" xmlns="http://www.w3.org/2000/svg" width="588.2" height="396.4" version="1.1" viewBox="0 0 588.2 396.4">
  <defs>
    <style>
      .cls-1 {
        fill: #000;
        stroke-width: 0px;
      }
    </style>
  </defs>
  <path class="cls-1" d="M106.1,121.8c-5.2-4.7-10.5-5-15.8-5.3-20.5-1.3-40.4,2.7-60.3,6.9-3.9.8-7.9,1.7-11.8,1.7-7.2,0-12.5-4.4-13.7-10.7-1.1-5.6,2.2-11.7,8.1-14.6,2.1-1,4.3-1.8,6.6-2.3,23-5.6,46.2-10.3,70.1-8.8,7.9.5,16,1.9,23.3,4.6,18.3,6.6,25.1,23.2,17.8,41.2-4.7,11.7-13,20.8-22,29.3-2.6,2.4-5.3,4.8-7.9,7.2.3.6.7,1.2,1,1.8,10-1.6,20-3.2,30.1-4.8,5.9-.9,11.8-2,17.7-2.9,3.6-.5,7.3-.9,10.9-.8,6.8.2,11.4,4.1,12.1,9.7.7,5.6-2.6,10.9-9.2,12.5-10.3,2.5-20.9,4.2-31.4,6-37.7,6.7-75.3,13.9-112,25.2-2.2.7-4.5,1.2-6.8,1.2-5.6,0-10.4-3.4-12.2-8.6-1.9-5.4-.3-10.1,3.8-13.5,2.7-2.3,6.2-3.8,9.5-5.3,22.9-10.1,44.8-22.1,64.4-37.8,7.5-6,14.2-13,20.8-20.1,3-3.2,4.6-7.7,6.8-11.7Z"/>
  <path class="cls-1" d="M78.4,312.1c4.4,0,7.6-.2,10.7,0,8.2.8,16.8.6,24.6,3,13.6,4,18.7,17.2,11.8,29.6-3.3,6-8,11.6-13.1,16.1-19.1,16.8-41.9,27-65.9,34.7-9.2,2.9-14.8-1.5-15.6-11-.1-1.3.5-3-.2-3.8-5.6-7.1-4.5-15.8-6-23.9-5.2-28.2-10.3-56.4-15.6-84.5-.8-4.4-2.2-9,1.4-12.2,2.5-2.2,6.3-3,10-4.6,3.6-9.2,5.3-10.4,15.8-10.6,12.4-.2,24.7.9,36.5,5,22.2,7.8,28.8,25.7,16.7,46-3.2,5.3-7,10.2-11.3,16.2ZM38.3,320.3c8.7-7.8,16.4-14.2,23.4-21.2,4.4-4.4,8.5-9.4,11.7-14.8,4.7-7.8,3-12.5-5.2-15.8-13.5-5.4-27.6-4.8-42.3-5.4,4.2,19.4,8.1,37.6,12.4,57.2ZM107.3,335.2c-11.5-3.9-20.8-2.4-30-1.6-11.8,1-23.2,5.3-36.3,1.9,1.8,12.6,3.4,24,5.2,36.7,22.4-9.1,43.7-17.8,61.1-37Z"/>
  <path class="cls-1" d="M553.3,223.4c-3.6-22.3-7-43.3-10.4-64.3-.8-5.3-1.7-10.5-2-15.9-.4-6.6,2.9-11.2,8-12.2,5-1,9.7,2.1,11.6,8.6,1.5,4.8,2.4,9.7,3.2,14.6,7.8,46.7,15.5,93.4,23.2,140,.5,3.3,1.2,6.6,1.3,9.9.2,7.1-3.2,11.8-8.7,12.6-5.5.8-10-2.6-12.1-9.5-.8-2.5-1.1-5.2-1.5-7.8-3.3-19.7-6.5-39.5-9.8-59.2-.3-1.6-.7-3.1-1.2-5.5-11.7,8.8-24.9,8.9-38.9,7.9,2.4,9.7,4.8,18.7,6.9,27.7.9,3.5,1.8,7.2,1.8,10.8,0,4.7-2.3,8.4-7.2,9.6-4.8,1.2-8.6-.7-11-4.9-1.3-2.3-2.2-4.9-2.8-7.5-8.1-33-16.1-66-24-99.1-.8-3.2-1.1-6.6-.7-9.8.5-3.9,3.1-6.6,7.2-7.3,4-.7,7.6.5,9.5,4,1.8,3.5,3.2,7.3,4.1,11.2,4.2,16.8,8.2,33.6,12.3,50.6,14.8-7.4,28.1-9,41.2-4.5Z"/>
  <path class="cls-1" d="M339.6,132.2c7.6-2.1,15.1-4.2,22.6-6.4,7.7-2.3,15.3-4.7,22.9-7,2.5-.8,5.1-1.5,7.8-1.9,6.8-.9,11.8,2,13.5,7.6,1.6,5.5-1.1,10.4-7.4,13.6-.9.4-1.8.8-2.8,1.1-23,6.7-46,13.4-69,20.1-1.9.6-3.9.9-5.9,1.1-7.3.8-14.2,0-18.6-6.9-4.4-6.8-2.3-13.5,1.9-19.6s7.8-10,11.7-14.9c8.2-10.5,16.9-20.6,24.6-31.5,4.2-5.9,7.4-12.7,9.7-19.5,4.2-12.4-1.5-18.8-14.4-17.1-10.4,1.4-18.6,6.8-25.5,14.5-2.2,2.5-4.2,5.3-6.7,7.4-4.3,3.6-9.7,3.7-13.9.8-4.2-2.8-6-7.8-4.5-13.2.5-1.9,1.4-3.8,2.6-5.4,13.5-18.7,31.2-29.8,55-28.7,21.3,1,35.3,16.6,33.1,37.8-.8,7.8-3.1,16-7,22.7-7.1,12.3-15.9,23.7-24,35.5-2,2.9-4.5,5.5-6.7,8.3.4.6.7,1.2,1.1,1.7Z"/>
  <path class="cls-1" d="M184,121.7c.5-21.9,6-42.7,14.5-62.8,4-9.5,12.8-12.3,21.4-14.2,3.3-.7,8.5,2,11.3,4.7,19.5,18.7,33,40.8,35.6,68.4,1.3,14.3-1.4,28-9.3,40.1-3.4,5.2-7.8,10.1-12.7,13.8-16.5,12.3-36.9,9-49.3-7.5-7.9-10.5-10.5-22.8-11.6-35.6-.2-2.3,0-4.7,0-7ZM218.1,70.3c-8.8,23.1-13.9,44.1-9.9,66.4.7,3.8,2.1,7.8,4.1,11.1,5.6,9.7,14.7,10.8,21.8,2.1,3.6-4.4,6.6-10.2,7.7-15.9,4.7-24.9-6.8-44.2-23.7-63.8Z"/>
  <path class="cls-1" d="M466.5,60.6c-3.2-10.6-6.2-20.4-9.2-30.3-1.4-4.8-3.1-9.5-4.2-14.4-1.7-7.4,1.5-13.5,7.5-15.4,6.1-1.9,12.4.9,15.1,8.1,3.9,10.6,6.9,21.5,10.5,32.3,2.2,6.5,2.8,13.7,8.5,18.8,1.3,1.1,2.1,3.9,1.7,5.5-2,8.7,2,16.3,3.9,24.3,2,8.4,4.5,16.7,6.5,25.1.7,2.9,1.2,5.9,1.1,8.8-.2,5.6-3.8,9.8-8.7,10.7-5.2,1-9.3-1-11.9-5.4-1.7-2.8-2.8-6-3.7-9.2-2.6-8.6-4.9-17.3-7.4-25.9-.9-3.1-2.1-6.2-3.4-10-4.1,1.4-7.5,2.7-11,3.5-10,2.4-19.9,5.7-30.1,6.8-18.3,2-31.5-6.8-38-24.1-5.3-13.9-6.1-28.6-5.9-43.2,0-7.1,4.8-11.8,10.8-12.3,6.3-.6,11.8,3.9,12.9,11.3,1.1,7.9,1.1,15.9,2.1,23.8,2.6,20.3,7.7,23.8,27.9,19.2,5.5-1.3,10.9-3.1,16.3-4.8,2.5-.8,4.9-1.9,8.8-3.5Z"/>
  <path class="cls-1" d="M211,318.4c-16.5,5.2-32.3,10.1-48.7,15.3-1.2,6.8-2.4,13.7-3.6,20.5-.5,2.6-.9,5.3-1.8,7.8-1.6,4.5-4.9,7.1-9.9,6.8-4.7-.3-8-4-8.4-9.6-.2-2,0-4,.3-6,4.3-27.3,8.4-54.6,13.1-81.9,1.2-6.8,3.4-13.6,6.3-19.9,6.6-14.3,19.3-16.8,30.6-5.9,5.4,5.3,10.1,11.6,14.2,18,15.2,23.9,30.1,47.9,45,72,1.5,2.5,3.3,5.7,2.9,8.2-.5,3.2-2.7,6.7-5.1,8.9-3,2.7-7.1,2.1-10.2-.3-2.8-2.2-5.3-5.1-7.4-8-5.7-8.2-11.1-16.6-17.2-25.9ZM198.4,299.3c-5-12.7-15.9-29.4-23.1-35.1-4.9,14.6-7.5,29.2-9,45.5,11.4-3.7,21.4-6.9,32.1-10.4Z"/>
  <path class="cls-1" d="M363.7,264.1c.3-10.8,4-22.8,9.8-34.2,9.1-17.7,21.8-32.6,37.1-45.3,7-5.8,12.8-6.3,16.8-1.9,4.1,4.5,2.7,9.7-3.7,16.4-8.2,8.7-16.9,17.1-23.9,26.7-5.4,7.4-9.1,16.2-12.6,24.8-1.9,4.5-2.5,9.7-2.7,14.6-.5,17.5,9.9,25.8,26.9,21.9,12-2.7,21.9-9.5,31.4-16.9,2.9-2.3,5.5-4.9,8.6-6.8,5-3,10.4-2.3,13.7,1.3,3.4,3.7,3.5,9,.3,13.8-.4.6-.8,1.1-1.2,1.6-14.4,13.8-30.3,25.2-50.4,28.8-29.2,5.3-50.6-13-50.3-44.8Z"/>
  <path class="cls-1" d="M289.4,231.9c11.4,26,22.5,51.2,33.6,76.5,2.4,5.5,4.9,11,6.9,16.6,2.5,7,.8,12.3-4.1,14.8-5.2,2.6-10.8.4-14.5-6.8-4.9-9.8-9.2-19.9-13.7-29.9-9.2-20.6-18.3-41.2-27.6-62.4-4.7,1.7-8.9,3.5-13.2,4.8-6.9,2.2-12.3.3-14.6-4.7-2.3-5-.3-10.8,6.1-14,12.2-6.1,24.7-11.6,37.1-17.2,3.3-1.5,6.6-3.2,10.1-4.2,5.8-1.7,11.2.8,13.4,5.7,2,4.6.5,9.9-4.4,13-4.4,2.8-9.4,4.9-15.1,7.8Z"/>
</svg>