<?xml version="1.0" encoding="UTF-8"?>
<svg id="Layer_1" data-name="Layer 1" xmlns="http://www.w3.org/2000/svg" width="890.3" height="960.2" version="1.1" viewBox="0 0 890.3 960.2">
  <defs>
    <style>
      .cls-1 {
        fill: #000;
        stroke-width: 0px;
      }
    </style>
  </defs>
  <path class="cls-1" d="M359.6,449.9c3.6,15.3,18.6,25,24.6,39.3,14.2,31.4-7.8,59.1-35.8,72.3-34.3,16.3-73.2,19.5-110.8,21-16.6.3-37,.2-48.3-13.6-6.1-7.4-8.4-17.8-9.4-27.4-1.5-17.5-1.6-35.1-2.5-52.6-1.4-40.6-2.3-81.4-11.5-121-.9-4.6-1.7-9.2-2-13.7-.5-6.8.1-13.4,2.9-18.8,7.2-14.2,25.1-17.9,39.8-19.9,29.3-3.7,59.5-1.7,88,5.9,43.1,10.6,79.2,44.1,70.7,91.3-2.2,12.2-8.5,24.6-5.8,37.1v.2Z"/>
  <path class="cls-1" d="M466.3,337.9c6.3,5.6,12.1,11.7,18.4,17.4,20.6,18.6,47.7,35.3,76.4,30.3,16.8-2.8,31.3-13.2,45.5-22.4,20.1-13.2,44.7-25.4,68.9-29,17.6-2.8,33.7,2,43,17.1,24.1,40-7.4,97-45,116.6-8.9,4.5-18.6,7.1-28.4,8.8-23.8,3.8-44.7,5.4-56.5,29.3-4.3,8-7.5,17-12.2,24.8-10.4,19.2-35.4,31.3-55.3,19.9-12.2-6.9-17.8-20.5-20.5-33.8-4.8-24.5-5.6-49.9-27.9-65.7-12.4-9.4-28.1-15-41.2-23.4-13.1-8.1-24-19.6-30.9-33.5-9.7-19.7-13.4-44.3,1-61.3,9.9-11.7,27.6-15.2,41.9-9.9,8.6,3,16,8.4,22.8,14.5h.1Z"/>
  <path class="cls-1" d="M155.3,864c-7.2,4.1-9.7,16.2-12.8,24-9.1,24.9-27,52.9-50.6,37.1-26.5-22.4-15.5-81.8-18.6-114.5-.4-11.2-1.2-22.4-1.5-33.7-1.2-33.2,4.7-66.3,3.1-99.4-.2-19.6-10-39.9-4.6-59.2,4.2-12.7,17-21.7,30.1-20,33.1,7.3,41.8,59.9,41.5,92.8,0,9.9-.6,22.5,2.7,31.2,3.2,8.9,9.5,10.5,14.9,3.7,14.2-21.7,11.1-50.2,17.1-74.8,3.8-20.4,20.5-41,42.1-41.9,18,.5,24.5,15,29.7,33,14.1,64.6.7,134.2,3.7,199.5.3,26.4,1.7,58.9-19.1,78.1-17.5,15.6-42.2,4.1-51.6-15-6.5-9.2-11.9-44.4-25.9-40.9h0Z"/>
  <path class="cls-1" d="M577,710.8c11-5.6,10.5-25.5,12.5-37.8,1.3-12.3,4.2-24.9,11.2-35.2,8-11.4,17.9-18.6,27.7-13,11.7,6.6,19.5,33.6,20.8,54.3,1.5,17.6,0,31.4.4,48.1-.8,50.4,16,151-8,183.9-8.9,5.2-18.4-.7-28.4-7.3-13.6-9.7-23.6-23.3-31.1-38.1-14.5-27.1-21.4-63.9-39.5-89-9.9-11-10.4,7-9,14.2,3.1,23.5,16.2,46.1,16.2,70.1,0,11.4-3,23-9.1,32.7-5.5,8.9-13.9,16.5-23.4,20.4-11.8,5.1-27.7,4.9-36.8-2.6-29.1-33.1-32.8-222.8-18.6-271.6,18.8-46.3,40.7-28.1,67.1,15.4,8.9,12.2,33,60.6,47.9,55.4h.1Z"/>
  <path class="cls-1" d="M267.7,884.5c.2-8,1.2-15.9,2.1-23.8,2.2-20.1,4.4-37.8,7.6-57.6,34.7-230.9,132.8-290.7,159.1-38.7,3.2,30.4,4.6,56.1,5.6,88.6.2,13.9,2.6,30.2-6,42.2-6.1,8.4-18.7,8-26.8,1.8-20.4-13.6-25.4-60.5-45.3-68.7-10.1-3-14.1,9.8-15,17.8-1.7,15.5,2,31.9-.8,47.6-1.8,12.8-9.8,24.3-21.7,29.6-16.3,7.7-39.5,6.3-51.2-8.4-6.4-8.3-7.9-19.3-7.7-30.2v-.2Z"/>
  <path class="cls-1" d="M823.3,776.4c-4.1,51.6-28.9,106.6-73.7,135.5-13.4,8-35.1,19.2-48.9,11.1-28.8-26.6-10.5-139.2-17.5-188.2-.5-5.9-1.1-11.8-1.7-18-1.2-13.1-2.7-28.5-4.2-42.3-1-10.7-3-21.9-.6-31.7,2.2-9.8,10.6-16.7,20.3-18.8,71.5-15.1,133.7,83.6,126.3,152.2v.2Z"/>
  <path class="cls-1" d="M211.9,203.4c-17.7-2-31,24.6-54.7,16.1-12.4-3.6-24.3-23.4-35.8-20.6-8.8,3.4-10.7,16.3-13,25.5-4.3,22.2-13.9,49-39.3,52.1-22.1,2.6-40-13.8-40.3-36-.5-11.2,1.9-22.8,3.9-33.9,6.2-32.2,11.9-64.6,20.1-96.4,7.1-27,17.9-62.7,49.3-68.5,15.6-2.4,29.5,7.7,39.3,20.1,4.7,5.7,8.7,12.2,13,18.3,5,6.9,12.5,17,21.2,11.7,6.8-4.2,12-17.5,16.4-25.5,9.2-18.3,26.1-33.6,46.8-35.7,58.2-4.1,51.9,93,56.5,132.1,1.5,21.5,4.4,42.7,7.1,64.1.9,8.6,1.7,17.1.4,25.6-2.1,15.4-13.7,23.2-28,17.8-7.7-2.8-14.3-8.3-19.9-14.3-7.4-8.1-13.3-17.5-18.8-27.2-5.9-9.7-12.1-23-24.1-25.4h-.1Z"/>
  <path class="cls-1" d="M413.2,224.7c-7,2.7-6.8,17.1-8.3,24-.8,4.8-1.8,9.5-3.8,13.8-10.2,23-44.6,21.7-60.5,5-14.9-15.3-11.4-37.9-8.2-57.3,7.4-44.9,10.5-91.5,29.2-133.6,9-20.9,27-45.6,51.4-45.4,23,1.1,35.4,25.5,44.1,44.1,23.5,51.3,35,106.8,45,162.1,1.6,9.5,3.1,19.3,1.8,28.8-1.9,16.6-14.9,25.9-30.7,20.5-8.7-2.8-16-8.9-22.1-15.7-7.1-7.9-12.6-17.2-18.1-26.7-4.6-7.4-11.9-21-19.7-19.7h0Z"/>
  <path class="cls-1" d="M553.2,23.4c7.9-.1,18,2.9,26.7,4.3,12.7,2.3,25.8,3.7,38.1,7.6,47.4,13.8,65,61.8,61.3,107.4-4.7,54.2-23.3,104.2-74.3,129.3-15.5,7.6-37.8,18.3-52,3.8-5.4-5.9-7.8-13.4-9.3-21.7-1.5-8.6-2.1-17.6-2.6-26.4-3.1-54.9-6.6-109.9-7.6-164.9.2-14.9-.7-39.3,19.5-39.4h.2Z"/>
  <path class="cls-1" d="M799.9,182.7c-8.4,6.8-4.2,17.9,4.8,21.6,10.6,4.9,24.2,2.5,35.7,6.3,10.6,3,17.8,12.6,19.6,23.3,3.2,16.1-2.4,35.2-19.2,41.2-17.6,6.5-37.8,5.3-56.4,5-30.4-.7-58.9-6.4-63-41.6-.7-4.9-.9-9.9-1-14.9.6-35.7.5-71.3-1.3-107-.5-17.4-1.8-35.8,3.4-52.6,9.8-35.8,50.8-28.8,83.2-22.5,15.5,3.4,35.1,4.8,43.2,18.9,4.3,8,2.5,18.1-2.4,25.5-12.1,18.5-36.9,12.3-45.1,20.8-1.3,4,8.7,6.6,12.6,8.3,4.4,1.7,9.1,3.6,12.9,6.4,15.1,10.5,16.3,36.9,1.9,48-8.2,6.5-20.8,6.9-28.8,13.3h-.1Z"/>
</svg>