<?xml version="1.0" encoding="UTF-8"?>
<svg id="Layer_1" data-name="Layer 1" xmlns="http://www.w3.org/2000/svg" width="575.3" height="771.5" version="1.1" viewBox="0 0 575.3 771.5">
  <defs>
    <style>
      .cls-1 {
        fill: #000;
        stroke-width: 0px;
      }
    </style>
  </defs>
  <path class="cls-1" d="M366.4,135.7c8.5,2.7,17.6-4,26.3-4.6,5.6-.6,11.3.6,15.8,4,3.7,2.7,5.6,6.1,6.9,6.8.7.4,1.2,0,1.5-.8,2.2-7,2.4-15.9,3.4-23.5,2.1-20.7,5.7-41.9,2.8-61.8-.5-3.9-1-8-.9-11.7-.4-12.8,11.1-24.3,23.6-24.8,19.1,1.4,16.9,32.5,15.4,47.2-.3,3.4-.7,13.5.4,13.8,2-.3,2.8-10.5,3.2-12.9,1.2-10.5,2.6-21.1,7.1-30.8,5.8-13.5,23.1-28.6,31.8-8.1,6.5,15.8,7.2,37.1,9.1,54.2,1.7,22.3,9.5,43.6,11.2,66.2.7,10.3-.3,20.8-3.8,30.5-3.5,10.9-16.1,31.9-28.9,20.2-5.5-5.6-9.1-16.3-13.3-21.6-8.5-11-8.4,10.2-9.6,15.5-.6,3.6-1.5,7.2-2.8,10.5-5,13.4-18.1,21.4-28.8,8.4-5.8-6.5-8.3-16.1-11.9-23-5.5-9.8-10.5,9.3-33.8,13.1-8.5,1.7-17.4,2.3-26.1,2.7-21.2,1.1-45.1-1.5-54-23.1-9.5-21.8-3.3-58.2,2.3-81.4,2.1-7.8,4.8-15.5,7.5-22.9,4.1-11.1,8.1-21.3,15.7-30.6,11.5-13.8,36.7-33.7,53-16.9,9.1,9.4,14.5,25.5,5.4,36.8-8.6,11.8-23.9,18.9-30.8,32.2-5.1,8.8-9.3,31.5,2,36.5h.1Z"/>
  <path class="cls-1" d="M220.2,481.1c-.3,4.4,7.7,5.5,11.2,6,15.5,1.4,35-4.8,47.7,8.6,8.6,8.9,7,19.7-5.2,24.9-12.9,5.8-28.4,5.3-41.8,8.4-14.9,3.2-28.7,10.5-43.4,14.5-21.4,5.9-44.2,5.8-66.3,7.8-19.9,1.4-40.4,5.4-60.1,1.3-17.2-3.3-29.1-18.8-25.3-36.3,8.4-33.9,71.1-24.4,97.2-30.4,3.7-.9,10.1-4.2,7.1-8.7-7.9-9.3-32.2-.7-43.3.9-13.8,2.9-31.6,4.8-43.1,1.2-23.5-6.1-22.4-34.9-6.3-48.6,17.6-14.6,43.5-10.7,65.6-12.2,18.2-.7,36.1-2.6,54.3-.6,8.5.8,17.1,1.9,25.7,2.5,18.1,1.5,36.3.7,54.6.9,8.3.1,16.8.5,24.4,3.8,7.3,3,14.7,9.7,13.2,18.1-1.3,6.6-9.1,11.8-18.2,16.4-8.7,4.3-17.8,7.9-26.9,11.2-7.2,2.9-18.9,4.9-21,10.2h0Z"/>
  <path class="cls-1" d="M243.8,155.3c-4.9-.6-4.2,15.1-4.5,20.2-.1,4.8-.3,9.7-1.1,14.4-2.9,19.5-17.9,29.1-37.1,22.7-6.1-1.9-12-4.9-16-8.6-9.4-8.2-8.5-19.4-5.9-30.9,3.2-12.6,4.8-25.8,7.8-38.5,2.5-10.1,4.9-20.6,6.6-31.1,4.3-21,1.8-49.8,14.9-65.5,11.2-12.7,32.3-15.9,47-7.5,10.5,5.9,15.1,15.7,18.4,26.4,4.1,12.1,8,25.4,12.3,38.5,6.9,22.8,19.7,42.5,22.7,66.2,1.7,14.1,3,31.9-4,43.6-6,8.3-17.9,2.9-25-1.5-14.3-8.8-22.8-24.9-29.9-40.5-1.4-2.7-3.7-7.3-6-8h0Z"/>
  <path class="cls-1" d="M131.6,156.4c3.5,4.2,11.2,2.6,17.3,2.6,5-.2,10.2-.1,15.1.4,14.7,1.1,28.6,8.6,21.6,22.4-3.9,9.2-21.5,20-34.7,25.5-8.8,3.9-17.9,7.2-26.7,10.4-16.4,5.7-33.8,11.7-52,8.4-18.1-3.3-26.8-15.3-26.3-33.3.7-17.1,3.9-37.1,12.7-51.3,3.3-5.2,7.8-9.4,12.5-13.3,3.3-3.1,17.1-13.6,7.1-15.2-2.8-.4-7.4,0-12.3.5-9,.8-18.5.3-24-2.8-6.4-3.2-7.9-10.8-7-17.5,3-19,12.2-37.6,24.3-53.9,9.9-11.3,22.1-22,36.6-24.7,10.5-1.9,29.2.6,32.9,12.5,4.2,14.9-18.2,34.5-15.7,44.5,2.3,6.4,13.5,6.6,20,8.2,23.9,4.5,33,17.6,22.3,36.5-2.7,5.2-6.5,10.1-10.3,14.6-4.7,6-17.7,18.1-13.8,25.4h0Z"/>
  <path class="cls-1" d="M456.4,649.7c1.4-1.3,1.3-5.8,1.6-8.4.2-4,.3-8.1.6-12.2.6-7.6,4.7-78,19.8-64.8,1.9,1.5,3.9,4.3,5.8,7.1,3.7,5.2,6.4,9.8,12.1,5.9,5-3.3,10.2-7.7,16.7-9,10-2.1,23.2-2.5,31.7,1.4,11,4.8,12.9,20.2,6.4,29.5-6,8.5-19.2,12.9-19.7,24.8-.5,15.5,22.2,14.8,23.5,29.3,1.4,9.9-7.1,17.6-13.3,24.1-15.5,16.2,13.4,19.3,17.4,37.9,2.2,8.3.9,18-2.9,25.3-5.8,11.6-20.7,16-32,10.4-22.5-11.4-18.6-54.8-21.8-79.8-1.1-12.4-2.7-33-5.9-42.9-3.4-8-4.5,12.3-4.8,18-1.9,27.6,1.6,70.5-15.6,92-8.1,9.4-22.5,8.3-32,.6-15.8-12.9-20.3-34-21.9-53.8-.9-17.2.6-34.2-.1-51.4-.3-15.9-3.1-31.9-4.9-47.8-1.4-12.5-.7-29,12.8-32.4,15.1-2.8,22.4,14.5,24,27,3.1,18.7-1,38.7-.5,56.6.2,2.8.6,12.3,2.9,12.7h0Z"/>
  <path class="cls-1" d="M403.1,459.8c-.4,5.2,10.5,6.4,15.6,7.9,12.7,3,26.5,6.1,39.3,9.5,15.7,3.9,67.7,20.2,69.8,34.9.3,10.6-18.9,17.5-29,19.5-13.1,2.7-27.5,3.3-41.3,4.9-17.9,1.7-35.9,3.6-53.9,3-19.1-.6-70.9-7.7-80.5-24.7-3.7-6.1-1-12.5,4.8-15.8,3.6-2.5,8.4-3.8,11-7.2,1.4-2,.5-4.5-.6-6.5-1.9-3.7-6.1-8.6-8.4-13.9-5-11-3.9-24.7,3.7-34.2,6.9-8.7,19.1-13.8,29.2-18.9,6.6-3.2,12.7-6.6,19.4-9.4,14.6-5.9,30.3-7.8,46.7-7.6,35.5,1.6,76.4,7.4,105.9,27.5,7.4,4.9,16.1,13.9,13,21.1-2.1,5.3-7.4,8-14.4,8.7-13.8,1-27.4-5.7-40.8-8.2-17.4-4.2-35.3-3.5-53.2-2.2-10.3.7-22,1.5-31.1,6.4-3,1.7-4.9,3.5-5.2,5.1h0Z"/>
  <path class="cls-1" d="M200.1,307.6c1.2,29.8-10,61.1-36.9,75.5-44.8,25.1-120.4-1.1-128.1-54.9-6.1-43.3,39.3-75.6,78.3-79.7,28.4-2.4,68.5,8.3,81.5,35.9,3.3,7.2,4.8,15.1,5.2,23v.2ZM111,296.2c-7.4,2.2-11.1,12.3-9,19.5,3.5,13.2,23.7,11.4,25.9-1.5,1.5-9-7.1-20.6-16.7-18.1h-.2Z"/>
  <path class="cls-1" d="M280.9,340.9c-2.3,5.5-1.7,12.9-1.5,19,1.2,18.4-4.8,31.4-22.4,33.2-10.8,1.1-24.7.5-34.9-4.9-5.7-3.1-8.9-8-10.9-14.5-7.1-27.3,1.7-61.9,5.7-87.1,2.3-16.2,9.7-33.4,27.6-36.1,20.4-1.9,37.1,15.4,51,28.1,5.1,4.7,11.2,10.7,15.7,12.1,11.3,3.9,14.4-15.8,22.1-22.4,13.6-13.5,32-5,36.4,12.6,3.9,13.7,3.5,29.6,3.8,44,0,8.8,0,17.5.6,26.3.5,8.6,1.6,21.3-2.1,24.8-5.6,5.4-17.3-4.7-22.5-8.1-6.2-4.5-12.6-9.5-19-13.8-9.2-6.2-43.1-28.7-49.6-13.3h0Z"/>
  <path class="cls-1" d="M486.7,300.2c-2.7,3.2,2.3,5.8,4.9,6.9,6.8,2.9,15.2,3,21.1,7.7,8.3,6.3,6.7,20.5-3.4,24-3,1.2-6.5,1.8-9.3,2.6-2.9.8-4.9,1.7-5.1,2.7.2,3.1,9,4.2,11.9,4.7,8,1,15.8.6,22.3,4.5,8.3,4.6,9.9,17.2,4.2,24.2-5.3,6.9-15.6,7.2-24,7.1-15.7-.8-31.4-1.3-47.3-.7-14,.2-31.6-.3-44-3.1-7.5-1.7-14.9-4.9-19.1-11.7-3.9-6.3-5.6-16.5-6.5-26-1.2-12.3-1.4-23.5-2.1-35.7-.2-4.4-.5-8.9-.9-13.3-.5-10.8-3.3-21.3.9-28.9,4.4-5.9,13.7-4.6,20.7-4.8,11.5.3,24.3,1.5,36,2.2,14.1.9,25.7,1.2,38.7.9,10.2.1,23.1-2.9,28.6,6.5,4.7,7.7,1.9,20.8-7.2,24.4-6,2.9-15.2,1.9-20.3,6h0Z"/>
  <path class="cls-1" d="M84.3,668.6c5.8-6.5,4-25.5,4.3-34.5-.2-19.5,1.1-33.6,9-51.6,3.8-8.4,11.5-18.7,21.6-16.5,13.5,5,14.2,17.3,14.6,38.4-.2,28.4-5.6,60.6-9.1,86.8-2.1,21.2-7.7,54.8-30.4,62.2-22.1,6.4-38.4-13-44.3-33.2-5-16-7.7-32-10.4-48.3-5.2-29.7-5.3-54.6,1.2-84.2,2.1-10.1,2.9-11.4,8.5-20,3.9-6.1,10.2-8.1,15.5-4,5.9,4.4,9.8,5.1,12.8,12.9,5.9,15.9,11.4,25.4,9.5,43.1-.9,12.8-5.7,28.6-6.2,39.4,0,2.3-.2,11.3,3.4,9.7h0Z"/>
  <path class="cls-1" d="M365.4,715.7c-5.2.3-8.2,5.6-12.2,9.7-4.6,5.4-9.8,10.6-15.8,14.3-26.5,16.6-39.6-40.6-39.2-58.9-.6-21.1,7.2-40.5,12.8-60.5,6.3-22,13.3-45.6,31.8-60.2,15.8-13.3,33.6-9.7,45.2,7,6,9,7.5,20.2,8.4,30.8,1.9,23.1,2.4,46,.3,68.9-.3,4.8-.2,9.9,1,14.4,2.8,11,13.7,19.4,18.9,29.6,13.1,23.9-2.5,46.6-27.9,24.3-4.3-3.5-8.4-7.9-12.2-11.9-2.9-3.1-7.7-7.5-11-7.5h-.1ZM353.3,599.9c-6.7,0-12.7,21.7-14.6,28.1-1.7,7.5-6.4,22.5-1.6,28.3,3.1,3.5,8.8,3,12.4.5,3.4-2.1,5.8-5.2,7.2-10.5,1.2-4.3,1.6-8.9,1.9-13.4.4-7.2,1.8-30.8-5.3-33.1h0Z"/>
  <path class="cls-1" d="M194,616.3c7.2-4.1,5.7-22.1,8.6-31,.8-3.4,1.9-6.8,3.4-9.9,7.6-16.4,23.7-19.2,28.7.9,2.3,11.4,1,14.6,2.2,26.8,2,31.2,7.9,65.6,9.8,96.4.3,14.1,1,28.5-7.3,31.6-15.7,1.8-36.4-41-48.9-49.6-13.2-8.5-1.7,29.4-2.2,35.2,1.2,12.2-1.4,26.2-13.9,30.4-13.3,4.4-30-3.9-31.6-18.8-.8-4.8-.7-10.2-.4-15.3,1.5-25.7,5.6-51.7,5.2-77.5-.1-11.8-.9-23.5-1.7-35.3-.6-10.4-2-15.4-.2-25.6,1.6-7.9,4.6-15.7,11.6-14.6,13.8,1.8,25,58.1,36.7,56.4h0Z"/>
  <path class="cls-1" d="M294,671.1c.4,19.6-3.1,68.7-19.6,73.6-7,1.6-13.3-7.7-15.2-14.5-1.8-5.3-2.5-11.1-2.8-16.7-.5-11.1-.4-22.2-.1-33.3.8-32.6,1.8-65.1,2.3-97.8.1-6.7,1.4-15.2,6.6-18.9,7.7-5.5,18.2-.6,23.7,6.6,11,15.7,8.2,37.9,7.3,56.7-1.3,16.3-2.3,29-2,44.1v.2Z"/>
</svg>