<?xml version="1.0" encoding="UTF-8"?>
<svg id="Layer_1" data-name="Layer 1" xmlns="http://www.w3.org/2000/svg" width="1292.8" height="642.2" version="1.1" viewBox="0 0 1292.8 642.2">
  <defs>
    <style>
      .cls-1 {
        fill: #000;
        stroke-width: 0px;
      }
    </style>
  </defs>
  <path class="cls-1" d="M318.7,276.9c-4.8,49.5-25.3,70.4-73.3,29.3-13.4-11.2-26.3-24-40.7-34.2-53.7-38.2-78.3,1.8-63.6,55,12.7,47.4,58.9,53.7,97.7,70.7,35,15.3,60.3,47.9,67.5,84.6,13.5,66.3-31.4,121.6-96.5,131.9-85,13.5-191.7-51.9-195.4-139.9.3-15.3,8-29.3,22.9-32.8,40.2-9.2,90.9,54,130.4,46.9,15.2-6.1.2-21.7-9.6-28.4-25.4-17-55.9-25.1-83-38.6-112.2-51.6-39.7-244.2,27.7-324.8,7.5-8.5,16.6-16.6,26.5-23.3,120.9-83.1,200.7,94.7,189.5,203.4v.2Z"/>
  <path class="cls-1" d="M332.7,374.5c4.3-87.1,16.6-170.7,44.6-252.5,3.8-11.1,7.7-22.4,12.4-33.2,5.6-12.3,12.2-25.3,25-30.1,11-4.3,26.6-1.4,39.9,2.2,39.7,10.9,71.2,39.3,92.8,74.9,25.3,40.8,34.4,88,38.8,135.5,21.7,270.5-262.1,512-253.5,103.3v-.2ZM443,272.6c-8-.8-10.5,18.6-12.2,25.4-4.4,21.9-18.9,98.5-4.3,114.9,11,8.7,25.6-14.6,30.9-26.7,14.1-32.8,14.8-72.6-3.6-103.3-3.7-5.9-7.5-9.9-10.7-10.4h0Z"/>
  <path class="cls-1" d="M904.3,165.2c1.1-31.1-5.7-70.6-.2-98.9,3.2-16.2,14.5-27.4,30.1-32.1,15.5-5.1,34-3.6,53.2,2.4,48.3,15.8,95.7,54.5,123.2,94.4,86.5,142.3,22.5,353.4-128,422.9-62.3,27.1-70.1-17.3-71.3-74-.6-17.7-1.4-35.1-2.1-52.8-2.1-87.1-4.3-174.7-5-261.8v-.2ZM991.3,394.7c2.2,1.1,5.1-.5,8.3-4.2,38.4-52.8,58.9-154.2,3.1-189.7-8.3-4.7-16.4-3.9-19.4,6.1-1.7,5.1-1.9,12.3-1.9,18.3.9,50.5.8,100.8,4,151.2.6,6.1,1.3,15.7,5.7,18.3h0Z"/>
  <path class="cls-1" d="M724.2,240.1c1.7,62.1-21.5,154.1,45.5,181.5,13.9,5.8,28.9,8.8,43.4,14,27.9,10.2,61.3,27.4,70.6,55.9,6.3,21-6,42-23.1,54.6-47.3,31.5-124,28-177.5,15.9-57.4-12.5-67.6-68.9-71.2-119.3-7-118.3.9-237.1,5.3-355.5.9-7.6,3-14.4,7.5-19.5,7.5-8.9,21.9-11.3,33.8-10.3,83.7,5,70.6,115.3,65.8,182.5v.2Z"/>
  <path class="cls-1" d="M1261,234.6c-.7,8.9-1.7,17.1-2.8,25.8-6.2,39.8-11.6,238.8-41.7,233.2-7.4-4.1-10.6-14.5-14.1-26.2-2.5-9.5-4.3-20.3-5.7-31.8-3.9-33.2-3.9-68-8-100.1-11.2-83.8-18.5-168.3-25.8-252.6-.6-18.4,1.3-41.3,18.4-51.4,17.2-9.7,42.2-.9,55.5,13.6,8.4,9,13.6,20.4,17.6,31.9,14.9,44.2,10.2,83.9,8.2,132.6-.4,8.2-.9,16.9-1.6,24.6v.2Z"/>
  <path class="cls-1" d="M1211.3,613.9c-11.4-.7-22.7-4-31.7-10.7-31.6-23.7-3.9-72.6,34-78.5,32.4-6.2,55.7,17.7,50.5,49.8-4.2,26-26.2,41.3-52.5,39.4h-.2Z"/>
</svg>