<?xml version="1.0" encoding="UTF-8"?>
<svg id="Layer_1" data-name="Layer 1" xmlns="http://www.w3.org/2000/svg" width="807.4" height="146.5" version="1.1" viewBox="0 0 807.4 146.5">
  <defs>
    <style>
      .cls-1 {
        fill: #000;
        stroke-width: 0px;
      }
    </style>
  </defs>
  <g>
    <path class="cls-1" d="M168.4,101c.3,5.6.6,11.2.8,16.8.1,3,.2,6-.1,9-.4,3.7-2.7,6.1-6.6,6.4-3.8.3-6.4-1.7-7.5-5.3-.7-2.2-1.2-4.5-1.4-6.8-3.9-33.4-7.6-66.8-11.6-100.2-1.8-15.2,6.1-22.9,21.1-20.2,11.2,2,20.7,7.3,28.7,15.2,14.9,14.8,16.6,34.8,3.9,51.6-4.5,6-10.4,11.1-16.1,17.1,2.7,2.1,5.3,4,7.9,6,8.6,6.8,17.3,13.6,25.7,20.6,2.3,1.9,4.2,4.3,5.8,6.8,2.2,3.6,1.5,7.1-1.5,10-2.7,2.5-5.9,3.2-9.2,1.2-2.5-1.5-4.8-3.6-7.1-5.4-10.1-8-20.2-16.1-30.2-24.1-.9.5-1.7.9-2.6,1.4ZM165.6,70.6c15.1-8.2,22.8-19.5,21.2-29.9-1.7-11-13-20.6-28.2-23.1,2.3,17.6,4.6,34.8,7,53Z"/>
    <path class="cls-1" d="M716.2,84.7c7.4,5,14.2,9.3,20.6,13.9,7,5,13.9,10.3,20.7,15.7,2.1,1.6,4,3.6,5.3,5.9,2,3.5,2,7.6-1.4,9.9-2.4,1.6-6.3,2.3-9.1,1.6-3-.7-5.5-3.5-8.2-5.4-11.9-8.4-23.7-16.9-36.9-26.3-1.2,7.3,0,12.8,0,18.2,0,3.7.3,7.3,0,11-.3,4.2-3.1,7.3-7,6.9-2.7-.3-5.8-2.9-7.5-5.3-1.4-1.9-1.3-5.1-1.5-7.7-2.3-27.9-6.2-55.6-13.6-82.7-1-3.8-1.8-7.8-2-11.8-.3-9.3,5.5-16,14.6-15.2,18.6,1.7,34.9,8.9,45.7,24.9,6.6,9.7,5.1,21.9-3.4,31.4-4.6,5.2-10.2,9.4-16.3,15ZM693.9,32.2c2.9,13.6,5.6,25.6,8.6,39.5,6.2-5,11.5-8.4,15.8-12.7,5.2-5.3,4.8-10.3-.8-15.5-6.1-5.7-13.3-9.6-23.6-11.3Z"/>
    <path class="cls-1" d="M447.7,77.3c3.6-.9,6.1-1.7,8.6-2.2,4.3-.8,8,0,9.9,4.6,1.6,3.9-.5,7.9-5.6,10.2-2.1,1-4.4,1.6-6.7,2-1.9.3-3.9,0-7.3,0,.8,7.7,1.2,15.2,2.6,22.6,1,5.9,3.3,7.2,9.3,6.1,5.2-.9,10.4-2.4,15.4-4,8.6-2.7,17-5.6,25.6-8.4,1.6-.5,3.2-1.1,4.8-1.4,6.6-1.5,11,.2,12.4,4.9,1.2,4.3-1,8.5-6.9,10.5-14.8,5-29.7,9.7-44.7,14.2-3.4,1-7.2,1-10.9,1-9.4,0-15.9-4.6-19-13.3-1.6-4.3-2.9-8.9-3.3-13.5-1.7-18.9-1.8-37.9,1.9-56.7,5.9-29.8,23.7-45.7,54-48.3,1,0,2-.2,3-.1,6.1.1,9.9,2.8,10.3,7.3.4,4.6-2.3,7.2-8.9,8.6-5.8,1.2-11.8,1.9-17.5,3.6-9.8,2.9-16.7,9.4-20.7,18.8-4.4,10.5-6.1,21.5-6.2,33.6Z"/>
    <path class="cls-1" d="M270,115.1c.1-11.2-4.8-17.5-10.3-23.3-5.7-6-12.1-11.5-17.8-17.5-10.9-11.4-16.5-25-14.4-41,.7-5.5,2.4-11.2,4.9-16.1,7.1-13.7,21-19.3,35.5-14,6.1,2.2,11.8,6.1,17.1,9.9,3.6,2.5,4.6,6.7,1.6,10.6-3,3.8-6.8,3.6-10.7,1.3-3.5-2-6.8-4.4-10.4-5.9-9.7-4-17.1-.5-20.3,9.6-3.3,10.6-1.5,20.6,5.3,29.3,3.9,4.9,8.9,9,13.2,13.6,6,6.6,12.2,13.2,17.6,20.3,4.7,6.2,6.8,13.7,6.5,21.7-.5,12.4-10,20.7-22.1,18.6-16.1-2.8-28.5-12.4-39.5-23.8-3.1-3.2-3.2-7.4-.2-11,3-3.6,7-3.8,10.9-2,2.4,1.1,4.3,3.1,6.5,4.7,4.9,3.5,9.5,7.3,14.7,10.4,3.2,1.9,7.1,2.8,12.1,4.7Z"/>
    <path class="cls-1" d="M555,85c4.2-18.8,8.3-37.7,12.5-56.5,1-4.5,2.3-9.1,3.8-13.4,1.5-4.1,4.5-6.7,9.2-6,4.2.6,6.7,4.4,6.3,9.8-.2,2.3-.9,4.6-1.4,6.8-6.3,31.3-12.5,62.7-18.8,94-.6,2.9-1.1,5.9-1.9,8.8-1.7,6.1-4.9,9-9.3,8.8-5.7-.2-8-4.2-9.4-8.9-.8-2.5-1.2-5.2-1.8-7.8-7.2-30.1-14.4-60.2-21.5-90.4-.7-2.9-1.4-5.8-1.6-8.8-.3-3.8,1.6-6.5,5.4-7.4,3.7-.9,6.6.8,8.2,4.1,1.2,2.4,1.9,5,2.6,7.5,4.5,17.1,9,34.1,13.5,51.2.7,2.8,1.7,5.6,2.6,8.4.5-.1,1.1-.3,1.6-.4Z"/>
    <path class="cls-1" d="M613.4,75.2c6.7-1,12.3-1.9,17.9-2.5,2.6-.2,5.7-.4,7.8.8,2,1.1,3.7,3.8,4.1,6.1.7,3.7-1.7,6.5-5.2,7.5-4.8,1.4-9.7,2.2-14.6,3.1-3.2.6-6.4,1.1-10.7,1.9.8,8.5,1.5,16.3,2.3,25.2,4.3-.7,7.5-.9,10.6-1.7,9.7-2.4,19.3-5,29-7.4,1.9-.5,3.9-1,5.9-1.1,5.3-.3,9.3,2.3,9.8,6.5.6,4.7-1.9,7.6-6.1,9.1-2.2.8-4.5,1.3-6.7,1.9-11.3,2.9-22.5,6.1-33.9,8.7-14.7,3.3-23-1.6-25-16.4-3.2-23.5-4.3-47.2-.7-70.7,3.5-22.9,21.2-34.8,44.3-31.2,5.5.9,8.6,3.9,8.4,8.1-.2,4.2-3.3,6.8-9.1,7.4-4.6.5-9.3.7-13.9,1.4-6.6,1.1-10.7,5.3-12.5,11.5-2.9,10-3.2,20.2-1.9,31.7Z"/>
    <path class="cls-1" d="M23.9,75.2c9.6-1,18.1-1.9,26.6-2.9,2.3-.3,4.6-.9,6.9-.9,5.4,0,9.2,2.8,9.3,7,0,4.9-3,7.3-7.4,8-6.2.9-12.6,1.4-18.8,2.1-3.9.4-7.7.8-12.6,1.4,2.2,11.8,4.2,22.5,6,33.2.8,4.9,1.5,9.9,1.8,14.8.2,3.9-1.3,7.5-5.6,8.4-4.7,1-7.8-1.5-9-5.9-1.4-5.1-2.4-10.4-3.5-15.6-1.6-8.2-2.7-16.5-4.9-24.5-1.5-5.2-5.8-9.8-6.5-15-.7-4.9,1.3-10.1,0-15.5C3.5,60.2,1.7,50.3.4,40.5-1.8,24.5,5.2,14.4,20.8,11.5c9.1-1.7,18.5-1.8,27.8-2.5,1.3-.1,2.7,0,4,.4,3.8,1.1,6.5,3.4,6.6,7.7,0,3.8-1.8,6.5-5.3,7.6-3.1.9-6.5,1.3-9.8,1.7-6.3.7-12.6.8-18.8,1.9-7.6,1.3-9.2,3.3-8.1,10.9,1.7,11.8,4.3,23.4,6.7,36Z"/>
    <path class="cls-1" d="M338.3,29c1.9,13.5,4.2,26.3,5.5,39.1,1.9,17.9,3.2,35.8,4.8,53.7.2,2,.1,4-.1,6-.5,4-2.5,6.9-6.8,7.4-4,.5-7.4-2.2-8-7.2-1.1-8.3-1.2-16.6-2.2-24.9-2.6-21.5-5.5-42.9-8.3-64.4-.3-1.9-1.2-3.7-2-6.1-5.5.9-10.7,1.9-15.9,2.6-2.3.3-5,.9-6.8,0-2.4-1.2-5.3-3.6-5.7-5.9-.4-2.3,1.4-5.7,3.3-7.5,1.7-1.7,4.8-2.2,7.3-2.8,18.9-4.2,37.7-8.2,56.6-12.3,1.6-.4,3.3-.9,4.9-.9,4.4,0,8,1.7,9.2,6.2,1.2,4.7-1.4,8-5.5,9.3-6.6,2.1-13.5,3.5-20.3,5.2-3.2.8-6.3,1.6-9.9,2.6Z"/>
    <path class="cls-1" d="M118.9,118.1c0,2.7.4,5.4,0,8-.6,3.6-3.2,6.4-6.8,6-2.5-.3-5.4-2.4-6.9-4.6-1.4-1.9-1.4-5-1.7-7.6-3.8-32.1-7.6-64.1-11.4-96.2-.3-2.3-.5-4.6-.6-7-.2-4.5,1.4-8.2,6.2-8.7,4.9-.6,7,2.9,8.1,7.1.2,1,.6,1.9.7,2.9,4.5,33.3,8.9,66.6,13.4,100-.3,0-.6,0-.8,0Z"/>
    <path class="cls-1" d="M807.1,95.8c0,3.3.2,6.7,0,10-.3,4.5-2.8,7.7-7.5,7.9-4.7.2-7.4-2.8-8.2-7.2-.6-3.3-.7-6.6-1-9.9-2.3-25.5-4.6-51.1-6.8-76.6-.3-3.6-.8-7.5.2-10.9.7-2.4,3.4-4.9,5.9-5.8,3.5-1.3,6.5.9,8,4.3.9,2.1,1.4,4.5,1.6,6.7,2.8,27.2,5.5,54.3,8.3,81.5-.1,0-.2,0-.3,0Z"/>
  </g>
  <path class="cls-1" d="M787.7,132.9c1-3.1,1.3-6.7,3.1-9.1,1.5-1.9,5.2-3.5,7.4-3,2.2.5,4.9,3.5,5.4,5.9.6,3-.4,6.5-1.4,9.5-2,5.5-5.6,7.8-9.4,6.5-4.7-1.6-5.2-5.4-5.1-9.8Z"/>
</svg>