<?xml version="1.0" encoding="UTF-8"?>
<svg id="Layer_1" data-name="Layer 1" xmlns="http://www.w3.org/2000/svg" width="816.5" height="372.4" version="1.1" viewBox="0 0 816.5 372.4">
  <defs>
    <style>
      .cls-1 {
        fill: #000;
        stroke-width: 0px;
      }
    </style>
  </defs>
  <path class="cls-1" d="M177,355.2c-41.6-1.8-80-9.5-117.1-22.9-8.4-3-16.7-7.3-24-12.5-15-10.7-18.2-26.4-7.9-41.7,5.3-7.9,12.4-15,19.9-21,13.7-11.2,29.8-18.4,47-22.8,36.8-9.4,73.8-10.2,110.6-.7,9,2.3,18.1,5.6,26.2,10.2,8.1,4.6,15.9,10.3,22.1,17.2,20.5,22.9,17.6,54.5-6.1,74.1-14.3,11.8-31.3,16.8-49.3,18.9-7.7.9-15.5,1-21.2,1.3ZM149.6,245.8c-8.1,0-16.2-.6-24.3.1-23,2-44.5,8.8-63.5,22.3-5.3,3.7-10.3,8-14.5,12.9-11,12.5-9.4,20.3,5.3,28.4,3.4,1.9,6.9,3.6,10.6,4.9,38.2,13.6,77.3,22.3,118,22,12.1,0,24.5-2.7,36.3-5.9,7.2-2,14.2-6.5,20-11.5,14.2-12.4,15-30.7,2.7-45.1-9.4-11.1-22.1-16.8-35.7-20.7-17.9-5.1-36.3-6.7-54.9-7.2Z"/>
  <path class="cls-1" d="M697.8,109.4c2.6,25.5,5.2,51,7.8,76.5.3,2.9.5,5.8.3,8.7-.3,3.8-2.1,6.9-6.4,7.3-4.2.4-6.7-2-7.9-5.8-.7-2.2-.9-4.4-1.2-6.7-5.7-47-11.3-94.1-16.9-141.1-.2-1.6-.4-3.2-.4-4.8-.2-7.4,1.9-11.4,6.5-12.7,4.6-1.3,8.7,1.3,11.9,7.8,1.5,3.2,2.8,6.5,4,9.9,5.9,16.5,11.7,33,17.6,49.5,1.2,3.3,2.5,6.6,5.2,9.5-2.7-15.6-5.4-31.3-8.2-46.9-2.1-12.1-4.5-24.3-6.5-36.4-.5-3.2-1-6.6-.4-9.6.4-2.2,2.5-5.1,4.4-5.6,1.8-.5,5,1.1,6.3,2.8,2.2,2.7,4,6.1,4.7,9.5,2.2,11.4,4.9,22.9,5.5,34.5,1.4,24.4,6.3,48.2,11.2,72,3.9,19,7.7,38.1,11.5,57.2.6,3.1,1,6.5.6,9.6-.4,3.7-2.5,6.8-6.5,7.6-3.9.8-7.2-.7-9.1-4.1-2-3.7-3.7-7.6-5.1-11.5-8-22.6-15.9-45.3-23.8-68-1.2-3.3-2.5-6.5-3.8-9.7l-1.2.8Z"/>
  <path class="cls-1" d="M413.2,331.9c0-11.7.2-21.7,0-31.7-.4-18.5-1.1-37-1.6-55.5,0-3.2,0-6.5.7-9.7,1.1-4.9,4.6-7.6,8.9-7.5,4.9.2,7.6,3.3,8.8,7.7.4,1.5.5,3.2.5,4.8.8,28.2,1.6,56.4,2.3,84.7.1,5.2,0,10.4-.8,15.5-2.2,13.3-12.1,18-23.5,10.9-6.5-4.1-12.6-9.2-18.3-14.4-26.5-24.4-52.8-49-79.2-73.5-2.3-2.2-4.8-4.2-8.7-7.7.9,7.1,1.9,12.3,2.2,17.5.9,14.9,1.8,29.8,2.1,44.7.2,8.9-3.3,13.1-8.6,12.7-5-.3-7.7-4.4-7.5-12.7.4-23.5-2.1-46.6-7.7-69.4-.6-2.5-1-5.1-1.3-7.7-.6-4.8.6-9.2,5-11.8,4-2.5,8.2-1.9,11.9.7,4.2,3,8.4,6.1,12.2,9.6,23.2,21.2,46.3,42.6,69.5,63.9,8.8,8.1,17.8,16.1,26.8,24.1,1.6,1.5,3.6,2.6,6.5,4.7Z"/>
  <path class="cls-1" d="M364.7,60.7c1.6,23.8,9,45,23.7,63.3,6.5,8.1,14.1,15.3,20.8,23.2,4.8,5.7,9.8,11.4,13.2,17.9,9.4,17.9-.3,36.9-20.1,40.8-9.7,1.9-18.8.2-27.3-4.6-16.7-9.5-26.5-24.5-32.9-42-1.9-5.2.2-9.8,4.1-11.6,4.2-1.9,8.7-.3,11.6,4.4,1.7,2.8,2.5,6.1,4.4,8.7,5.3,7.3,10.3,14.9,16.5,21.4,5,5.3,12.1,7.6,19.7,6.4,9.3-1.4,13.1-7.9,8.7-16.1-2.7-5.1-6.6-9.6-10.4-14-6.6-7.6-13.8-14.7-20.1-22.5-20.9-26-30.3-55.5-26.2-89,1.2-9.4,3.8-18.5,9.2-26.4,9.6-14.1,24.3-15.9,36.3-3.8,4.5,4.5,8.3,10,11.3,15.7,9.9,18.2,14.6,38.1,18.6,58.2.4,1.8.7,4.3-.2,5.7-1.5,2.3-3.8,5.1-6,5.4-2.2.3-5.8-1.5-7.1-3.5-1.9-2.8-2.4-6.6-3.4-10-3.9-13-7.4-26.2-11.9-39-2.1-6-5.6-11.8-9.4-17-6.7-9.1-12.7-8.4-16.6,2.3-3.1,8.4-4.3,17.5-6.3,26.3Z"/>
  <path class="cls-1" d="M477.7,126.1c-5.5,1.4-10.4,2.6-16,4.1,1,13.9,2,27.7,2.8,41.6.4,5.8.7,11.7.5,17.5-.2,5.7-3.4,9.3-7.7,9.7-4.3.3-7.8-2.9-9-8.5-.4-1.9-.4-3.9-.5-5.8-1.6-46.1-6.9-91.9-12.9-137.7-.7-5.8-1.7-11.6-2.3-17.4-.3-2.5-.8-5.5.2-7.6,1.1-2.3,3.5-4.7,5.9-5.6,3.4-1.2,6.7.7,7.9,4,1.4,3.9,2.3,8.1,2.9,12.3,3.3,24.8,6.4,49.6,9.6,74.4.2,1.6.4,3.1.7,5h16.5c-1.3-11.6-2.6-23.1-4-34.6-2-16.4-4.3-32.8-6.3-49.3-.3-2.5-.5-5.2,0-7.7.7-3.4,2.9-5.8,6.7-6.1,3.7-.3,6.4,1.4,7.7,4.8,1.1,3,1.9,6.2,2.3,9.4,6.2,50.9,12.3,101.8,18.4,152.8.3,2.3.7,4.5.5,6.8-.3,5.2-3.2,8.7-7.1,9.2-3.8.5-7.7-2.4-9-7.3-.6-2.2-.7-4.5-.9-6.7-1.9-17.1-3.7-34.2-5.6-51.3-.2-1.8-.7-3.6-1.2-5.8Z"/>
  <path class="cls-1" d="M746,29.7c0,8.3-.7,16.7.1,24.9,2.2,21.9,4.5,43.9,7.8,65.7,3.3,21.8,12.4,41.5,24.9,59.7,1.4,2,3.3,3.7,6.6,7.4,1.1-29.5,2.1-56.8,3.1-84.6-4.5.9-8.6,1.8-12.7,2.6-2.2.4-4.5.8-6.7.7-3.6-.3-6.1-2.3-6.8-5.9-.7-3.7,1.2-6.4,4.4-7.8,3-1.2,6.2-1.9,9.3-2.7,5-1.3,10.1-2.6,15.1-3.6,10-1.9,15.6,3.3,14.7,13.5-.3,3.5-1.3,7-1.5,10.6-1,16.8-1.8,33.7-2.6,50.5-.4,8.1-.4,16.2-1.1,24.3-.3,3.8-1.2,7.8-2.7,11.3-3.5,7.9-11.2,10.5-18.5,5.8-4-2.6-7.8-6-10.5-9.9-6-8.8-12.1-17.8-16.4-27.5-8.3-18.7-14.5-38.1-16.8-58.7-2-18.1-4.4-36.1-5.9-54.2-.7-9-.3-18.2.7-27.1.8-7.6,3.8-15,12.4-16.9,8.7-1.9,13.9,4.2,17.9,10.7,8.6,13.9,13.3,29.5,17.3,45.3,1.4,5.4-1.3,9.8-5.7,10.7-3.9.9-7.4-1.3-9.3-6.7-2.9-7.9-5.1-16.1-8-24-1.9-5.1-4.4-9.9-6.6-14.8-.9.2-1.7.5-2.6.7Z"/>
  <path class="cls-1" d="M224.7,46.9c-1.5,24.5-3.1,49-4.7,74.2,3.1.4,5.5.6,7.9,1.1,5.7,1.2,8.5,4.6,7.9,9.3-.6,4.3-3.5,6.5-9.1,6.9-1.9.1-3.9-.2-7.1-.4-.5,6.7-1,13.4-1.6,20-.3,3.2-.6,6.5-1.5,9.5-1.1,3.4-3.8,5.3-7.5,5-3.7-.3-5.9-2.5-6.8-6-.5-1.9-.7-3.9-.6-5.8,2.7-42.8,5.3-85.5,8.3-128.2.4-5,1.9-10.3,4.2-14.9,4.2-8.4,13.3-9.2,18.9-1.7,3.2,4.4,5.7,9.6,7.2,14.8,6.5,23.1,12.9,46.2,18.4,69.6,6.2,26.2,11.3,52.7,16.8,79,.8,3.8,1.2,7.7,1.2,11.6,0,4-2.6,6.7-6.5,7.4-3.9.7-7.2-.7-8.9-4.3-1.2-2.6-1.9-5.5-2.5-8.3-9-41.2-18-82.4-27-123.6-1.2-5.3-2.9-10.5-4.4-15.8-.8.2-1.6.3-2.4.5Z"/>
  <path class="cls-1" d="M162.4,171.2c2.5-5.5.9-10.2-1.2-14.5-4-8.1-8.5-16-13-23.9-6.3-11-13.3-21.6-19.1-32.8-9.3-17.9-14.1-36.9-12.6-57.2.7-9.8,2.8-19.3,8.3-27.6,8.2-12.5,21.2-14.1,32.3-4.1,1.7,1.5,3.3,3.2,4.7,5,8.9,11.4,14.2,24.7,18.5,38.3,1.7,5.4,0,9.2-3.8,10.8-4.2,1.7-8-.3-10.5-5.9-1.7-3.8-2.8-8-4.6-11.8-3.1-6.4-6-13-9.9-18.9-2.1-3.2-6.1-7.3-9.3-7.3-5.1,0-6.2,6-7.4,10.2-2.8,9.1-3.1,18.5-1.8,27.9,1.8,12.7,5.8,24.6,11.9,35.8,4.8,8.8,10.3,17.3,15.4,25.9,4.8,8.1,10,16,14.1,24.4,2.9,6,5.2,12.7,6.1,19.3,2,15.5-8.6,25.8-24,23.8-5.7-.8-11.4-2.8-16.5-5.4-15-7.6-26.7-19.4-37.5-32-.8-1-1.5-2.1-2.1-3.3-2-4-1.5-7.6,1.8-10.5,3.4-2.9,7.3-2.7,10.7,0,2.3,1.8,4,4.2,6.2,6.2,8.4,7.6,16.6,15.4,25.5,22.4,6.6,5.1,9.2,5.2,17.8,5.3Z"/>
  <path class="cls-1" d="M64.4,166.4c5.7-6.8,6.4-12.9,7.3-18.9,3.1-21.4,1.4-42.8-1-64.1-1.7-14.8-4.4-29.5-6.5-44.3-.5-3.5-1.3-7.2-.5-10.6.5-2.4,3.1-5.6,5.2-6,2.6-.4,6,1.2,8.4,3,1.5,1.1,2,4,2.5,6.2,7.4,37,12.6,74.3,9.3,112.1-.7,8-2.5,16.1-5.5,23.5-7,17.6-22.5,20.1-34.8,5.6-5.4-6.3-9.7-13.9-13.2-21.4-9.3-19.8-14.4-41-17.9-62.5-3-18.6-4.8-37.3-6.9-56-.4-3.5-.5-7.3.6-10.5.8-2.2,3.8-4.9,6.1-5.1,2.2-.2,5.9,1.8,6.9,3.9,1.7,3.3,2.1,7.4,2.4,11.3,2.6,28.5,6,56.8,14,84.4,3.5,12.1,8.5,23.8,13.5,35.3,2.1,4.8,6.2,8.8,10.1,14.2Z"/>
  <path class="cls-1" d="M669.1,354.7c-4.8-.2-8.3-3.5-9-9.8-.9-8.1-1.4-16.2-1.9-24.3-1-15.8-1.1-15.7-14-24.8-20-13.9-39.8-28-59.6-42.2-3.1-2.2-6.1-4.9-8.5-7.9-2.3-2.8-2.3-6.6.4-8.9,2.2-1.8,5.9-3.3,8.5-2.7,3.6.8,6.9,3.4,10.1,5.6,21.6,15,43.3,29.9,64.6,45.3,5.7,4.1,10.2,4.5,16.6,1.5,33.9-15.8,66.2-34.4,98.4-53.3,3.3-2,6.7-4,10.3-5.4,3.6-1.4,7.2-.6,9.4,3,2.2,3.5,1.5,7-1.4,9.7-2.3,2.2-5.1,4.1-7.9,5.7-33.1,18.6-66.2,37.2-99.4,55.5-11,6.1-9.3,4.8-8.5,15.6.7,8.7,1.5,17.5,1.5,26.2,0,7.1-4.2,11.3-9.7,11.1Z"/>
  <path class="cls-1" d="M558.4,114.4c3.7,16.4,7.4,33.2,11.1,49.9,1.4,6.3,3.1,12.6,4.5,18.9.6,2.8,1.1,5.8,1,8.6-.1,3.5-2.1,6.8-5.7,6.8-2.8,0-6.7-1.3-8.1-3.4-2.3-3.3-3.3-7.7-4.2-11.8-7.3-33.2-14.6-66.5-21.6-99.7-3.8-18.1-7.1-36.3-10.5-54.4-.4-2.2-.9-4.5-.7-6.7.4-4.4,3.6-7.8,7.6-7.2,6,.9,12.2,1.8,17.7,4.2,10.8,4.8,20,12,27.4,21.3,15.9,20.1,14.5,43.3-3.8,61.3-4.1,4.1-8.9,7.4-14.8,12.2ZM554.5,95.2c14.4-8.5,20.2-21.4,15.7-34.1-4.6-12.9-14.7-20.6-28.3-28.2,4.5,22.2,8.5,42,12.6,62.3Z"/>
  <path class="cls-1" d="M621.4,112.3c3.5,22.8,7.1,45.9,10.6,68.9.4,2.9.8,5.8.5,8.7-.4,3.5-2.7,5.9-6.4,6.3-3.7.4-6.5-1.2-7.8-4.6-1.2-3.3-1.9-6.9-2.5-10.4-8.4-51.6-16.8-103.1-25.1-154.7-.8-4.8-1.9-9.7,2.4-13.7,6.3-5.9,11.3-6.2,18-.4,11.4,9.8,21.4,20.9,27.6,34.8,8.4,18.8,6.7,36.7-5.6,53.3-3,4-7.2,7.2-11.6,11.6ZM607.5,31.4c3.7,21.1,7,40.6,10.5,60.7,17-14.5,10.8-43-10.5-60.7Z"/>
  <path class="cls-1" d="M576.4,341.5c-21.6,2.6-43.1,5.1-64.7,7.7-1,.1-1.9.4-2.9.5-20.2,2.8-30-3.8-33.7-24.1-3.2-17.5-5.2-35.3-7.7-53-1.1-7.4-2.2-14.8-3.2-22.2-.3-1.9-.6-3.8-.8-5.8-.6-8,1.7-12.4,6.8-13,5-.6,8.8,2.9,10,10.9,3.7,23.1,6.9,46.2,10.3,69.3.6,4.2,1.3,8.3,2.4,12.4,1.8,7,3.1,8.1,10.2,7.2,11.9-1.5,23.7-4.1,35.6-5.1,17.1-1.5,34.3-2.1,51.5-2.8,2.9-.1,5.8.4,8.6,1.2,5.3,1.5,8,5.2,7.5,9.8-.5,4.6-3.8,7.9-9.3,8.2-6.8.4-13.6,0-20.4,0,0-.5-.1-1-.2-1.5Z"/>
  <path class="cls-1" d="M541.4,188.9c0,6-2.3,9.5-6.4,10.2-3.9.8-8-1.7-9.2-6.8-2.8-12-4.9-24.2-7.4-36.2-8.3-39.7-16.7-79.3-25.1-119-.7-3.5-1.7-7-2-10.5-.3-4.6,2.3-8.1,6.1-8.6,4.2-.6,6.9,1.5,8.4,5.1,1,2.4,1.7,4.9,2.3,7.4,10.9,51.1,21.7,102.2,32.6,153.2.4,1.9.5,3.9.7,5.2Z"/>
  <path class="cls-1" d="M679.8,175.4c0,5.3.3,9.2,0,13.1-.4,4-3,7.2-6.8,6.8-2.6-.3-5.4-3-7.1-5.4-1.3-1.9-1.4-4.9-1.5-7.5-3.5-52.8-10.3-105.2-18.4-157.4-.3-2.2-.9-4.5-.8-6.7.2-3.8,1.8-7,6.1-7.7,4.2-.7,6.9,1.5,8.2,5.2.9,2.4,1.3,5,1.7,7.6,4.9,36,10,71.9,14.6,107.9,1.9,15.1,2.9,30.3,4.1,44.1Z"/>
</svg>