<?xml version="1.0" encoding="UTF-8"?>
<svg id="Layer_1" data-name="Layer 1" xmlns="http://www.w3.org/2000/svg" width="1649.1" height="758" version="1.1" viewBox="0 0 1649.1 758">
  <defs>
    <style>
      .cls-1 {
        fill: #000;
        stroke-width: 0px;
      }
    </style>
  </defs>
  <path class="cls-1" d="M160.7,589c-3,5.9-4.1,12.5-4.3,19.1-.2,14.9,3.6,33.1,3,49.2,0,35.4-13.9,66.6-51.1,75.6-37.9,8-74.4-5.9-80-48-3.3-26.1-.9-52.5-2.5-78.8-4.7-62.3-12.4-124.4-8.2-186.9,3.5-48,26.8-63.3,72.4-74.5,94.6-21.6,194.3-10.4,194.6,108.1-1.1,54.1-46.8,85.6-94.2,110.7-6.4,3.6-13.2,7.5-18.6,12-4.8,4-8.5,8.4-11,13.4h0Z"/>
  <path class="cls-1" d="M1300.1,665.5c-11.3,2.2-19.4,13.4-29.1,19.6-18.1,12.3-43.8,13-57.8-3.9-38.7-56.4-4.7-272.6-7.6-340.6.3-18.3,4.6-35.3,25.8-38.4,20-2.9,45.6,5.4,66.2,14,16.4,6.9,32.6,15.5,47.5,25.2,25.3,16.6,47.5,35.5,52.7,63.7,3.6,18.6.2,38.2-8.9,54.9-9,18-25.3,34.2-36.8,49.8-16.5,22.3-5.8,40.9,9.6,59.4,20.8,27.2,61.2,64.6,45.8,100.9-10.8,22.7-40.4,23.5-61.4,14.5-14.7-4.9-31.3-21.2-45.9-19.3h-.1Z"/>
  <path class="cls-1" d="M512.6,488.2c0,39.6-6.8,79.9-22.1,116.5-24.3,65.3-101.3,154.9-157.4,69.2-18.4-28.8-29.6-61.8-34.5-95.1-9-57.6-.8-115.4,26.4-167.3,25.4-48.2,49.8-80.2,109.5-64.1,61.2,18.7,80.3,81.7,78.2,140.5v.2Z"/>
  <path class="cls-1" d="M716,480.7c-9.8,17.4-2.3,40.9-.5,60.4,6.4,46.7,14,90.4-15.3,131.9-37.3,51.5-81.2,50.3-93.4-7.6-2.8-12.5-3.8-25.5-4.2-38.3-1-31.6-1.3-63.2-3.3-94.9-1.6-18.3-.8-41.5-13.7-55.5-5.9-6.5-14.1-10.2-22-13.6-12.3-5-24.9-11.2-31.7-22.9-12.8-21.4-12.1-54.9,6.2-73.7,12.9-13.4,32.4-19.2,50.3-23.9,25.4-6.4,51.4-10.8,77.6-11.7,26.4-.6,55.1-.5,73.4,18,26.3,28.2,22.9,84.7-3,109.4-7,7.2-15.4,13.6-20.3,22.3h0Z"/>
  <path class="cls-1" d="M954.2,484.8c-5.9,7.2-7.9,18.2-7,28.1,4.5,53.5,31,117.5-8.1,158-22.1,21.5-62.6,36-84.3,6.3-33.3-49.4-14.7-125.4-17.4-183.2-2.1-37-28.3-27.7-52-41.2-20.7-13.2-22.6-41.7-20.9-64.1,5.2-79.9,96-54.7,165.3-55.3,14.5.7,29.4,3.1,39.9,13.7,12.5,12.5,17.3,33.3,20.6,51.8,3.3,19.1,3.4,43.3-8.1,58.5-7.7,10.5-20.1,17-27.9,27.3h0Z"/>
  <path class="cls-1" d="M1092.8,445.5c-7.3,6.3-3.6,12.7,3.9,16.6,13.8,7.1,31.6,9.4,40.5,23.7,10.5,16,14.9,46.8-1.1,59.8-3.5,2.8-7.4,5-11.4,7.2-5.2,3.1-30,14.1-14.2,18.3,16.8,3.4,36.2-2.1,51.9,7,17.3,10.3,20.5,31,21.6,50.4.5,12.1-1,25.5-6.5,34.3-13.3,22.4-51,19.6-74.3,22.7-43.7,3.5-80,18.5-94.7-22.8-2.2-6.4-3.7-13.7-4.8-21.4-8.6-85,2.5-173.2-8.9-257.1-2.1-19.4-8.6-49.5,15-56.1,16.9-4.2,36.4.4,53.9-.4,21.1,0,48.3-7.2,66.8-2.9,22.2,4.9,23.1,31.7,23.3,50.5-.2,18.3-1.9,39-16.7,49.5-12.7,9.2-32.9,10.6-44.5,20.6h0Z"/>
  <path class="cls-1" d="M1519.6,331.4c10.1.8,17.8-8.3,25-15.6,8.6-9.2,18.6-18.4,30.6-22.7,31.3-12.4,68,14.1,67.8,48,.7,30.3-19.6,58.5-37,82.3-33.1,42.5-31.6,67.5-36.4,118.6-1.8,20-3.9,40.1-5.4,60.1-1.2,15.7-1.6,32.4-4.3,48.1-2.4,14.7-8.6,33-22,38.3-15.6,5.2-29.7-4.9-40-21.6-15.6-27.1-14.9-60.7-15.3-90.8-.3-21.6-.6-43.6-1.9-65-2.2-41.4-10.5-55.4-34.2-85.7-10.4-13.7-25.6-34.3-36.8-51.3-10.7-16.5-20.1-31.8-22.4-50-4.6-50.9,66.7-40.6,102.8-9.6,9,6.6,19.3,16,29.4,17h.1Z"/>
  <path class="cls-1" d="M210.5,251.9c-.5,16.5-2.5,33.9-9.6,48.9-14.4,30.4-44.3,22.5-60.3-4.6-9.7-13.7-28.5-60.2-44.3-26-8.1,16-9.6,48.9-31.4,51.2-20.6-.6-29.2-29.2-33.2-46.7C19.3,215,5.2,117.6,22.1,59.4c3.5-10.5,8.4-19.8,15.7-26.9,12.7-12.6,30.2-12.2,42.6,1.6,18.4,21.2,21.3,51.8,28.2,77.9,8.3,31.9,17.4,16.5,21-8.1,3.7-24.5,5.5-56.2,27.3-71.5,52.7-30.6,52.6,169.9,53.7,219.3v.2Z"/>
  <path class="cls-1" d="M966.3,73.4c8.4-.6,16.4-7.9,22.8-14,66.8-75.7,94.5,75.4,111.7,160.6,1.7,8.7,3.4,18.4,3.3,26.6.2,17.8-9.8,26.6-27.1,19.6-16.3-7-30.7-20.8-44.1-33.5-9.3-8.6-17.5-18.9-28.5-25.1-9.3-5.4-19.8-1.1-29.7,2.2-12,4.5-25.1,8.8-32.9,19.7-6.6,8.7-10.5,18.8-18.4,27.9-8.7,10-20.1,17.6-32.7,21.8-16.9,5.6-51.4,8.2-62.3-8.1-17.2-31,24.3-130.2,40.1-168,10.7-22.5,28.2-74.2,59.7-53.7,11.6,7.1,22.9,24.7,37.9,24h.1Z"/>
  <path class="cls-1" d="M506.9,250.9c-4.2,2.9-4.8,9.3-6.1,14.6-1.2,5.9-2.5,12.4-5.8,17.5-8,12.3-27.4,16.2-42.7,10.9-8.8-3.2-15.5-9.5-19.6-18.6-4.6-10.1-6.2-22.7-7.6-34.3-3.2-30.3-5.6-59.2-10.7-89.4-2.5-16.4-5-33.1-6.7-49.6-1.3-12.9-2.2-27.9-.2-39.6,4-25.8,25.4-18.4,40.9-4.7,7.7,6.6,14.8,15.2,21,24,8.7,10.7,34.4,62,48.7,35.7,5.7-10.4,7.8-24.3,12.9-38.5,4.2-11.7,9.6-23.7,17.6-33.2,22.2-26.1,49.7-6,60.5,19.7,3.2,7.1,5.4,14.8,7,22.4,7.9,39.1,5.9,81,7.4,121.1,1.9,65.2-11.5,114.4-86.2,57.2-7.1-4.7-22.9-19.5-30.4-15.4h0Z"/>
  <path class="cls-1" d="M1229.5,225.4c-8.1,8.8-3.2,29.2-12.7,40.7-10.1,12.7-28.5,13.4-45.4,12.7-18.8-1.6-50.5-2.5-52.7-25.4-.5-47.6,41.8-119.9,66.1-169.4,4.2-8.1,8.2-16.1,13.1-23.8,6.1-9.8,15.5-20.4,25.5-23.5,37.2-10.8,66.6,73.3,77.4,104.4,8,23.6,15.9,48,23.1,72.1,5.3,18.2,16.3,51.3-3.2,62.9-14.5,6.8-31.5-4.4-42.5-13.7-10.3-7-37.1-46.3-48.7-37.1h0Z"/>
  <path class="cls-1" d="M643.4,60.4c-3.4-6.6-6.2-12.2-4.4-17.5,4.7-11.6,23.2-17.3,35.7-21,163.4-48.8,179.5,184.9,43,247.6-7.7,3.5-15.6,6.1-23.7,7.1-12.6,1.5-23-2-28.8-12.3-6.8-12.3-5.7-28.9-6.2-43.4-.5-26.3-1-52.7-2.3-78.9-.7-13.4-1.5-26.9-2.7-40.3-1.1-15.8-2.7-27.7-10.5-41.2h0Z"/>
  <path class="cls-1" d="M318,254.2c-1.6,1.4-1.7,5.7-1.8,8.3-.1,4.8.1,10.9-.2,16.1-3.2,53.7-75,28.3-75.4-39.6.2-32.1,0-60.4.8-97.4,2-34.1,1.7-128,46.7-109.5,19,8.5,28.7,25.1,38.6,43.4,7.6,13.8,17,31.2,26.7,50.2,27.3,55.1,85.6,173.7,31.7,172.5-9.9-.7-19.1-5-27.7-11.1-7.7-5.5-14.7-12.6-21.3-19.5-7-6.8-14.2-15.7-18-13.4h0Z"/>
  <path class="cls-1" d="M1572.2,185.3c-6.4,7.9,3.9,11.6,12.6,14.9,11.4,3.8,24.7,6.7,30.9,17.8,10.8,20-6.1,41.6-25.8,47.8-16.8,6-35.2,6.4-52.8,7.5-23.6,1.2-48.1.1-50.6-27.5-.8-6.8-.5-14.4-.2-21.5,2.7-48.3,1.8-96.8-.1-145.2-.4-11.5-.9-26.6,7.3-34.9,12-11.6,35.5-6.9,51.4-8.7,28.6-1.9,81.7-10.5,83.7,30.3,0,13.7-8.8,26.5-21.2,32.5-7.1,5-39.7,9.1-39,16.2,2.3,6.7,22.9,11.3,29.5,19.6,10.2,10.5,7.1,27.7-4.5,35.9-6.2,5.2-16.2,9.7-21.1,15.2h0Z"/>
  <path class="cls-1" d="M1471.3,121.3c-.8,52.6-20.5,107.1-65.7,136.6-17.3,11.3-40.5,21.9-45.7-7.3-2.6-14-2.7-30.6-3.4-44.5-.7-16.9-2.1-33-3.4-49.9-2.3-35.4-7.9-70.7-6.2-105.7,1-10.5,5.1-18.7,15.6-19.8,8.8-1.3,22.1,1.5,33.6,2,10.2.6,20.6,1.2,30.3,4.4,35.5,10.7,46.1,50.4,45,84.1v.2Z"/>
</svg>