<svg id="Layer_1" data-name="Layer 1" xmlns="http://www.w3.org/2000/svg" viewBox="0 0 208.85 206.04"><defs><style>.cls-1{fill:#fff;}</style></defs><path class="cls-1" d="M137.21,69.9H121.48a3.22,3.22,0,1,1,0-6.43h15.73a3.22,3.22,0,1,1,0,6.43Z" transform="translate(-26.49 -18.48)"/><path class="cls-1" d="M66.41,133a3.22,3.22,0,0,1-.41-6.41l128-16.44a3.22,3.22,0,1,1,.82,6.38L66.82,133a2.82,2.82,0,0,1-.41,0Z" transform="translate(-26.49 -18.48)"/><path class="cls-1" d="M140.79,177.17H125.05a3.22,3.22,0,0,1,0-6.43h15.74a3.22,3.22,0,0,1,0,6.43Z" transform="translate(-26.49 -18.48)"/><path class="cls-1" d="M75.82,19.51c28.11,0,48.5,21.42,48.5,48.3s-20.39,48.41-48.5,48.41S27.41,94.69,27.41,67.81,47.8,19.51,75.82,19.51ZM91.06,45.05H63.46V89.54h8V71.32H88.28l-1.13-6.6H71.49V51.65H91.06Z" transform="translate(-26.49 -18.48)"/><path class="cls-1" d="M185.9,18.48c28.74,0,49.44,21.84,49.44,49.33s-20.7,49.44-49.44,49.44-49.33-22-49.33-49.44S157.27,18.48,185.9,18.48Zm0,92.28c24.82,0,42.54-19.26,42.54-42.95S210.72,25,185.9,25s-42.53,19.26-42.53,42.84S161.08,110.76,185.9,110.76Zm0-20.7c-11.64,0-20.7-9.06-20.7-22.76s9.17-22.76,20.8-22.76,20.6,9,20.6,22.66S197.64,90.06,185.9,90.06Zm.1-39.44c-8.13,0-13.08,7-13.08,16.58S178,83.88,186,83.88s12.88-7,12.88-16.68C198.88,57.72,193.83,50.62,186,50.62Z" transform="translate(-26.49 -18.48)"/><path class="cls-1" d="M75.82,125.75c28.73,0,49.43,21.84,49.43,49.33s-20.7,49.44-49.43,49.44-49.33-22-49.33-49.44S47.19,125.75,75.82,125.75Zm0,92.28c24.82,0,42.53-19.26,42.53-42.95s-17.71-42.84-42.53-42.84S33.28,151.5,33.28,175.08,51,218,75.82,218Zm19.67-22.66-7.93,1.55L75.82,179.31l-11.33,17H56l15.45-22.45-13.9-20.19,7.93-1.54,10.4,15.76,10-15.14h8.55l-14.32,20.7Z" transform="translate(-26.49 -18.48)"/><path class="cls-1" d="M185.9,126.78c28.12,0,48.51,21.43,48.51,48.3S214,223.49,185.9,223.49,137.5,202,137.5,175.08,157.89,126.78,185.9,126.78Zm23,39.45-19.47,4.12-1.75-19.78h-3.29l-1.86,19.78L163,166.23l-.83,3,17.92,7.93L170,194.45l2.47,1.75,13.39-14.94,13.39,14.94,2.47-1.75-10-17.31,18-7.93Z" transform="translate(-26.49 -18.48)"/></svg>